<svg width="1234" height="2264" viewBox="0 0 1234 2264" fill="none" xmlns="http://www.w3.org/2000/svg">
<rect width="1234" height="2264" fill="#111111"/>
<line x1="617" y1="399.979" x2="620.847" y2="1863.98" stroke="#70F1D6" stroke-width="16"/>
<rect x="98" y="1868" width="1022" height="292" rx="146" fill="#1A3E38" stroke="#70F1D6" stroke-width="8"/>
<path d="M419.312 2009.25H413.25V1992.97H419.188C424.438 1992.97 427.854 1994.31 429.438 1997C430.042 1998.04 430.344 1999.27 430.344 2000.69C430.344 2003.79 429.385 2006 427.469 2007.31C425.573 2008.6 422.854 2009.25 419.312 2009.25ZM416.469 1988.41H407.406V2035H413.25V2014.31H415.969L420.375 2014.22C421.75 2016.11 422.802 2017.68 423.531 2018.91C424.281 2020.14 424.833 2021.04 425.188 2021.62C425.562 2022.21 426 2022.99 426.5 2023.97C427.021 2024.95 427.385 2025.65 427.594 2026.06C427.823 2026.46 428.198 2027.21 428.719 2028.31C429.26 2029.42 429.594 2030.1 429.719 2030.38C429.844 2030.65 430.198 2031.44 430.781 2032.75C431.385 2034.04 431.74 2034.79 431.844 2035H438.625C436.479 2030.27 434.469 2026.2 432.594 2022.78C430.719 2019.34 428.552 2016.05 426.094 2012.91C429.219 2012.22 431.719 2010.86 433.594 2008.84C435.49 2006.8 436.438 2004.07 436.438 2000.66C436.438 1997.22 435.5 1994.6 433.625 1992.81C431.75 1991 429.385 1989.81 426.531 1989.25C423.698 1988.69 420.344 1988.41 416.469 1988.41ZM452.812 2033.41C450.417 2031.8 448.635 2029.66 447.469 2026.97C446.323 2024.26 445.75 2021.21 445.75 2017.81C445.75 2014.42 446.281 2011.38 447.344 2008.69C448.427 2005.98 450.031 2003.8 452.156 2002.16C454.302 2000.49 456.656 1999.66 459.219 1999.66C464.052 1999.66 467.594 2001.31 469.844 2004.62C472.094 2007.94 473.219 2012.01 473.219 2016.84V2018.75H451.5C451.625 2022.27 452.5 2025.26 454.125 2027.72C455.771 2030.18 458.229 2031.41 461.5 2031.41C463.688 2031.2 466.74 2030.01 470.656 2027.84L472.531 2031.72C469.823 2034.43 466.125 2035.78 461.438 2035.78C458.083 2035.78 455.208 2034.99 452.812 2033.41ZM467.781 2014.59C467.365 2007.57 464.906 2004.06 460.406 2004.06C455.323 2004.06 452.417 2007.57 451.688 2014.59H467.781ZM496.688 2005.09V2021.19C496.688 2023.19 496.792 2024.77 497 2025.94C497.229 2027.1 497.667 2028.05 498.312 2028.78C498.979 2029.51 499.833 2030 500.875 2030.25C501.917 2030.5 503.333 2030.62 505.125 2030.62H511.406L511.094 2035H505.344C499.448 2035 495.521 2033.92 493.562 2031.75C492.292 2030.33 491.51 2028.05 491.219 2024.91C491.073 2023.51 491 2021.79 491 2019.75V2005.09H481.312L481.938 2000.72H491V1988.91L496.688 1987.22V2000.72H511.125V2005.09H496.688ZM549.375 2023.88C549.375 2031.81 544.958 2035.78 536.125 2035.78C527.292 2035.78 522.875 2031.81 522.875 2023.88V2000.72H528.562V2024.38C528.562 2026.81 529.167 2028.59 530.375 2029.72C531.583 2030.84 533.5 2031.41 536.125 2031.41C538.75 2031.41 540.667 2030.84 541.875 2029.72C543.083 2028.59 543.688 2026.81 543.688 2024.38V2000.72H549.375V2023.88ZM572.312 2035H566.625V2000.72H571.281L571.75 2007.06C573.146 2004.65 574.979 2002.81 577.25 2001.56C579.521 2000.31 582.094 1999.69 584.969 1999.69H587.719V2004.97H584.156C580.51 2004.97 577.625 2005.89 575.5 2007.72C573.375 2009.53 572.312 2012.27 572.312 2015.94V2035ZM616.062 1999.69C623.167 1999.69 626.719 2004.19 626.719 2013.19V2035H621.031V2013.88C621.031 2011.46 620.906 2009.73 620.656 2008.69C620.406 2007.65 620.031 2006.79 619.531 2006.12C618.469 2004.75 616.729 2004.06 614.312 2004.06C611.875 2004.06 609.812 2004.77 608.125 2006.19C606.438 2007.6 605.594 2009.48 605.594 2011.81V2035H599.906V2000.72H605.125L605.438 2004.44C607.708 2001.27 611.25 1999.69 616.062 1999.69ZM688.875 2005.09V2021.19C688.875 2023.19 688.979 2024.77 689.188 2025.94C689.417 2027.1 689.854 2028.05 690.5 2028.78C691.167 2029.51 692.021 2030 693.062 2030.25C694.104 2030.5 695.521 2030.62 697.312 2030.62H703.594L703.281 2035H697.531C691.635 2035 687.708 2033.92 685.75 2031.75C684.479 2030.33 683.698 2028.05 683.406 2024.91C683.26 2023.51 683.188 2021.79 683.188 2019.75V2005.09H673.5L674.125 2000.72H683.188V1988.91L688.875 1987.22V2000.72H703.312V2005.09H688.875ZM726.062 2035H720.375V2000.72H725.031L725.5 2007.06C726.896 2004.65 728.729 2002.81 731 2001.56C733.271 2000.31 735.844 1999.69 738.719 1999.69H741.469V2004.97H737.906C734.26 2004.97 731.375 2005.89 729.25 2007.72C727.125 2009.53 726.062 2012.27 726.062 2015.94V2035ZM780 2023.88C780 2031.81 775.583 2035.78 766.75 2035.78C757.917 2035.78 753.5 2031.81 753.5 2023.88V2000.72H759.188V2024.38C759.188 2026.81 759.792 2028.59 761 2029.72C762.208 2030.84 764.125 2031.41 766.75 2031.41C769.375 2031.41 771.292 2030.84 772.5 2029.72C773.708 2028.59 774.312 2026.81 774.312 2024.38V2000.72H780V2023.88ZM798.75 2033.41C796.354 2031.8 794.573 2029.66 793.406 2026.97C792.26 2024.26 791.688 2021.21 791.688 2017.81C791.688 2014.42 792.219 2011.38 793.281 2008.69C794.365 2005.98 795.969 2003.8 798.094 2002.16C800.24 2000.49 802.594 1999.66 805.156 1999.66C809.99 1999.66 813.531 2001.31 815.781 2004.62C818.031 2007.94 819.156 2012.01 819.156 2016.84V2018.75H797.438C797.562 2022.27 798.438 2025.26 800.062 2027.72C801.708 2030.18 804.167 2031.41 807.438 2031.41C809.625 2031.2 812.677 2030.01 816.594 2027.84L818.469 2031.72C815.76 2034.43 812.062 2035.78 807.375 2035.78C804.021 2035.78 801.146 2034.99 798.75 2033.41ZM813.719 2014.59C813.302 2007.57 810.844 2004.06 806.344 2004.06C801.26 2004.06 798.354 2007.57 797.625 2014.59H813.719Z" fill="#70F1D6"/>
<rect x="98" y="104" width="1022" height="292" rx="146" fill="#1A3E38" stroke="#70F1D6" stroke-width="8"/>
<path d="M452.125 268.75C449.938 270.771 446.823 271.781 442.781 271.781C440.198 271.781 437.844 271.292 435.719 270.312C433.594 269.312 431.854 267.979 430.5 266.312C427.646 262.812 426.219 258.594 426.219 253.656C426.219 250.469 426.865 247.521 428.156 244.812C429.469 242.104 431.396 239.906 433.938 238.219C436.479 236.531 439.615 235.688 443.344 235.688C447.073 235.688 449.969 236.677 452.031 238.656L450.594 242.469C448.198 240.865 445.49 240.062 442.469 240.062C439.448 240.062 436.938 241.354 434.938 243.938C432.958 246.521 431.969 249.812 431.969 253.812C431.969 257.792 432.958 261.052 434.938 263.594C436.938 266.135 439.479 267.406 442.562 267.406C445.667 267.406 448.396 266.573 450.75 264.906L452.125 268.75ZM476.219 271H470.531V236.719H475.188L475.656 243.062C477.052 240.646 478.885 238.812 481.156 237.562C483.427 236.312 486 235.688 488.875 235.688H491.625V240.969H488.062C484.417 240.969 481.531 241.885 479.406 243.719C477.281 245.531 476.219 248.271 476.219 251.938V271ZM510.469 269.406C508.073 267.802 506.292 265.656 505.125 262.969C503.979 260.26 503.406 257.208 503.406 253.812C503.406 250.417 503.938 247.375 505 244.688C506.083 241.979 507.688 239.802 509.812 238.156C511.958 236.49 514.312 235.656 516.875 235.656C521.708 235.656 525.25 237.312 527.5 240.625C529.75 243.938 530.875 248.01 530.875 252.844V254.75H509.156C509.281 258.271 510.156 261.26 511.781 263.719C513.427 266.177 515.885 267.406 519.156 267.406C521.344 267.198 524.396 266.01 528.312 263.844L530.188 267.719C527.479 270.427 523.781 271.781 519.094 271.781C515.74 271.781 512.865 270.99 510.469 269.406ZM525.438 250.594C525.021 243.573 522.562 240.062 518.062 240.062C512.979 240.062 510.073 243.573 509.344 250.594H525.438ZM562.656 263.344V254.594L558 255.25C554.75 255.708 552.5 256.167 551.25 256.625C548.458 257.688 547.062 259.469 547.062 261.969C547.062 263.698 547.562 265.073 548.562 266.094C549.562 267.115 550.938 267.625 552.688 267.625C556.542 267.625 559.865 266.198 562.656 263.344ZM562.656 247.375C562.656 242.479 560.583 240.031 556.438 240.031C554.479 240.031 552.312 240.26 549.938 240.719C547.583 241.177 545.927 241.615 544.969 242.031L543.625 237.844C547.938 236.406 551.99 235.688 555.781 235.688C559.573 235.688 562.615 236.552 564.906 238.281C567.198 240.01 568.344 242.677 568.344 246.281V271H563.625L562.875 267.031C561.542 268.385 559.823 269.521 557.719 270.438C555.635 271.333 553.594 271.781 551.594 271.781C548.698 271.781 546.292 270.917 544.375 269.188C542.458 267.438 541.5 264.979 541.5 261.812C541.5 258.625 542.75 256.292 545.25 254.812C546.938 253.771 548.729 253.062 550.625 252.688C552.542 252.292 555.031 251.906 558.094 251.531L562.656 251V247.375ZM592.781 241.094V257.188C592.781 259.188 592.885 260.771 593.094 261.938C593.323 263.104 593.76 264.052 594.406 264.781C595.073 265.51 595.927 266 596.969 266.25C598.01 266.5 599.427 266.625 601.219 266.625H607.5L607.188 271H601.438C595.542 271 591.615 269.917 589.656 267.75C588.385 266.333 587.604 264.052 587.312 260.906C587.167 259.51 587.094 257.792 587.094 255.75V241.094H577.406L578.031 236.719H587.094V224.906L592.781 223.219V236.719H607.219V241.094H592.781ZM625.781 269.406C623.385 267.802 621.604 265.656 620.438 262.969C619.292 260.26 618.719 257.208 618.719 253.812C618.719 250.417 619.25 247.375 620.312 244.688C621.396 241.979 623 239.802 625.125 238.156C627.271 236.49 629.625 235.656 632.188 235.656C637.021 235.656 640.562 237.312 642.812 240.625C645.062 243.938 646.188 248.01 646.188 252.844V254.75H624.469C624.594 258.271 625.469 261.26 627.094 263.719C628.74 266.177 631.198 267.406 634.469 267.406C636.656 267.198 639.708 266.01 643.625 263.844L645.5 267.719C642.792 270.427 639.094 271.781 634.406 271.781C631.052 271.781 628.177 270.99 625.781 269.406ZM640.75 250.594C640.333 243.573 637.875 240.062 633.375 240.062C628.292 240.062 625.385 243.573 624.656 250.594H640.75ZM666.75 266.438H684.75L684.438 271H660.906V224.406H666.75V266.438ZM709 267.406C712.979 267.406 715.688 265.427 717.125 261.469C717.896 259.344 718.281 257.167 718.281 254.938C718.281 252.688 718.198 250.938 718.031 249.688C717.656 246.854 716.75 244.542 715.312 242.75C713.896 240.958 711.792 240.062 709 240.062C705.125 240.062 702.479 242.083 701.062 246.125C700.312 248.292 699.938 250.562 699.938 252.938C699.938 257.146 700.594 260.615 701.906 263.344C703.219 266.052 705.583 267.406 709 267.406ZM720.25 240.688C722.729 244.021 723.969 248.375 723.969 253.75C723.969 259.125 722.625 263.479 719.938 266.812C717.25 270.125 713.604 271.781 709 271.781C706.542 271.781 704.354 271.312 702.438 270.375C700.521 269.438 698.969 268.146 697.781 266.5C695.385 263.188 694.188 258.875 694.188 253.562C694.188 248.25 695.51 243.948 698.156 240.656C700.802 237.344 704.521 235.688 709.312 235.688C714.125 235.688 717.771 237.354 720.25 240.688ZM754.844 263.344V254.594L750.188 255.25C746.938 255.708 744.688 256.167 743.438 256.625C740.646 257.688 739.25 259.469 739.25 261.969C739.25 263.698 739.75 265.073 740.75 266.094C741.75 267.115 743.125 267.625 744.875 267.625C748.729 267.625 752.052 266.198 754.844 263.344ZM754.844 247.375C754.844 242.479 752.771 240.031 748.625 240.031C746.667 240.031 744.5 240.26 742.125 240.719C739.771 241.177 738.115 241.615 737.156 242.031L735.812 237.844C740.125 236.406 744.177 235.688 747.969 235.688C751.76 235.688 754.802 236.552 757.094 238.281C759.385 240.01 760.531 242.677 760.531 246.281V271H755.812L755.062 267.031C753.729 268.385 752.01 269.521 749.906 270.438C747.823 271.333 745.781 271.781 743.781 271.781C740.885 271.781 738.479 270.917 736.562 269.188C734.646 267.438 733.688 264.979 733.688 261.812C733.688 258.625 734.938 256.292 737.438 254.812C739.125 253.771 740.917 253.062 742.812 252.688C744.729 252.292 747.219 251.906 750.281 251.531L754.844 251V247.375ZM789.031 235.688C796.135 235.688 799.688 240.188 799.688 249.188V271H794V249.875C794 247.458 793.875 245.729 793.625 244.688C793.375 243.646 793 242.792 792.5 242.125C791.438 240.75 789.698 240.062 787.281 240.062C784.844 240.062 782.781 240.771 781.094 242.188C779.406 243.604 778.562 245.479 778.562 247.812V271H772.875V236.719H778.094L778.406 240.438C780.677 237.271 784.219 235.688 789.031 235.688Z" fill="#70F1D6"/>
<rect x="106" y="1427" width="1022" height="292" fill="#0B6459" stroke="#70F1D6" stroke-width="8"/>
<path d="M243.469 1486.09H251.562C254.521 1486.09 256.885 1485.32 258.656 1483.78C260.448 1482.24 261.344 1479.97 261.344 1476.97C261.344 1473.97 260.458 1471.72 258.688 1470.22C256.917 1468.72 254.542 1467.97 251.562 1467.97H243.469V1486.09ZM266.125 1470.47C267.021 1472.24 267.469 1474.29 267.469 1476.62C267.469 1482.96 265.198 1487.07 260.656 1488.97C257.823 1490.16 254.271 1490.75 250 1490.75H243.469V1510H237.625V1463.41H250.031C258.385 1463.41 263.75 1465.76 266.125 1470.47ZM303.031 1498.88C303.031 1506.81 298.615 1510.78 289.781 1510.78C280.948 1510.78 276.531 1506.81 276.531 1498.88V1475.72H282.219V1499.38C282.219 1501.81 282.823 1503.59 284.031 1504.72C285.24 1505.84 287.156 1506.41 289.781 1506.41C292.406 1506.41 294.323 1505.84 295.531 1504.72C296.74 1503.59 297.344 1501.81 297.344 1499.38V1475.72H303.031V1498.88ZM332.375 1490.53C335.333 1491.26 337.49 1492.42 338.844 1494C340.219 1495.58 340.906 1497.88 340.906 1500.88C340.906 1503.85 339.76 1506.25 337.469 1508.06C335.198 1509.88 332.344 1510.78 328.906 1510.78C326.448 1510.78 324.062 1510.48 321.75 1509.88C319.438 1509.25 317.729 1508.52 316.625 1507.69L318.031 1503.59C318.906 1504.14 320.292 1504.69 322.188 1505.25C324.083 1505.79 326.135 1506.06 328.344 1506.06C330.573 1506.06 332.344 1505.6 333.656 1504.69C334.99 1503.75 335.656 1502.51 335.656 1500.97C335.656 1499.43 335.323 1498.22 334.656 1497.34C334.01 1496.45 332.75 1495.77 330.875 1495.31L325.062 1493.91C321.708 1493.07 319.479 1491.86 318.375 1490.28C317.271 1488.68 316.719 1486.69 316.719 1484.31C316.719 1481.94 317.677 1479.75 319.594 1477.75C321.531 1475.75 324.344 1474.73 328.031 1474.69H328.438C332.583 1474.69 336.115 1475.47 339.031 1477.03L337.781 1481.03C334.74 1479.74 331.656 1479.09 328.531 1479.09C326.594 1479.11 325 1479.6 323.75 1480.56C322.521 1481.5 321.906 1482.69 321.906 1484.12C321.906 1485.56 322.219 1486.65 322.844 1487.38C323.469 1488.08 324.656 1488.65 326.406 1489.06L332.375 1490.53ZM380.062 1489.31V1510H374.375V1490.03C374.375 1485.74 373.802 1482.84 372.656 1481.34C371.51 1479.82 369.781 1479.06 367.469 1479.06C365.135 1479.06 363.104 1479.88 361.375 1481.5C359.667 1483.1 358.812 1484.83 358.812 1486.69V1510H353.125V1461.72L358.812 1461.09V1479.88C361.479 1476.42 365.052 1474.69 369.531 1474.69C376.552 1474.69 380.062 1479.56 380.062 1489.31ZM435.562 1496.94C435.938 1499.85 436.812 1502.16 438.188 1503.84C439.583 1505.53 441.708 1506.38 444.562 1506.38C448.417 1506.38 451.021 1504.38 452.375 1500.38C453.062 1498.27 453.406 1496.08 453.406 1493.81C453.406 1491.52 453.333 1489.76 453.188 1488.53C452.875 1485.61 452.052 1483.31 450.719 1481.62C449.406 1479.92 447.354 1479.06 444.562 1479.06C439.896 1479.06 437.042 1481.31 436 1485.81C435.562 1487.69 435.344 1489.7 435.344 1491.84C435.344 1493.97 435.417 1495.67 435.562 1496.94ZM435.344 1480.44C437.656 1476.6 441.115 1474.69 445.719 1474.69C450.344 1474.69 453.729 1476.35 455.875 1479.69C458.042 1483.02 459.125 1487.21 459.125 1492.25C459.125 1498.85 457.562 1503.82 454.438 1507.16C452.188 1509.57 449.125 1510.78 445.25 1510.78C442.688 1510.78 440.729 1510.31 439.375 1509.38C438.042 1508.42 436.698 1507.06 435.344 1505.31L435.281 1510H429.656V1461.72L435.344 1461.09V1480.44ZM481.875 1506.41C485.854 1506.41 488.562 1504.43 490 1500.47C490.771 1498.34 491.156 1496.17 491.156 1493.94C491.156 1491.69 491.073 1489.94 490.906 1488.69C490.531 1485.85 489.625 1483.54 488.188 1481.75C486.771 1479.96 484.667 1479.06 481.875 1479.06C478 1479.06 475.354 1481.08 473.938 1485.12C473.188 1487.29 472.812 1489.56 472.812 1491.94C472.812 1496.15 473.469 1499.61 474.781 1502.34C476.094 1505.05 478.458 1506.41 481.875 1506.41ZM493.125 1479.69C495.604 1483.02 496.844 1487.38 496.844 1492.75C496.844 1498.12 495.5 1502.48 492.812 1505.81C490.125 1509.12 486.479 1510.78 481.875 1510.78C479.417 1510.78 477.229 1510.31 475.312 1509.38C473.396 1508.44 471.844 1507.15 470.656 1505.5C468.26 1502.19 467.062 1497.88 467.062 1492.56C467.062 1487.25 468.385 1482.95 471.031 1479.66C473.677 1476.34 477.396 1474.69 482.188 1474.69C487 1474.69 490.646 1476.35 493.125 1479.69ZM518.156 1510H512.469V1475.72H517.125L517.594 1482.06C518.99 1479.65 520.823 1477.81 523.094 1476.56C525.365 1475.31 527.938 1474.69 530.812 1474.69H533.562V1479.97H530C526.354 1479.97 523.469 1480.89 521.344 1482.72C519.219 1484.53 518.156 1487.27 518.156 1490.94V1510ZM556.594 1510H550.906V1475.72H555.562L556.031 1482.06C557.427 1479.65 559.26 1477.81 561.531 1476.56C563.802 1475.31 566.375 1474.69 569.25 1474.69H572V1479.97H568.438C564.792 1479.97 561.906 1480.89 559.781 1482.72C557.656 1484.53 556.594 1487.27 556.594 1490.94V1510ZM597.188 1506.41C601.167 1506.41 603.875 1504.43 605.312 1500.47C606.083 1498.34 606.469 1496.17 606.469 1493.94C606.469 1491.69 606.385 1489.94 606.219 1488.69C605.844 1485.85 604.938 1483.54 603.5 1481.75C602.083 1479.96 599.979 1479.06 597.188 1479.06C593.312 1479.06 590.667 1481.08 589.25 1485.12C588.5 1487.29 588.125 1489.56 588.125 1491.94C588.125 1496.15 588.781 1499.61 590.094 1502.34C591.406 1505.05 593.771 1506.41 597.188 1506.41ZM608.438 1479.69C610.917 1483.02 612.156 1487.38 612.156 1492.75C612.156 1498.12 610.812 1502.48 608.125 1505.81C605.438 1509.12 601.792 1510.78 597.188 1510.78C594.729 1510.78 592.542 1510.31 590.625 1509.38C588.708 1508.44 587.156 1507.15 585.969 1505.5C583.573 1502.19 582.375 1497.88 582.375 1492.56C582.375 1487.25 583.698 1482.95 586.344 1479.66C588.99 1476.34 592.708 1474.69 597.5 1474.69C602.312 1474.69 605.958 1476.35 608.438 1479.69ZM629.75 1510H623.938L617.25 1475.72H622.969L627.062 1502.19L632.781 1475.72H639.562L645.156 1502.09L648.75 1475.72H654.125L647.844 1510H641.844L636.125 1480.22L629.75 1510ZM667.719 1508.41C665.323 1506.8 663.542 1504.66 662.375 1501.97C661.229 1499.26 660.656 1496.21 660.656 1492.81C660.656 1489.42 661.188 1486.38 662.25 1483.69C663.333 1480.98 664.938 1478.8 667.062 1477.16C669.208 1475.49 671.562 1474.66 674.125 1474.66C678.958 1474.66 682.5 1476.31 684.75 1479.62C687 1482.94 688.125 1487.01 688.125 1491.84V1493.75H666.406C666.531 1497.27 667.406 1500.26 669.031 1502.72C670.677 1505.18 673.135 1506.41 676.406 1506.41C678.594 1506.2 681.646 1505.01 685.562 1502.84L687.438 1506.72C684.729 1509.43 681.031 1510.78 676.344 1510.78C672.99 1510.78 670.115 1509.99 667.719 1508.41ZM682.688 1489.59C682.271 1482.57 679.812 1479.06 675.312 1479.06C670.229 1479.06 667.323 1482.57 666.594 1489.59H682.688ZM720.812 1492.66C720.812 1487.32 720.021 1483.73 718.438 1481.88C716.854 1480 714.604 1479.06 711.688 1479.06C707.646 1479.06 705.031 1481.06 703.844 1485.06C703.198 1487.25 702.875 1489.89 702.875 1492.97C702.875 1501.93 705.812 1506.41 711.688 1506.41C717.771 1506.41 720.812 1501.82 720.812 1492.66ZM720.812 1480.44V1461.72L726.5 1461.09V1510H720.812V1504.69C718.5 1508.75 715.229 1510.78 711 1510.78C706.167 1510.78 702.646 1509.05 700.438 1505.59C698.25 1502.14 697.156 1497.79 697.156 1492.56C697.156 1486.27 698.76 1481.48 701.969 1478.19C704.219 1475.85 707.24 1474.69 711.031 1474.69C713.615 1474.69 715.708 1475.22 717.312 1476.28C718.938 1477.34 720.104 1478.73 720.812 1480.44ZM782.875 1488.62V1505.44H804.875L804.406 1510H777.031V1463.41H803.844L803.344 1467.97H782.875V1483.66H802.312V1488.62H782.875ZM826.406 1484.25H820.344V1467.97H826.281C831.531 1467.97 834.948 1469.31 836.531 1472C837.135 1473.04 837.438 1474.27 837.438 1475.69C837.438 1478.79 836.479 1481 834.562 1482.31C832.667 1483.6 829.948 1484.25 826.406 1484.25ZM823.562 1463.41H814.5V1510H820.344V1489.31H823.062L827.469 1489.22C828.844 1491.11 829.896 1492.68 830.625 1493.91C831.375 1495.14 831.927 1496.04 832.281 1496.62C832.656 1497.21 833.094 1497.99 833.594 1498.97C834.115 1499.95 834.479 1500.65 834.688 1501.06C834.917 1501.46 835.292 1502.21 835.812 1503.31C836.354 1504.42 836.688 1505.1 836.812 1505.38C836.938 1505.65 837.292 1506.44 837.875 1507.75C838.479 1509.04 838.833 1509.79 838.938 1510H845.719C843.573 1505.27 841.562 1501.2 839.688 1497.78C837.812 1494.34 835.646 1491.05 833.188 1487.91C836.312 1487.22 838.812 1485.86 840.688 1483.84C842.583 1481.8 843.531 1479.07 843.531 1475.66C843.531 1472.22 842.594 1469.6 840.719 1467.81C838.844 1466 836.479 1464.81 833.625 1464.25C830.792 1463.69 827.438 1463.41 823.562 1463.41ZM882.375 1466.53L880.312 1470.62C877.542 1468.48 874.542 1467.41 871.312 1467.41C868.083 1467.41 865.417 1468.31 863.312 1470.12C859.188 1473.65 857.125 1479.15 857.125 1486.62C857.125 1490.23 857.656 1493.48 858.719 1496.38C859.781 1499.27 861.354 1501.59 863.438 1503.34C865.542 1505.07 867.99 1505.94 870.781 1505.94C874.427 1505.94 877.625 1504.81 880.375 1502.56L882.406 1506.97C879.49 1509.51 875.375 1510.78 870.062 1510.78C866.25 1510.78 862.885 1509.74 859.969 1507.66C857.073 1505.55 854.854 1502.68 853.312 1499.03C851.771 1495.36 851 1491.48 851 1487.38C851 1483.25 851.49 1479.69 852.469 1476.69C853.448 1473.67 854.781 1471.14 856.469 1469.09C858.177 1467.05 860.198 1465.47 862.531 1464.34C864.865 1463.2 867.375 1462.62 870.062 1462.62C875.25 1462.62 879.354 1463.93 882.375 1466.53ZM916.594 1484.16V1489H895.656V1484.16H916.594ZM929.812 1466.41C931.458 1465.11 933.167 1464.17 934.938 1463.56C936.708 1462.94 938.854 1462.62 941.375 1462.62C945.875 1462.62 949.354 1463.84 951.812 1466.28C954.292 1468.72 955.531 1471.96 955.531 1476C955.531 1478.94 954.854 1481.62 953.5 1484.06C952.167 1486.48 950.99 1488.31 949.969 1489.56C948.969 1490.79 948.083 1491.85 947.312 1492.75L936.562 1505.44H956.594V1510H930.125V1504.03L943.812 1487.41C946.438 1484.2 948.062 1481.5 948.688 1479.31C949 1478.27 949.156 1477.22 949.156 1476.16C949.156 1473.57 948.49 1471.58 947.156 1470.19C945.844 1468.79 944.042 1468.09 941.75 1468.09C939.458 1468.09 937.625 1468.36 936.25 1468.91C934.896 1469.43 933.469 1470.22 931.969 1471.28L929.812 1466.41ZM988.719 1473.44L977.656 1504.5C978.802 1505.46 980.24 1505.94 981.969 1505.94C983.719 1505.94 985.302 1505.07 986.719 1503.34C989.469 1499.99 990.844 1494.44 990.844 1486.69C990.844 1481.31 990.135 1476.9 988.719 1473.44ZM988.469 1508.84C986.469 1510.14 984.188 1510.78 981.625 1510.78C979.062 1510.78 976.781 1510.14 974.781 1508.84C972.781 1507.53 971.167 1505.75 969.938 1503.5C967.5 1498.98 966.281 1493.36 966.281 1486.66C966.281 1478.36 967.917 1472.04 971.188 1467.69C972.333 1466.15 973.792 1464.92 975.562 1464C977.354 1463.08 979.375 1462.62 981.625 1462.62C983.875 1462.62 985.896 1463.08 987.688 1464C990.938 1465.67 993.292 1468.57 994.75 1472.72C996.229 1476.84 996.969 1481.49 996.969 1486.66C996.969 1493.36 995.75 1498.98 993.312 1503.5C992.083 1505.75 990.469 1507.53 988.469 1508.84ZM985.844 1469.06C984.615 1467.96 983.104 1467.41 981.312 1467.41C979.542 1467.41 977.948 1468.27 976.531 1470C973.781 1473.4 972.406 1478.96 972.406 1486.69C972.406 1492.25 973.156 1496.76 974.656 1500.22L985.844 1469.06ZM250.344 1564.09V1580.19C250.344 1582.19 250.448 1583.77 250.656 1584.94C250.885 1586.1 251.323 1587.05 251.969 1587.78C252.635 1588.51 253.49 1589 254.531 1589.25C255.573 1589.5 256.99 1589.62 258.781 1589.62H265.062L264.75 1594H259C253.104 1594 249.177 1592.92 247.219 1590.75C245.948 1589.33 245.167 1587.05 244.875 1583.91C244.729 1582.51 244.656 1580.79 244.656 1578.75V1564.09H234.969L235.594 1559.72H244.656V1547.91L250.344 1546.22V1559.72H264.781V1564.09H250.344ZM289.688 1590.41C293.667 1590.41 296.375 1588.43 297.812 1584.47C298.583 1582.34 298.969 1580.17 298.969 1577.94C298.969 1575.69 298.885 1573.94 298.719 1572.69C298.344 1569.85 297.438 1567.54 296 1565.75C294.583 1563.96 292.479 1563.06 289.688 1563.06C285.812 1563.06 283.167 1565.08 281.75 1569.12C281 1571.29 280.625 1573.56 280.625 1575.94C280.625 1580.15 281.281 1583.61 282.594 1586.34C283.906 1589.05 286.271 1590.41 289.688 1590.41ZM300.938 1563.69C303.417 1567.02 304.656 1571.38 304.656 1576.75C304.656 1582.12 303.312 1586.48 300.625 1589.81C297.938 1593.12 294.292 1594.78 289.688 1594.78C287.229 1594.78 285.042 1594.31 283.125 1593.38C281.208 1592.44 279.656 1591.15 278.469 1589.5C276.073 1586.19 274.875 1581.88 274.875 1576.56C274.875 1571.25 276.198 1566.95 278.844 1563.66C281.49 1560.34 285.208 1558.69 290 1558.69C294.812 1558.69 298.458 1560.35 300.938 1563.69ZM321.25 1573.62L336.438 1559.72H343.625L328.344 1573.94L345.719 1594H338.594L324.312 1576.56L321.25 1579.25V1594H315.562V1545.72L321.25 1545.09V1573.62ZM360.219 1592.41C357.823 1590.8 356.042 1588.66 354.875 1585.97C353.729 1583.26 353.156 1580.21 353.156 1576.81C353.156 1573.42 353.688 1570.38 354.75 1567.69C355.833 1564.98 357.438 1562.8 359.562 1561.16C361.708 1559.49 364.062 1558.66 366.625 1558.66C371.458 1558.66 375 1560.31 377.25 1563.62C379.5 1566.94 380.625 1571.01 380.625 1575.84V1577.75H358.906C359.031 1581.27 359.906 1584.26 361.531 1586.72C363.177 1589.18 365.635 1590.41 368.906 1590.41C371.094 1590.2 374.146 1589.01 378.062 1586.84L379.938 1590.72C377.229 1593.43 373.531 1594.78 368.844 1594.78C365.49 1594.78 362.615 1593.99 360.219 1592.41ZM375.188 1573.59C374.771 1566.57 372.312 1563.06 367.812 1563.06C362.729 1563.06 359.823 1566.57 359.094 1573.59H375.188ZM408.156 1558.69C415.26 1558.69 418.812 1563.19 418.812 1572.19V1594H413.125V1572.88C413.125 1570.46 413 1568.73 412.75 1567.69C412.5 1566.65 412.125 1565.79 411.625 1565.12C410.562 1563.75 408.823 1563.06 406.406 1563.06C403.969 1563.06 401.906 1563.77 400.219 1565.19C398.531 1566.6 397.688 1568.48 397.688 1570.81V1594H392V1559.72H397.219L397.531 1563.44C399.802 1560.27 403.344 1558.69 408.156 1558.69ZM483.844 1594H478.156V1564.09H469.188V1559.72H478.156C478.156 1555.51 478.323 1552.85 478.656 1551.75C479.323 1549.56 480.177 1548.01 481.219 1547.09C483.24 1545.34 486.917 1544.47 492.25 1544.47H495.562L495.25 1548.84H492.125C490.521 1548.84 489.25 1548.92 488.312 1549.06C487.375 1549.21 486.542 1549.52 485.812 1550C484.5 1550.83 483.844 1552.69 483.844 1555.56V1559.72H495.562V1564.09H483.844V1594ZM518.156 1594H512.469V1559.72H517.125L517.594 1566.06C518.99 1563.65 520.823 1561.81 523.094 1560.56C525.365 1559.31 527.938 1558.69 530.812 1558.69H533.562V1563.97H530C526.354 1563.97 523.469 1564.89 521.344 1566.72C519.219 1568.53 518.156 1571.27 518.156 1574.94V1594ZM558.75 1590.41C562.729 1590.41 565.438 1588.43 566.875 1584.47C567.646 1582.34 568.031 1580.17 568.031 1577.94C568.031 1575.69 567.948 1573.94 567.781 1572.69C567.406 1569.85 566.5 1567.54 565.062 1565.75C563.646 1563.96 561.542 1563.06 558.75 1563.06C554.875 1563.06 552.229 1565.08 550.812 1569.12C550.062 1571.29 549.688 1573.56 549.688 1575.94C549.688 1580.15 550.344 1583.61 551.656 1586.34C552.969 1589.05 555.333 1590.41 558.75 1590.41ZM570 1563.69C572.479 1567.02 573.719 1571.38 573.719 1576.75C573.719 1582.12 572.375 1586.48 569.688 1589.81C567 1593.12 563.354 1594.78 558.75 1594.78C556.292 1594.78 554.104 1594.31 552.188 1593.38C550.271 1592.44 548.719 1591.15 547.531 1589.5C545.135 1586.19 543.938 1581.88 543.938 1576.56C543.938 1571.25 545.26 1566.95 547.906 1563.66C550.552 1560.34 554.271 1558.69 559.062 1558.69C563.875 1558.69 567.521 1560.35 570 1563.69ZM598.938 1564C600.312 1560.46 602.719 1558.69 606.156 1558.69C610.51 1558.69 612.969 1561.82 613.531 1568.09C613.635 1569.26 613.688 1570.57 613.688 1572.03V1594H608.469V1572.69C608.469 1568.58 608.198 1566.04 607.656 1565.06C607.115 1564.06 606.615 1563.48 606.156 1563.31C605.719 1563.15 605.229 1563.06 604.688 1563.06C602.854 1563.06 601.552 1564.08 600.781 1566.12C600.281 1567.44 600.031 1569.65 600.031 1572.75V1594H595.25V1573.09C595.25 1568.49 594.708 1565.5 593.625 1564.12C593.062 1563.42 592.25 1563.06 591.188 1563.06C590.146 1563.06 589.25 1563.52 588.5 1564.44C587.104 1566.15 586.406 1568.49 586.406 1571.47V1594H581.188V1559.72H585.719L586.062 1564.25C586.667 1562.69 587.5 1561.38 588.562 1560.31C589.625 1559.23 590.948 1558.69 592.531 1558.69C594.135 1558.69 595.49 1559.16 596.594 1560.09C597.719 1561.03 598.5 1562.33 598.938 1564ZM687.406 1594H682.875C678.854 1594 675.979 1593.58 674.25 1592.75C673.25 1592.27 672.458 1591.72 671.875 1591.09C670.333 1589.49 669.531 1585.95 669.469 1580.47V1549.47H659.219V1545.09H675.156V1580.19C675.156 1584.33 675.531 1586.88 676.281 1587.81C677.052 1588.75 678.01 1589.29 679.156 1589.44C680.302 1589.56 681.469 1589.62 682.656 1589.62H687.688L687.406 1594ZM706.156 1592.41C703.76 1590.8 701.979 1588.66 700.812 1585.97C699.667 1583.26 699.094 1580.21 699.094 1576.81C699.094 1573.42 699.625 1570.38 700.688 1567.69C701.771 1564.98 703.375 1562.8 705.5 1561.16C707.646 1559.49 710 1558.66 712.562 1558.66C717.396 1558.66 720.938 1560.31 723.188 1563.62C725.438 1566.94 726.562 1571.01 726.562 1575.84V1577.75H704.844C704.969 1581.27 705.844 1584.26 707.469 1586.72C709.115 1589.18 711.573 1590.41 714.844 1590.41C717.031 1590.2 720.083 1589.01 724 1586.84L725.875 1590.72C723.167 1593.43 719.469 1594.78 714.781 1594.78C711.427 1594.78 708.552 1593.99 706.156 1592.41ZM721.125 1573.59C720.708 1566.57 718.25 1563.06 713.75 1563.06C708.667 1563.06 705.76 1566.57 705.031 1573.59H721.125ZM754.094 1558.69C761.198 1558.69 764.75 1563.19 764.75 1572.19V1594H759.062V1572.88C759.062 1570.46 758.938 1568.73 758.688 1567.69C758.438 1566.65 758.062 1565.79 757.562 1565.12C756.5 1563.75 754.76 1563.06 752.344 1563.06C749.906 1563.06 747.844 1563.77 746.156 1565.19C744.469 1566.6 743.625 1568.48 743.625 1570.81V1594H737.938V1559.72H743.156L743.469 1563.44C745.74 1560.27 749.281 1558.69 754.094 1558.69ZM797.688 1576.66C797.688 1571.32 796.896 1567.73 795.312 1565.88C793.729 1564 791.479 1563.06 788.562 1563.06C784.521 1563.06 781.906 1565.06 780.719 1569.06C780.073 1571.25 779.75 1573.89 779.75 1576.97C779.75 1585.93 782.688 1590.41 788.562 1590.41C794.646 1590.41 797.688 1585.82 797.688 1576.66ZM797.688 1564.44V1545.72L803.375 1545.09V1594H797.688V1588.69C795.375 1592.75 792.104 1594.78 787.875 1594.78C783.042 1594.78 779.521 1593.05 777.312 1589.59C775.125 1586.14 774.031 1581.79 774.031 1576.56C774.031 1570.27 775.635 1565.48 778.844 1562.19C781.094 1559.85 784.115 1558.69 787.906 1558.69C790.49 1558.69 792.583 1559.22 794.188 1560.28C795.812 1561.34 796.979 1562.73 797.688 1564.44ZM821.469 1592.41C819.073 1590.8 817.292 1588.66 816.125 1585.97C814.979 1583.26 814.406 1580.21 814.406 1576.81C814.406 1573.42 814.938 1570.38 816 1567.69C817.083 1564.98 818.688 1562.8 820.812 1561.16C822.958 1559.49 825.312 1558.66 827.875 1558.66C832.708 1558.66 836.25 1560.31 838.5 1563.62C840.75 1566.94 841.875 1571.01 841.875 1575.84V1577.75H820.156C820.281 1581.27 821.156 1584.26 822.781 1586.72C824.427 1589.18 826.885 1590.41 830.156 1590.41C832.344 1590.2 835.396 1589.01 839.312 1586.84L841.188 1590.72C838.479 1593.43 834.781 1594.78 830.094 1594.78C826.74 1594.78 823.865 1593.99 821.469 1592.41ZM836.438 1573.59C836.021 1566.57 833.562 1563.06 829.062 1563.06C823.979 1563.06 821.073 1566.57 820.344 1573.59H836.438ZM864.094 1594H858.406V1559.72H863.062L863.531 1566.06C864.927 1563.65 866.76 1561.81 869.031 1560.56C871.302 1559.31 873.875 1558.69 876.75 1558.69H879.5V1563.97H875.938C872.292 1563.97 869.406 1564.89 867.281 1566.72C865.156 1568.53 864.094 1571.27 864.094 1574.94V1594ZM942.219 1564.09V1580.19C942.219 1582.19 942.323 1583.77 942.531 1584.94C942.76 1586.1 943.198 1587.05 943.844 1587.78C944.51 1588.51 945.365 1589 946.406 1589.25C947.448 1589.5 948.865 1589.62 950.656 1589.62H956.938L956.625 1594H950.875C944.979 1594 941.052 1592.92 939.094 1590.75C937.823 1589.33 937.042 1587.05 936.75 1583.91C936.604 1582.51 936.531 1580.79 936.531 1578.75V1564.09H926.844L927.469 1559.72H936.531V1547.91L942.219 1546.22V1559.72H956.656V1564.09H942.219ZM981.562 1590.41C985.542 1590.41 988.25 1588.43 989.688 1584.47C990.458 1582.34 990.844 1580.17 990.844 1577.94C990.844 1575.69 990.76 1573.94 990.594 1572.69C990.219 1569.85 989.312 1567.54 987.875 1565.75C986.458 1563.96 984.354 1563.06 981.562 1563.06C977.688 1563.06 975.042 1565.08 973.625 1569.12C972.875 1571.29 972.5 1573.56 972.5 1575.94C972.5 1580.15 973.156 1583.61 974.469 1586.34C975.781 1589.05 978.146 1590.41 981.562 1590.41ZM992.812 1563.69C995.292 1567.02 996.531 1571.38 996.531 1576.75C996.531 1582.12 995.188 1586.48 992.5 1589.81C989.812 1593.12 986.167 1594.78 981.562 1594.78C979.104 1594.78 976.917 1594.31 975 1593.38C973.083 1592.44 971.531 1591.15 970.344 1589.5C967.948 1586.19 966.75 1581.88 966.75 1576.56C966.75 1571.25 968.073 1566.95 970.719 1563.66C973.365 1560.34 977.083 1558.69 981.875 1558.69C986.688 1558.69 990.333 1560.35 992.812 1563.69ZM474 1664.94C474.375 1667.85 475.25 1670.16 476.625 1671.84C478.021 1673.53 480.146 1674.38 483 1674.38C486.854 1674.38 489.458 1672.38 490.812 1668.38C491.5 1666.27 491.844 1664.08 491.844 1661.81C491.844 1659.52 491.771 1657.76 491.625 1656.53C491.312 1653.61 490.49 1651.31 489.156 1649.62C487.844 1647.92 485.792 1647.06 483 1647.06C478.333 1647.06 475.479 1649.31 474.438 1653.81C474 1655.69 473.781 1657.7 473.781 1659.84C473.781 1661.97 473.854 1663.67 474 1664.94ZM473.781 1648.44C476.094 1644.6 479.552 1642.69 484.156 1642.69C488.781 1642.69 492.167 1644.35 494.312 1647.69C496.479 1651.02 497.562 1655.21 497.562 1660.25C497.562 1666.85 496 1671.82 492.875 1675.16C490.625 1677.57 487.562 1678.78 483.688 1678.78C481.125 1678.78 479.167 1678.31 477.812 1677.38C476.479 1676.42 475.135 1675.06 473.781 1673.31L473.719 1678H468.094V1629.72L473.781 1629.09V1648.44ZM520.312 1674.41C524.292 1674.41 527 1672.43 528.438 1668.47C529.208 1666.34 529.594 1664.17 529.594 1661.94C529.594 1659.69 529.51 1657.94 529.344 1656.69C528.969 1653.85 528.062 1651.54 526.625 1649.75C525.208 1647.96 523.104 1647.06 520.312 1647.06C516.438 1647.06 513.792 1649.08 512.375 1653.12C511.625 1655.29 511.25 1657.56 511.25 1659.94C511.25 1664.15 511.906 1667.61 513.219 1670.34C514.531 1673.05 516.896 1674.41 520.312 1674.41ZM531.562 1647.69C534.042 1651.02 535.281 1655.38 535.281 1660.75C535.281 1666.12 533.938 1670.48 531.25 1673.81C528.562 1677.12 524.917 1678.78 520.312 1678.78C517.854 1678.78 515.667 1678.31 513.75 1677.38C511.833 1676.44 510.281 1675.15 509.094 1673.5C506.698 1670.19 505.5 1665.88 505.5 1660.56C505.5 1655.25 506.823 1650.95 509.469 1647.66C512.115 1644.34 515.833 1642.69 520.625 1642.69C525.438 1642.69 529.083 1644.35 531.562 1647.69ZM556.594 1678H550.906V1643.72H555.562L556.031 1650.06C557.427 1647.65 559.26 1645.81 561.531 1644.56C563.802 1643.31 566.375 1642.69 569.25 1642.69H572V1647.97H568.438C564.792 1647.97 561.906 1648.89 559.781 1650.72C557.656 1652.53 556.594 1655.27 556.594 1658.94V1678ZM595.031 1678H589.344V1643.72H594L594.469 1650.06C595.865 1647.65 597.698 1645.81 599.969 1644.56C602.24 1643.31 604.812 1642.69 607.688 1642.69H610.438V1647.97H606.875C603.229 1647.97 600.344 1648.89 598.219 1650.72C596.094 1652.53 595.031 1655.27 595.031 1658.94V1678ZM635.625 1674.41C639.604 1674.41 642.312 1672.43 643.75 1668.47C644.521 1666.34 644.906 1664.17 644.906 1661.94C644.906 1659.69 644.823 1657.94 644.656 1656.69C644.281 1653.85 643.375 1651.54 641.938 1649.75C640.521 1647.96 638.417 1647.06 635.625 1647.06C631.75 1647.06 629.104 1649.08 627.688 1653.12C626.938 1655.29 626.562 1657.56 626.562 1659.94C626.562 1664.15 627.219 1667.61 628.531 1670.34C629.844 1673.05 632.208 1674.41 635.625 1674.41ZM646.875 1647.69C649.354 1651.02 650.594 1655.38 650.594 1660.75C650.594 1666.12 649.25 1670.48 646.562 1673.81C643.875 1677.12 640.229 1678.78 635.625 1678.78C633.167 1678.78 630.979 1678.31 629.062 1677.38C627.146 1676.44 625.594 1675.15 624.406 1673.5C622.01 1670.19 620.812 1665.88 620.812 1660.56C620.812 1655.25 622.135 1650.95 624.781 1647.66C627.427 1644.34 631.146 1642.69 635.938 1642.69C640.75 1642.69 644.396 1644.35 646.875 1647.69ZM668.188 1678H662.375L655.688 1643.72H661.406L665.5 1670.19L671.219 1643.72H678L683.594 1670.09L687.188 1643.72H692.562L686.281 1678H680.281L674.562 1648.22L668.188 1678ZM706.156 1676.41C703.76 1674.8 701.979 1672.66 700.812 1669.97C699.667 1667.26 699.094 1664.21 699.094 1660.81C699.094 1657.42 699.625 1654.38 700.688 1651.69C701.771 1648.98 703.375 1646.8 705.5 1645.16C707.646 1643.49 710 1642.66 712.562 1642.66C717.396 1642.66 720.938 1644.31 723.188 1647.62C725.438 1650.94 726.562 1655.01 726.562 1659.84V1661.75H704.844C704.969 1665.27 705.844 1668.26 707.469 1670.72C709.115 1673.18 711.573 1674.41 714.844 1674.41C717.031 1674.2 720.083 1673.01 724 1670.84L725.875 1674.72C723.167 1677.43 719.469 1678.78 714.781 1678.78C711.427 1678.78 708.552 1677.99 706.156 1676.41ZM721.125 1657.59C720.708 1650.57 718.25 1647.06 713.75 1647.06C708.667 1647.06 705.76 1650.57 705.031 1657.59H721.125ZM748.781 1678H743.094V1643.72H747.75L748.219 1650.06C749.615 1647.65 751.448 1645.81 753.719 1644.56C755.99 1643.31 758.562 1642.69 761.438 1642.69H764.188V1647.97H760.625C756.979 1647.97 754.094 1648.89 751.969 1650.72C749.844 1652.53 748.781 1655.27 748.781 1658.94V1678Z" fill="#70F1D6"/>
<rect x="106" y="986" width="1022" height="292" fill="#0B6459" stroke="#70F1D6" stroke-width="8"/>
<path d="M141.375 1087.09H149.469C152.427 1087.09 154.792 1086.32 156.562 1084.78C158.354 1083.24 159.25 1080.97 159.25 1077.97C159.25 1074.97 158.365 1072.72 156.594 1071.22C154.823 1069.72 152.448 1068.97 149.469 1068.97H141.375V1087.09ZM164.031 1071.47C164.927 1073.24 165.375 1075.29 165.375 1077.62C165.375 1083.96 163.104 1088.07 158.562 1089.97C155.729 1091.16 152.177 1091.75 147.906 1091.75H141.375V1111H135.531V1064.41H147.938C156.292 1064.41 161.656 1066.76 164.031 1071.47ZM200.938 1099.88C200.938 1107.81 196.521 1111.78 187.688 1111.78C178.854 1111.78 174.438 1107.81 174.438 1099.88V1076.72H180.125V1100.38C180.125 1102.81 180.729 1104.59 181.938 1105.72C183.146 1106.84 185.062 1107.41 187.688 1107.41C190.312 1107.41 192.229 1106.84 193.438 1105.72C194.646 1104.59 195.25 1102.81 195.25 1100.38V1076.72H200.938V1099.88ZM239.375 1111H234.844C230.823 1111 227.948 1110.58 226.219 1109.75C225.219 1109.27 224.427 1108.72 223.844 1108.09C222.302 1106.49 221.5 1102.95 221.438 1097.47V1066.47H211.188V1062.09H227.125V1097.19C227.125 1101.33 227.5 1103.88 228.25 1104.81C229.021 1105.75 229.979 1106.29 231.125 1106.44C232.271 1106.56 233.438 1106.62 234.625 1106.62H239.656L239.375 1111ZM277.812 1111H273.281C269.26 1111 266.385 1110.58 264.656 1109.75C263.656 1109.27 262.865 1108.72 262.281 1108.09C260.74 1106.49 259.938 1102.95 259.875 1097.47V1066.47H249.625V1062.09H265.562V1097.19C265.562 1101.33 265.938 1103.88 266.688 1104.81C267.458 1105.75 268.417 1106.29 269.562 1106.44C270.708 1106.56 271.875 1106.62 273.062 1106.62H278.094L277.812 1111ZM337.531 1106.44H355.531L355.219 1111H331.688V1064.41H337.531V1106.44ZM384.938 1071.03C383.521 1069.28 381.823 1068.41 379.844 1068.41C377.865 1068.41 376.167 1069.28 374.75 1071.03C373.333 1072.76 372.292 1075.05 371.625 1077.91C370.958 1080.76 370.625 1084.02 370.625 1087.69C370.625 1091.35 370.958 1094.61 371.625 1097.47C372.292 1100.32 373.333 1102.61 374.75 1104.34C376.167 1106.07 377.865 1106.94 379.844 1106.94C381.823 1106.94 383.521 1106.07 384.938 1104.34C386.354 1102.61 387.396 1100.32 388.062 1097.47C388.729 1094.61 389.062 1091.35 389.062 1087.69C389.062 1084.02 388.729 1080.76 388.062 1077.91C387.396 1075.05 386.354 1072.76 384.938 1071.03ZM386.688 1109.84C384.688 1111.14 382.406 1111.78 379.844 1111.78C377.281 1111.78 375 1111.14 373 1109.84C371 1108.53 369.385 1106.75 368.156 1104.5C365.719 1099.98 364.5 1094.36 364.5 1087.66C364.5 1079.36 366.135 1073.04 369.406 1068.69C370.552 1067.15 372.01 1065.92 373.781 1065C375.573 1064.08 377.594 1063.62 379.844 1063.62C382.094 1063.62 384.115 1064.08 385.906 1065C389.156 1066.67 391.51 1069.57 392.969 1073.72C394.448 1077.84 395.188 1082.49 395.188 1087.66C395.188 1094.36 393.969 1099.98 391.531 1104.5C390.302 1106.75 388.688 1108.53 386.688 1109.84ZM412.938 1091.28H423.625L418.375 1071.06L412.938 1091.28ZM421.594 1064.41L435.375 1111H429.219L424.812 1095.97H411.719L407.344 1111H401.219L414.969 1064.41H421.594ZM471.219 1111H464.344L447.531 1073.31V1111H442.219V1064.41H448.938L466 1101.97V1064.41H471.219V1111ZM545.719 1108.75C543.531 1110.77 540.417 1111.78 536.375 1111.78C533.792 1111.78 531.438 1111.29 529.312 1110.31C527.188 1109.31 525.448 1107.98 524.094 1106.31C521.24 1102.81 519.812 1098.59 519.812 1093.66C519.812 1090.47 520.458 1087.52 521.75 1084.81C523.062 1082.1 524.99 1079.91 527.531 1078.22C530.073 1076.53 533.208 1075.69 536.938 1075.69C540.667 1075.69 543.562 1076.68 545.625 1078.66L544.188 1082.47C541.792 1080.86 539.083 1080.06 536.062 1080.06C533.042 1080.06 530.531 1081.35 528.531 1083.94C526.552 1086.52 525.562 1089.81 525.562 1093.81C525.562 1097.79 526.552 1101.05 528.531 1103.59C530.531 1106.14 533.073 1107.41 536.156 1107.41C539.26 1107.41 541.99 1106.57 544.344 1104.91L545.719 1108.75ZM571.969 1107.41C575.948 1107.41 578.656 1105.43 580.094 1101.47C580.865 1099.34 581.25 1097.17 581.25 1094.94C581.25 1092.69 581.167 1090.94 581 1089.69C580.625 1086.85 579.719 1084.54 578.281 1082.75C576.865 1080.96 574.76 1080.06 571.969 1080.06C568.094 1080.06 565.448 1082.08 564.031 1086.12C563.281 1088.29 562.906 1090.56 562.906 1092.94C562.906 1097.15 563.562 1100.61 564.875 1103.34C566.188 1106.05 568.552 1107.41 571.969 1107.41ZM583.219 1080.69C585.698 1084.02 586.938 1088.38 586.938 1093.75C586.938 1099.12 585.594 1103.48 582.906 1106.81C580.219 1110.12 576.573 1111.78 571.969 1111.78C569.51 1111.78 567.323 1111.31 565.406 1110.38C563.49 1109.44 561.938 1108.15 560.75 1106.5C558.354 1103.19 557.156 1098.88 557.156 1093.56C557.156 1088.25 558.479 1083.95 561.125 1080.66C563.771 1077.34 567.49 1075.69 572.281 1075.69C577.094 1075.69 580.74 1077.35 583.219 1080.69ZM623.75 1111H619.219C615.198 1111 612.323 1110.58 610.594 1109.75C609.594 1109.27 608.802 1108.72 608.219 1108.09C606.677 1106.49 605.875 1102.95 605.812 1097.47V1066.47H595.562V1062.09H611.5V1097.19C611.5 1101.33 611.875 1103.88 612.625 1104.81C613.396 1105.75 614.354 1106.29 615.5 1106.44C616.646 1106.56 617.812 1106.62 619 1106.62H624.031L623.75 1111ZM662.188 1111H657.656C653.635 1111 650.76 1110.58 649.031 1109.75C648.031 1109.27 647.24 1108.72 646.656 1108.09C645.115 1106.49 644.312 1102.95 644.25 1097.47V1066.47H634V1062.09H649.938V1097.19C649.938 1101.33 650.312 1103.88 651.062 1104.81C651.833 1105.75 652.792 1106.29 653.938 1106.44C655.083 1106.56 656.25 1106.62 657.438 1106.62H662.469L662.188 1111ZM694.688 1103.34V1094.59L690.031 1095.25C686.781 1095.71 684.531 1096.17 683.281 1096.62C680.49 1097.69 679.094 1099.47 679.094 1101.97C679.094 1103.7 679.594 1105.07 680.594 1106.09C681.594 1107.11 682.969 1107.62 684.719 1107.62C688.573 1107.62 691.896 1106.2 694.688 1103.34ZM694.688 1087.38C694.688 1082.48 692.615 1080.03 688.469 1080.03C686.51 1080.03 684.344 1080.26 681.969 1080.72C679.615 1081.18 677.958 1081.61 677 1082.03L675.656 1077.84C679.969 1076.41 684.021 1075.69 687.812 1075.69C691.604 1075.69 694.646 1076.55 696.938 1078.28C699.229 1080.01 700.375 1082.68 700.375 1086.28V1111H695.656L694.906 1107.03C693.573 1108.39 691.854 1109.52 689.75 1110.44C687.667 1111.33 685.625 1111.78 683.625 1111.78C680.729 1111.78 678.323 1110.92 676.406 1109.19C674.49 1107.44 673.531 1104.98 673.531 1101.81C673.531 1098.62 674.781 1096.29 677.281 1094.81C678.969 1093.77 680.76 1093.06 682.656 1092.69C684.573 1092.29 687.062 1091.91 690.125 1091.53L694.688 1091V1087.38ZM724.812 1081.09V1097.19C724.812 1099.19 724.917 1100.77 725.125 1101.94C725.354 1103.1 725.792 1104.05 726.438 1104.78C727.104 1105.51 727.958 1106 729 1106.25C730.042 1106.5 731.458 1106.62 733.25 1106.62H739.531L739.219 1111H733.469C727.573 1111 723.646 1109.92 721.688 1107.75C720.417 1106.33 719.635 1104.05 719.344 1100.91C719.198 1099.51 719.125 1097.79 719.125 1095.75V1081.09H709.438L710.062 1076.72H719.125V1064.91L724.812 1063.22V1076.72H739.25V1081.09H724.812ZM757.812 1109.41C755.417 1107.8 753.635 1105.66 752.469 1102.97C751.323 1100.26 750.75 1097.21 750.75 1093.81C750.75 1090.42 751.281 1087.38 752.344 1084.69C753.427 1081.98 755.031 1079.8 757.156 1078.16C759.302 1076.49 761.656 1075.66 764.219 1075.66C769.052 1075.66 772.594 1077.31 774.844 1080.62C777.094 1083.94 778.219 1088.01 778.219 1092.84V1094.75H756.5C756.625 1098.27 757.5 1101.26 759.125 1103.72C760.771 1106.18 763.229 1107.41 766.5 1107.41C768.688 1107.2 771.74 1106.01 775.656 1103.84L777.531 1107.72C774.823 1110.43 771.125 1111.78 766.438 1111.78C763.083 1111.78 760.208 1110.99 757.812 1109.41ZM772.781 1090.59C772.365 1083.57 769.906 1080.06 765.406 1080.06C760.323 1080.06 757.417 1083.57 756.688 1090.59H772.781ZM800.438 1111H794.75V1076.72H799.406L799.875 1083.06C801.271 1080.65 803.104 1078.81 805.375 1077.56C807.646 1076.31 810.219 1075.69 813.094 1075.69H815.844V1080.97H812.281C808.635 1080.97 805.75 1081.89 803.625 1083.72C801.5 1085.53 800.438 1088.27 800.438 1091.94V1111ZM848.438 1103.34V1094.59L843.781 1095.25C840.531 1095.71 838.281 1096.17 837.031 1096.62C834.24 1097.69 832.844 1099.47 832.844 1101.97C832.844 1103.7 833.344 1105.07 834.344 1106.09C835.344 1107.11 836.719 1107.62 838.469 1107.62C842.323 1107.62 845.646 1106.2 848.438 1103.34ZM848.438 1087.38C848.438 1082.48 846.365 1080.03 842.219 1080.03C840.26 1080.03 838.094 1080.26 835.719 1080.72C833.365 1081.18 831.708 1081.61 830.75 1082.03L829.406 1077.84C833.719 1076.41 837.771 1075.69 841.562 1075.69C845.354 1075.69 848.396 1076.55 850.688 1078.28C852.979 1080.01 854.125 1082.68 854.125 1086.28V1111H849.406L848.656 1107.03C847.323 1108.39 845.604 1109.52 843.5 1110.44C841.417 1111.33 839.375 1111.78 837.375 1111.78C834.479 1111.78 832.073 1110.92 830.156 1109.19C828.24 1107.44 827.281 1104.98 827.281 1101.81C827.281 1098.62 828.531 1096.29 831.031 1094.81C832.719 1093.77 834.51 1093.06 836.406 1092.69C838.323 1092.29 840.812 1091.91 843.875 1091.53L848.438 1091V1087.38ZM892.812 1111H888.281C884.26 1111 881.385 1110.58 879.656 1109.75C878.656 1109.27 877.865 1108.72 877.281 1108.09C875.74 1106.49 874.938 1102.95 874.875 1097.47V1066.47H864.625V1062.09H880.562V1097.19C880.562 1101.33 880.938 1103.88 881.688 1104.81C882.458 1105.75 883.417 1106.29 884.562 1106.44C885.708 1106.56 886.875 1106.62 888.062 1106.62H893.094L892.812 1111ZM958.312 1111H952.625V1081.09H943.656V1076.72H952.625C952.625 1072.51 952.792 1069.85 953.125 1068.75C953.792 1066.56 954.646 1065.01 955.688 1064.09C957.708 1062.34 961.385 1061.47 966.719 1061.47H970.031L969.719 1065.84H966.594C964.99 1065.84 963.719 1065.92 962.781 1066.06C961.844 1066.21 961.01 1066.52 960.281 1067C958.969 1067.83 958.312 1069.69 958.312 1072.56V1076.72H970.031V1081.09H958.312V1111ZM992.625 1111H986.938V1076.72H991.594L992.062 1083.06C993.458 1080.65 995.292 1078.81 997.562 1077.56C999.833 1076.31 1002.41 1075.69 1005.28 1075.69H1008.03V1080.97H1004.47C1000.82 1080.97 997.938 1081.89 995.812 1083.72C993.688 1085.53 992.625 1088.27 992.625 1091.94V1111ZM1033.22 1107.41C1037.2 1107.41 1039.91 1105.43 1041.34 1101.47C1042.11 1099.34 1042.5 1097.17 1042.5 1094.94C1042.5 1092.69 1042.42 1090.94 1042.25 1089.69C1041.88 1086.85 1040.97 1084.54 1039.53 1082.75C1038.11 1080.96 1036.01 1080.06 1033.22 1080.06C1029.34 1080.06 1026.7 1082.08 1025.28 1086.12C1024.53 1088.29 1024.16 1090.56 1024.16 1092.94C1024.16 1097.15 1024.81 1100.61 1026.12 1103.34C1027.44 1106.05 1029.8 1107.41 1033.22 1107.41ZM1044.47 1080.69C1046.95 1084.02 1048.19 1088.38 1048.19 1093.75C1048.19 1099.12 1046.84 1103.48 1044.16 1106.81C1041.47 1110.12 1037.82 1111.78 1033.22 1111.78C1030.76 1111.78 1028.57 1111.31 1026.66 1110.38C1024.74 1109.44 1023.19 1108.15 1022 1106.5C1019.6 1103.19 1018.41 1098.88 1018.41 1093.56C1018.41 1088.25 1019.73 1083.95 1022.38 1080.66C1025.02 1077.34 1028.74 1075.69 1033.53 1075.69C1038.34 1075.69 1041.99 1077.35 1044.47 1080.69ZM1073.41 1081C1074.78 1077.46 1077.19 1075.69 1080.62 1075.69C1084.98 1075.69 1087.44 1078.82 1088 1085.09C1088.1 1086.26 1088.16 1087.57 1088.16 1089.03V1111H1082.94V1089.69C1082.94 1085.58 1082.67 1083.04 1082.12 1082.06C1081.58 1081.06 1081.08 1080.48 1080.62 1080.31C1080.19 1080.15 1079.7 1080.06 1079.16 1080.06C1077.32 1080.06 1076.02 1081.08 1075.25 1083.12C1074.75 1084.44 1074.5 1086.65 1074.5 1089.75V1111H1069.72V1090.09C1069.72 1085.49 1069.18 1082.5 1068.09 1081.12C1067.53 1080.42 1066.72 1080.06 1065.66 1080.06C1064.61 1080.06 1063.72 1080.52 1062.97 1081.44C1061.57 1083.15 1060.88 1085.49 1060.88 1088.47V1111H1055.66V1076.72H1060.19L1060.53 1081.25C1061.14 1079.69 1061.97 1078.38 1063.03 1077.31C1064.09 1076.23 1065.42 1075.69 1067 1075.69C1068.6 1075.69 1069.96 1076.16 1071.06 1077.09C1072.19 1078.03 1072.97 1079.33 1073.41 1081ZM179.719 1181.94C180.094 1184.85 180.969 1187.16 182.344 1188.84C183.74 1190.53 185.865 1191.38 188.719 1191.38C192.573 1191.38 195.177 1189.38 196.531 1185.38C197.219 1183.27 197.562 1181.08 197.562 1178.81C197.562 1176.52 197.49 1174.76 197.344 1173.53C197.031 1170.61 196.208 1168.31 194.875 1166.62C193.562 1164.92 191.51 1164.06 188.719 1164.06C184.052 1164.06 181.198 1166.31 180.156 1170.81C179.719 1172.69 179.5 1174.7 179.5 1176.84C179.5 1178.97 179.573 1180.67 179.719 1181.94ZM179.5 1165.44C181.812 1161.6 185.271 1159.69 189.875 1159.69C194.5 1159.69 197.885 1161.35 200.031 1164.69C202.198 1168.02 203.281 1172.21 203.281 1177.25C203.281 1183.85 201.719 1188.82 198.594 1192.16C196.344 1194.57 193.281 1195.78 189.406 1195.78C186.844 1195.78 184.885 1195.31 183.531 1194.38C182.198 1193.42 180.854 1192.06 179.5 1190.31L179.438 1195H173.812V1146.72L179.5 1146.09V1165.44ZM226.031 1191.41C230.01 1191.41 232.719 1189.43 234.156 1185.47C234.927 1183.34 235.312 1181.17 235.312 1178.94C235.312 1176.69 235.229 1174.94 235.062 1173.69C234.688 1170.85 233.781 1168.54 232.344 1166.75C230.927 1164.96 228.823 1164.06 226.031 1164.06C222.156 1164.06 219.51 1166.08 218.094 1170.12C217.344 1172.29 216.969 1174.56 216.969 1176.94C216.969 1181.15 217.625 1184.61 218.938 1187.34C220.25 1190.05 222.615 1191.41 226.031 1191.41ZM237.281 1164.69C239.76 1168.02 241 1172.38 241 1177.75C241 1183.12 239.656 1187.48 236.969 1190.81C234.281 1194.12 230.635 1195.78 226.031 1195.78C223.573 1195.78 221.385 1195.31 219.469 1194.38C217.552 1193.44 216 1192.15 214.812 1190.5C212.417 1187.19 211.219 1182.88 211.219 1177.56C211.219 1172.25 212.542 1167.95 215.188 1164.66C217.833 1161.34 221.552 1159.69 226.344 1159.69C231.156 1159.69 234.802 1161.35 237.281 1164.69ZM262.312 1195H256.625V1160.72H261.281L261.75 1167.06C263.146 1164.65 264.979 1162.81 267.25 1161.56C269.521 1160.31 272.094 1159.69 274.969 1159.69H277.719V1164.97H274.156C270.51 1164.97 267.625 1165.89 265.5 1167.72C263.375 1169.53 262.312 1172.27 262.312 1175.94V1195ZM300.75 1195H295.062V1160.72H299.719L300.188 1167.06C301.583 1164.65 303.417 1162.81 305.688 1161.56C307.958 1160.31 310.531 1159.69 313.406 1159.69H316.156V1164.97H312.594C308.948 1164.97 306.062 1165.89 303.938 1167.72C301.812 1169.53 300.75 1172.27 300.75 1175.94V1195ZM341.344 1191.41C345.323 1191.41 348.031 1189.43 349.469 1185.47C350.24 1183.34 350.625 1181.17 350.625 1178.94C350.625 1176.69 350.542 1174.94 350.375 1173.69C350 1170.85 349.094 1168.54 347.656 1166.75C346.24 1164.96 344.135 1164.06 341.344 1164.06C337.469 1164.06 334.823 1166.08 333.406 1170.12C332.656 1172.29 332.281 1174.56 332.281 1176.94C332.281 1181.15 332.938 1184.61 334.25 1187.34C335.562 1190.05 337.927 1191.41 341.344 1191.41ZM352.594 1164.69C355.073 1168.02 356.312 1172.38 356.312 1177.75C356.312 1183.12 354.969 1187.48 352.281 1190.81C349.594 1194.12 345.948 1195.78 341.344 1195.78C338.885 1195.78 336.698 1195.31 334.781 1194.38C332.865 1193.44 331.312 1192.15 330.125 1190.5C327.729 1187.19 326.531 1182.88 326.531 1177.56C326.531 1172.25 327.854 1167.95 330.5 1164.66C333.146 1161.34 336.865 1159.69 341.656 1159.69C346.469 1159.69 350.115 1161.35 352.594 1164.69ZM373.906 1195H368.094L361.406 1160.72H367.125L371.219 1187.19L376.938 1160.72H383.719L389.312 1187.09L392.906 1160.72H398.281L392 1195H386L380.281 1165.22L373.906 1195ZM411.875 1193.41C409.479 1191.8 407.698 1189.66 406.531 1186.97C405.385 1184.26 404.812 1181.21 404.812 1177.81C404.812 1174.42 405.344 1171.38 406.406 1168.69C407.49 1165.98 409.094 1163.8 411.219 1162.16C413.365 1160.49 415.719 1159.66 418.281 1159.66C423.115 1159.66 426.656 1161.31 428.906 1164.62C431.156 1167.94 432.281 1172.01 432.281 1176.84V1178.75H410.562C410.688 1182.27 411.562 1185.26 413.188 1187.72C414.833 1190.18 417.292 1191.41 420.562 1191.41C422.75 1191.2 425.802 1190.01 429.719 1187.84L431.594 1191.72C428.885 1194.43 425.188 1195.78 420.5 1195.78C417.146 1195.78 414.271 1194.99 411.875 1193.41ZM426.844 1174.59C426.427 1167.57 423.969 1164.06 419.469 1164.06C414.385 1164.06 411.479 1167.57 410.75 1174.59H426.844ZM454.5 1195H448.812V1160.72H453.469L453.938 1167.06C455.333 1164.65 457.167 1162.81 459.438 1161.56C461.708 1160.31 464.281 1159.69 467.156 1159.69H469.906V1164.97H466.344C462.698 1164.97 459.812 1165.89 457.688 1167.72C455.562 1169.53 454.5 1172.27 454.5 1175.94V1195ZM531.219 1151.69V1148.59C531.219 1147.84 531.635 1147.19 532.469 1146.62C533.323 1146.04 534.167 1145.75 535 1145.75C535.833 1145.75 536.667 1146.04 537.5 1146.62C538.354 1147.19 538.781 1147.84 538.781 1148.59V1151.69C538.781 1152.44 538.354 1153.1 537.5 1153.69C536.667 1154.25 535.833 1154.53 535 1154.53C534.167 1154.53 533.323 1154.25 532.469 1153.69C531.635 1153.1 531.219 1152.44 531.219 1151.69ZM522.375 1165.09V1160.72H537.844V1190.62H547.656V1195H521.281V1190.62H532.156V1165.09H522.375ZM575.125 1159.69C582.229 1159.69 585.781 1164.19 585.781 1173.19V1195H580.094V1173.88C580.094 1171.46 579.969 1169.73 579.719 1168.69C579.469 1167.65 579.094 1166.79 578.594 1166.12C577.531 1164.75 575.792 1164.06 573.375 1164.06C570.938 1164.06 568.875 1164.77 567.188 1166.19C565.5 1167.6 564.656 1169.48 564.656 1171.81V1195H558.969V1160.72H564.188L564.5 1164.44C566.771 1161.27 570.312 1159.69 575.125 1159.69ZM609.5 1165.09V1181.19C609.5 1183.19 609.604 1184.77 609.812 1185.94C610.042 1187.1 610.479 1188.05 611.125 1188.78C611.792 1189.51 612.646 1190 613.688 1190.25C614.729 1190.5 616.146 1190.62 617.938 1190.62H624.219L623.906 1195H618.156C612.26 1195 608.333 1193.92 606.375 1191.75C605.104 1190.33 604.323 1188.05 604.031 1184.91C603.885 1183.51 603.812 1181.79 603.812 1179.75V1165.09H594.125L594.75 1160.72H603.812V1148.91L609.5 1147.22V1160.72H623.938V1165.09H609.5ZM648.844 1191.41C652.823 1191.41 655.531 1189.43 656.969 1185.47C657.74 1183.34 658.125 1181.17 658.125 1178.94C658.125 1176.69 658.042 1174.94 657.875 1173.69C657.5 1170.85 656.594 1168.54 655.156 1166.75C653.74 1164.96 651.635 1164.06 648.844 1164.06C644.969 1164.06 642.323 1166.08 640.906 1170.12C640.156 1172.29 639.781 1174.56 639.781 1176.94C639.781 1181.15 640.438 1184.61 641.75 1187.34C643.062 1190.05 645.427 1191.41 648.844 1191.41ZM660.094 1164.69C662.573 1168.02 663.812 1172.38 663.812 1177.75C663.812 1183.12 662.469 1187.48 659.781 1190.81C657.094 1194.12 653.448 1195.78 648.844 1195.78C646.385 1195.78 644.198 1195.31 642.281 1194.38C640.365 1193.44 638.812 1192.15 637.625 1190.5C635.229 1187.19 634.031 1182.88 634.031 1177.56C634.031 1172.25 635.354 1167.95 638 1164.66C640.646 1161.34 644.365 1159.69 649.156 1159.69C653.969 1159.69 657.615 1161.35 660.094 1164.69ZM717.938 1171.09H726.031C728.99 1171.09 731.354 1170.32 733.125 1168.78C734.917 1167.24 735.812 1164.97 735.812 1161.97C735.812 1158.97 734.927 1156.72 733.156 1155.22C731.385 1153.72 729.01 1152.97 726.031 1152.97H717.938V1171.09ZM740.594 1155.47C741.49 1157.24 741.938 1159.29 741.938 1161.62C741.938 1167.96 739.667 1172.07 735.125 1173.97C732.292 1175.16 728.74 1175.75 724.469 1175.75H717.938V1195H712.094V1148.41H724.5C732.854 1148.41 738.219 1150.76 740.594 1155.47ZM773.312 1188.44L775.375 1148.41H781.156L777.5 1195H770.344L764.594 1174.41L758.469 1195H751.406L747.094 1148.41H752.875L756.125 1188.34L761.969 1167.5H767.375L773.312 1188.44ZM817.156 1195H810.281L793.469 1157.31V1195H788.156V1148.41H794.875L811.938 1185.97V1148.41H817.156V1195ZM890.562 1148.41H896.969L882.906 1195H876.125L862.125 1148.41H868.531L879.625 1188.03L890.562 1148.41ZM925.312 1187.34V1178.59L920.656 1179.25C917.406 1179.71 915.156 1180.17 913.906 1180.62C911.115 1181.69 909.719 1183.47 909.719 1185.97C909.719 1187.7 910.219 1189.07 911.219 1190.09C912.219 1191.11 913.594 1191.62 915.344 1191.62C919.198 1191.62 922.521 1190.2 925.312 1187.34ZM925.312 1171.38C925.312 1166.48 923.24 1164.03 919.094 1164.03C917.135 1164.03 914.969 1164.26 912.594 1164.72C910.24 1165.18 908.583 1165.61 907.625 1166.03L906.281 1161.84C910.594 1160.41 914.646 1159.69 918.438 1159.69C922.229 1159.69 925.271 1160.55 927.562 1162.28C929.854 1164.01 931 1166.68 931 1170.28V1195H926.281L925.531 1191.03C924.198 1192.39 922.479 1193.52 920.375 1194.44C918.292 1195.33 916.25 1195.78 914.25 1195.78C911.354 1195.78 908.948 1194.92 907.031 1193.19C905.115 1191.44 904.156 1188.98 904.156 1185.81C904.156 1182.62 905.406 1180.29 907.906 1178.81C909.594 1177.77 911.385 1177.06 913.281 1176.69C915.198 1176.29 917.688 1175.91 920.75 1175.53L925.312 1175V1171.38ZM969.688 1183.88C969.688 1191.81 965.271 1195.78 956.438 1195.78C947.604 1195.78 943.188 1191.81 943.188 1183.88V1160.72H948.875V1184.38C948.875 1186.81 949.479 1188.59 950.688 1189.72C951.896 1190.84 953.812 1191.41 956.438 1191.41C959.062 1191.41 960.979 1190.84 962.188 1189.72C963.396 1188.59 964 1186.81 964 1184.38V1160.72H969.688V1183.88ZM1008.12 1195H1003.59C999.573 1195 996.698 1194.58 994.969 1193.75C993.969 1193.27 993.177 1192.72 992.594 1192.09C991.052 1190.49 990.25 1186.95 990.188 1181.47V1150.47H979.938V1146.09H995.875V1181.19C995.875 1185.33 996.25 1187.88 997 1188.81C997.771 1189.75 998.729 1190.29 999.875 1190.44C1001.02 1190.56 1002.19 1190.62 1003.38 1190.62H1008.41L1008.12 1195ZM1032.31 1165.09V1181.19C1032.31 1183.19 1032.42 1184.77 1032.62 1185.94C1032.85 1187.1 1033.29 1188.05 1033.94 1188.78C1034.6 1189.51 1035.46 1190 1036.5 1190.25C1037.54 1190.5 1038.96 1190.62 1040.75 1190.62H1047.03L1046.72 1195H1040.97C1035.07 1195 1031.15 1193.92 1029.19 1191.75C1027.92 1190.33 1027.14 1188.05 1026.84 1184.91C1026.7 1183.51 1026.62 1181.79 1026.62 1179.75V1165.09H1016.94L1017.56 1160.72H1026.62V1148.91L1032.31 1147.22V1160.72H1046.75V1165.09H1032.31Z" fill="#70F1D6"/>
<rect x="106" y="545" width="1022" height="292" fill="#0B6459" stroke="#70F1D6" stroke-width="8"/>
<path d="M319.031 668.531L316.969 672.625C314.198 670.479 311.198 669.406 307.969 669.406C304.74 669.406 302.073 670.312 299.969 672.125C295.844 675.646 293.781 681.146 293.781 688.625C293.781 692.229 294.312 695.479 295.375 698.375C296.438 701.271 298.01 703.594 300.094 705.344C302.198 707.073 304.646 707.938 307.438 707.938C311.083 707.938 314.281 706.812 317.031 704.562L319.062 708.969C316.146 711.51 312.031 712.781 306.719 712.781C302.906 712.781 299.542 711.74 296.625 709.656C293.729 707.552 291.51 704.677 289.969 701.031C288.427 697.365 287.656 693.479 287.656 689.375C287.656 685.25 288.146 681.688 289.125 678.688C290.104 675.667 291.438 673.135 293.125 671.094C294.833 669.052 296.854 667.469 299.188 666.344C301.521 665.198 304.031 664.625 306.719 664.625C311.906 664.625 316.01 665.927 319.031 668.531ZM339.188 712H333.5V677.719H338.156L338.625 684.062C340.021 681.646 341.854 679.812 344.125 678.562C346.396 677.312 348.969 676.688 351.844 676.688H354.594V681.969H351.031C347.385 681.969 344.5 682.885 342.375 684.719C340.25 686.531 339.188 689.271 339.188 692.938V712ZM373.438 710.406C371.042 708.802 369.26 706.656 368.094 703.969C366.948 701.26 366.375 698.208 366.375 694.812C366.375 691.417 366.906 688.375 367.969 685.688C369.052 682.979 370.656 680.802 372.781 679.156C374.927 677.49 377.281 676.656 379.844 676.656C384.677 676.656 388.219 678.312 390.469 681.625C392.719 684.938 393.844 689.01 393.844 693.844V695.75H372.125C372.25 699.271 373.125 702.26 374.75 704.719C376.396 707.177 378.854 708.406 382.125 708.406C384.312 708.198 387.365 707.01 391.281 704.844L393.156 708.719C390.448 711.427 386.75 712.781 382.062 712.781C378.708 712.781 375.833 711.99 373.438 710.406ZM388.406 691.594C387.99 684.573 385.531 681.062 381.031 681.062C375.948 681.062 373.042 684.573 372.312 691.594H388.406ZM425.625 704.344V695.594L420.969 696.25C417.719 696.708 415.469 697.167 414.219 697.625C411.427 698.688 410.031 700.469 410.031 702.969C410.031 704.698 410.531 706.073 411.531 707.094C412.531 708.115 413.906 708.625 415.656 708.625C419.51 708.625 422.833 707.198 425.625 704.344ZM425.625 688.375C425.625 683.479 423.552 681.031 419.406 681.031C417.448 681.031 415.281 681.26 412.906 681.719C410.552 682.177 408.896 682.615 407.938 683.031L406.594 678.844C410.906 677.406 414.958 676.688 418.75 676.688C422.542 676.688 425.583 677.552 427.875 679.281C430.167 681.01 431.312 683.677 431.312 687.281V712H426.594L425.844 708.031C424.51 709.385 422.792 710.521 420.688 711.438C418.604 712.333 416.562 712.781 414.562 712.781C411.667 712.781 409.26 711.917 407.344 710.188C405.427 708.438 404.469 705.979 404.469 702.812C404.469 699.625 405.719 697.292 408.219 695.812C409.906 694.771 411.698 694.062 413.594 693.688C415.51 693.292 418 692.906 421.062 692.531L425.625 692V688.375ZM455.75 682.094V698.188C455.75 700.188 455.854 701.771 456.062 702.938C456.292 704.104 456.729 705.052 457.375 705.781C458.042 706.51 458.896 707 459.938 707.25C460.979 707.5 462.396 707.625 464.188 707.625H470.469L470.156 712H464.406C458.51 712 454.583 710.917 452.625 708.75C451.354 707.333 450.573 705.052 450.281 701.906C450.135 700.51 450.062 698.792 450.062 696.75V682.094H440.375L441 677.719H450.062V665.906L455.75 664.219V677.719H470.188V682.094H455.75ZM488.75 710.406C486.354 708.802 484.573 706.656 483.406 703.969C482.26 701.26 481.688 698.208 481.688 694.812C481.688 691.417 482.219 688.375 483.281 685.688C484.365 682.979 485.969 680.802 488.094 679.156C490.24 677.49 492.594 676.656 495.156 676.656C499.99 676.656 503.531 678.312 505.781 681.625C508.031 684.938 509.156 689.01 509.156 693.844V695.75H487.438C487.562 699.271 488.438 702.26 490.062 704.719C491.708 707.177 494.167 708.406 497.438 708.406C499.625 708.198 502.677 707.01 506.594 704.844L508.469 708.719C505.76 711.427 502.062 712.781 497.375 712.781C494.021 712.781 491.146 711.99 488.75 710.406ZM503.719 691.594C503.302 684.573 500.844 681.062 496.344 681.062C491.26 681.062 488.354 684.573 487.625 691.594H503.719ZM568.156 707.438H586.156L585.844 712H562.312V665.406H568.156V707.438ZM615.562 672.031C614.146 670.281 612.448 669.406 610.469 669.406C608.49 669.406 606.792 670.281 605.375 672.031C603.958 673.76 602.917 676.052 602.25 678.906C601.583 681.76 601.25 685.021 601.25 688.688C601.25 692.354 601.583 695.615 602.25 698.469C602.917 701.323 603.958 703.615 605.375 705.344C606.792 707.073 608.49 707.938 610.469 707.938C612.448 707.938 614.146 707.073 615.562 705.344C616.979 703.615 618.021 701.323 618.688 698.469C619.354 695.615 619.688 692.354 619.688 688.688C619.688 685.021 619.354 681.76 618.688 678.906C618.021 676.052 616.979 673.76 615.562 672.031ZM617.312 710.844C615.312 712.135 613.031 712.781 610.469 712.781C607.906 712.781 605.625 712.135 603.625 710.844C601.625 709.531 600.01 707.75 598.781 705.5C596.344 700.979 595.125 695.365 595.125 688.656C595.125 680.365 596.76 674.042 600.031 669.688C601.177 668.146 602.635 666.917 604.406 666C606.198 665.083 608.219 664.625 610.469 664.625C612.719 664.625 614.74 665.083 616.531 666C619.781 667.667 622.135 670.573 623.594 674.719C625.073 678.844 625.812 683.49 625.812 688.656C625.812 695.365 624.594 700.979 622.156 705.5C620.927 707.75 619.312 709.531 617.312 710.844ZM643.562 692.281H654.25L649 672.062L643.562 692.281ZM652.219 665.406L666 712H659.844L655.438 696.969H642.344L637.969 712H631.844L645.594 665.406H652.219ZM701.844 712H694.969L678.156 674.312V712H672.844V665.406H679.562L696.625 702.969V665.406H701.844V712ZM763.25 682.094V698.188C763.25 700.188 763.354 701.771 763.562 702.938C763.792 704.104 764.229 705.052 764.875 705.781C765.542 706.51 766.396 707 767.438 707.25C768.479 707.5 769.896 707.625 771.688 707.625H777.969L777.656 712H771.906C766.01 712 762.083 710.917 760.125 708.75C758.854 707.333 758.073 705.052 757.781 701.906C757.635 700.51 757.562 698.792 757.562 696.75V682.094H747.875L748.5 677.719H757.562V665.906L763.25 664.219V677.719H777.688V682.094H763.25ZM802.594 708.406C806.573 708.406 809.281 706.427 810.719 702.469C811.49 700.344 811.875 698.167 811.875 695.938C811.875 693.688 811.792 691.938 811.625 690.688C811.25 687.854 810.344 685.542 808.906 683.75C807.49 681.958 805.385 681.062 802.594 681.062C798.719 681.062 796.073 683.083 794.656 687.125C793.906 689.292 793.531 691.562 793.531 693.938C793.531 698.146 794.188 701.615 795.5 704.344C796.812 707.052 799.177 708.406 802.594 708.406ZM813.844 681.688C816.323 685.021 817.562 689.375 817.562 694.75C817.562 700.125 816.219 704.479 813.531 707.812C810.844 711.125 807.198 712.781 802.594 712.781C800.135 712.781 797.948 712.312 796.031 711.375C794.115 710.438 792.562 709.146 791.375 707.5C788.979 704.188 787.781 699.875 787.781 694.562C787.781 689.25 789.104 684.948 791.75 681.656C794.396 678.344 798.115 676.688 802.906 676.688C807.719 676.688 811.365 678.354 813.844 681.688ZM834.156 691.625L849.344 677.719H856.531L841.25 691.938L858.625 712H851.5L837.219 694.562L834.156 697.25V712H828.469V663.719L834.156 663.094V691.625ZM873.125 710.406C870.729 708.802 868.948 706.656 867.781 703.969C866.635 701.26 866.062 698.208 866.062 694.812C866.062 691.417 866.594 688.375 867.656 685.688C868.74 682.979 870.344 680.802 872.469 679.156C874.615 677.49 876.969 676.656 879.531 676.656C884.365 676.656 887.906 678.312 890.156 681.625C892.406 684.938 893.531 689.01 893.531 693.844V695.75H871.812C871.938 699.271 872.812 702.26 874.438 704.719C876.083 707.177 878.542 708.406 881.812 708.406C884 708.198 887.052 707.01 890.969 704.844L892.844 708.719C890.135 711.427 886.438 712.781 881.75 712.781C878.396 712.781 875.521 711.99 873.125 710.406ZM888.094 691.594C887.677 684.573 885.219 681.062 880.719 681.062C875.635 681.062 872.729 684.573 872 691.594H888.094ZM921.062 676.688C928.167 676.688 931.719 681.188 931.719 690.188V712H926.031V690.875C926.031 688.458 925.906 686.729 925.656 685.688C925.406 684.646 925.031 683.792 924.531 683.125C923.469 681.75 921.729 681.062 919.312 681.062C916.875 681.062 914.812 681.771 913.125 683.188C911.438 684.604 910.594 686.479 910.594 688.812V712H904.906V677.719H910.125L910.438 681.438C912.708 678.271 916.25 676.688 921.062 676.688Z" fill="#70F1D6"/>
</svg>
