<svg width="1234" height="2264" viewBox="0 0 1234 2264" fill="none" xmlns="http://www.w3.org/2000/svg">
<rect width="1234" height="2264" fill="#111111"/>
<line x1="617" y1="399.979" x2="620.847" y2="1863.98" stroke="#70F1D6" stroke-width="16"/>
<rect x="98" y="1868" width="1022" height="292" rx="146" fill="#1A3E38" stroke="#70F1D6" stroke-width="8"/>
<path d="M419.312 2009.25H413.25V1992.97H419.188C424.438 1992.97 427.854 1994.31 429.438 1997C430.042 1998.04 430.344 1999.27 430.344 2000.69C430.344 2003.79 429.385 2006 427.469 2007.31C425.573 2008.6 422.854 2009.25 419.312 2009.25ZM416.469 1988.41H407.406V2035H413.25V2014.31H415.969L420.375 2014.22C421.75 2016.11 422.802 2017.68 423.531 2018.91C424.281 2020.14 424.833 2021.04 425.188 2021.62C425.562 2022.21 426 2022.99 426.5 2023.97C427.021 2024.95 427.385 2025.65 427.594 2026.06C427.823 2026.46 428.198 2027.21 428.719 2028.31C429.26 2029.42 429.594 2030.1 429.719 2030.38C429.844 2030.65 430.198 2031.44 430.781 2032.75C431.385 2034.04 431.74 2034.79 431.844 2035H438.625C436.479 2030.27 434.469 2026.2 432.594 2022.78C430.719 2019.34 428.552 2016.05 426.094 2012.91C429.219 2012.22 431.719 2010.86 433.594 2008.84C435.49 2006.8 436.438 2004.07 436.438 2000.66C436.438 1997.22 435.5 1994.6 433.625 1992.81C431.75 1991 429.385 1989.81 426.531 1989.25C423.698 1988.69 420.344 1988.41 416.469 1988.41ZM452.812 2033.41C450.417 2031.8 448.635 2029.66 447.469 2026.97C446.323 2024.26 445.75 2021.21 445.75 2017.81C445.75 2014.42 446.281 2011.38 447.344 2008.69C448.427 2005.98 450.031 2003.8 452.156 2002.16C454.302 2000.49 456.656 1999.66 459.219 1999.66C464.052 1999.66 467.594 2001.31 469.844 2004.62C472.094 2007.94 473.219 2012.01 473.219 2016.84V2018.75H451.5C451.625 2022.27 452.5 2025.26 454.125 2027.72C455.771 2030.18 458.229 2031.41 461.5 2031.41C463.688 2031.2 466.74 2030.01 470.656 2027.84L472.531 2031.72C469.823 2034.43 466.125 2035.78 461.438 2035.78C458.083 2035.78 455.208 2034.99 452.812 2033.41ZM467.781 2014.59C467.365 2007.57 464.906 2004.06 460.406 2004.06C455.323 2004.06 452.417 2007.57 451.688 2014.59H467.781ZM496.688 2005.09V2021.19C496.688 2023.19 496.792 2024.77 497 2025.94C497.229 2027.1 497.667 2028.05 498.312 2028.78C498.979 2029.51 499.833 2030 500.875 2030.25C501.917 2030.5 503.333 2030.62 505.125 2030.62H511.406L511.094 2035H505.344C499.448 2035 495.521 2033.92 493.562 2031.75C492.292 2030.33 491.51 2028.05 491.219 2024.91C491.073 2023.51 491 2021.79 491 2019.75V2005.09H481.312L481.938 2000.72H491V1988.91L496.688 1987.22V2000.72H511.125V2005.09H496.688ZM549.375 2023.88C549.375 2031.81 544.958 2035.78 536.125 2035.78C527.292 2035.78 522.875 2031.81 522.875 2023.88V2000.72H528.562V2024.38C528.562 2026.81 529.167 2028.59 530.375 2029.72C531.583 2030.84 533.5 2031.41 536.125 2031.41C538.75 2031.41 540.667 2030.84 541.875 2029.72C543.083 2028.59 543.688 2026.81 543.688 2024.38V2000.72H549.375V2023.88ZM572.312 2035H566.625V2000.72H571.281L571.75 2007.06C573.146 2004.65 574.979 2002.81 577.25 2001.56C579.521 2000.31 582.094 1999.69 584.969 1999.69H587.719V2004.97H584.156C580.51 2004.97 577.625 2005.89 575.5 2007.72C573.375 2009.53 572.312 2012.27 572.312 2015.94V2035ZM616.062 1999.69C623.167 1999.69 626.719 2004.19 626.719 2013.19V2035H621.031V2013.88C621.031 2011.46 620.906 2009.73 620.656 2008.69C620.406 2007.65 620.031 2006.79 619.531 2006.12C618.469 2004.75 616.729 2004.06 614.312 2004.06C611.875 2004.06 609.812 2004.77 608.125 2006.19C606.438 2007.6 605.594 2009.48 605.594 2011.81V2035H599.906V2000.72H605.125L605.438 2004.44C607.708 2001.27 611.25 1999.69 616.062 1999.69ZM688.875 2005.09V2021.19C688.875 2023.19 688.979 2024.77 689.188 2025.94C689.417 2027.1 689.854 2028.05 690.5 2028.78C691.167 2029.51 692.021 2030 693.062 2030.25C694.104 2030.5 695.521 2030.62 697.312 2030.62H703.594L703.281 2035H697.531C691.635 2035 687.708 2033.92 685.75 2031.75C684.479 2030.33 683.698 2028.05 683.406 2024.91C683.26 2023.51 683.188 2021.79 683.188 2019.75V2005.09H673.5L674.125 2000.72H683.188V1988.91L688.875 1987.22V2000.72H703.312V2005.09H688.875ZM726.062 2035H720.375V2000.72H725.031L725.5 2007.06C726.896 2004.65 728.729 2002.81 731 2001.56C733.271 2000.31 735.844 1999.69 738.719 1999.69H741.469V2004.97H737.906C734.26 2004.97 731.375 2005.89 729.25 2007.72C727.125 2009.53 726.062 2012.27 726.062 2015.94V2035ZM780 2023.88C780 2031.81 775.583 2035.78 766.75 2035.78C757.917 2035.78 753.5 2031.81 753.5 2023.88V2000.72H759.188V2024.38C759.188 2026.81 759.792 2028.59 761 2029.72C762.208 2030.84 764.125 2031.41 766.75 2031.41C769.375 2031.41 771.292 2030.84 772.5 2029.72C773.708 2028.59 774.312 2026.81 774.312 2024.38V2000.72H780V2023.88ZM798.75 2033.41C796.354 2031.8 794.573 2029.66 793.406 2026.97C792.26 2024.26 791.688 2021.21 791.688 2017.81C791.688 2014.42 792.219 2011.38 793.281 2008.69C794.365 2005.98 795.969 2003.8 798.094 2002.16C800.24 2000.49 802.594 1999.66 805.156 1999.66C809.99 1999.66 813.531 2001.31 815.781 2004.62C818.031 2007.94 819.156 2012.01 819.156 2016.84V2018.75H797.438C797.562 2022.27 798.438 2025.26 800.062 2027.72C801.708 2030.18 804.167 2031.41 807.438 2031.41C809.625 2031.2 812.677 2030.01 816.594 2027.84L818.469 2031.72C815.76 2034.43 812.062 2035.78 807.375 2035.78C804.021 2035.78 801.146 2034.99 798.75 2033.41ZM813.719 2014.59C813.302 2007.57 810.844 2004.06 806.344 2004.06C801.26 2004.06 798.354 2007.57 797.625 2014.59H813.719Z" fill="#70F1D6"/>
<rect x="98" y="104" width="1022" height="292" rx="146" fill="#1A3E38" stroke="#70F1D6" stroke-width="8"/>
<path d="M457 271H451.312V236.719H455.969L456.438 243.062C457.833 240.646 459.667 238.812 461.938 237.562C464.208 236.312 466.781 235.688 469.656 235.688H472.406V240.969H468.844C465.198 240.969 462.312 241.885 460.188 243.719C458.062 245.531 457 248.271 457 251.938V271ZM491.25 269.406C488.854 267.802 487.073 265.656 485.906 262.969C484.76 260.26 484.188 257.208 484.188 253.812C484.188 250.417 484.719 247.375 485.781 244.688C486.865 241.979 488.469 239.802 490.594 238.156C492.74 236.49 495.094 235.656 497.656 235.656C502.49 235.656 506.031 237.312 508.281 240.625C510.531 243.938 511.656 248.01 511.656 252.844V254.75H489.938C490.062 258.271 490.938 261.26 492.562 263.719C494.208 266.177 496.667 267.406 499.938 267.406C502.125 267.198 505.177 266.01 509.094 263.844L510.969 267.719C508.26 270.427 504.562 271.781 499.875 271.781C496.521 271.781 493.646 270.99 491.25 269.406ZM506.219 250.594C505.802 243.573 503.344 240.062 498.844 240.062C493.76 240.062 490.854 243.573 490.125 250.594H506.219ZM527.5 253.656C527.5 262.823 530.708 267.406 537.125 267.406C542.896 267.406 545.781 262.823 545.781 253.656C545.781 248.573 545 245.042 543.438 243.062C541.896 241.062 539.76 240.062 537.031 240.062C531.698 240.062 528.615 243.146 527.781 249.312C527.594 250.604 527.5 252.052 527.5 253.656ZM537.344 271.781C535.135 271.781 533.177 271.271 531.469 270.25C529.76 269.229 528.458 267.917 527.562 266.312V284.156L521.875 284.781V236.719H527.562V241.438C528.562 239.729 529.896 238.344 531.562 237.281C533.229 236.219 535.115 235.688 537.219 235.688C542.865 235.688 546.875 238.021 549.25 242.688C550.75 245.646 551.5 249.167 551.5 253.25C551.5 259.771 549.927 264.729 546.781 268.125C544.531 270.562 541.385 271.781 537.344 271.781ZM581.875 263.344V254.594L577.219 255.25C573.969 255.708 571.719 256.167 570.469 256.625C567.677 257.688 566.281 259.469 566.281 261.969C566.281 263.698 566.781 265.073 567.781 266.094C568.781 267.115 570.156 267.625 571.906 267.625C575.76 267.625 579.083 266.198 581.875 263.344ZM581.875 247.375C581.875 242.479 579.802 240.031 575.656 240.031C573.698 240.031 571.531 240.26 569.156 240.719C566.802 241.177 565.146 241.615 564.188 242.031L562.844 237.844C567.156 236.406 571.208 235.688 575 235.688C578.792 235.688 581.833 236.552 584.125 238.281C586.417 240.01 587.562 242.677 587.562 246.281V271H582.844L582.094 267.031C580.76 268.385 579.042 269.521 576.938 270.438C574.854 271.333 572.812 271.781 570.812 271.781C567.917 271.781 565.51 270.917 563.594 269.188C561.677 267.438 560.719 264.979 560.719 261.812C560.719 258.625 561.969 256.292 564.469 254.812C566.156 253.771 567.948 253.062 569.844 252.688C571.76 252.292 574.25 251.906 577.312 251.531L581.875 251V247.375ZM613.906 264.5L622.969 236.719H629.188C622.854 254.594 619.115 265.01 617.969 267.969C616.823 270.906 616.042 272.906 615.625 273.969C615.208 275.031 614.74 276.125 614.219 277.25C613.698 278.375 613.083 279.396 612.375 280.312C611.667 281.25 610.99 281.938 610.344 282.375C609.719 282.833 608.719 283.25 607.344 283.625C605.99 284.021 603.458 284.219 599.75 284.219L599.094 279.438C601.865 279.438 603.521 279.375 604.062 279.25C604.625 279.125 605.156 278.979 605.656 278.812C606.156 278.667 606.531 278.479 606.781 278.25C607.031 278.042 607.344 277.76 607.719 277.406C608.677 276.469 609.75 274.083 610.938 270.25C605.062 256.75 600.823 246.708 598.219 240.125L596.875 236.719H603.031L613.906 264.5ZM647.531 266.438H665.531L665.219 271H641.688V224.406H647.531V266.438ZM689.781 267.406C693.76 267.406 696.469 265.427 697.906 261.469C698.677 259.344 699.062 257.167 699.062 254.938C699.062 252.688 698.979 250.938 698.812 249.688C698.438 246.854 697.531 244.542 696.094 242.75C694.677 240.958 692.573 240.062 689.781 240.062C685.906 240.062 683.26 242.083 681.844 246.125C681.094 248.292 680.719 250.562 680.719 252.938C680.719 257.146 681.375 260.615 682.688 263.344C684 266.052 686.365 267.406 689.781 267.406ZM701.031 240.688C703.51 244.021 704.75 248.375 704.75 253.75C704.75 259.125 703.406 263.479 700.719 266.812C698.031 270.125 694.385 271.781 689.781 271.781C687.323 271.781 685.135 271.312 683.219 270.375C681.302 269.438 679.75 268.146 678.562 266.5C676.167 263.188 674.969 258.875 674.969 253.562C674.969 248.25 676.292 243.948 678.938 240.656C681.583 237.344 685.302 235.688 690.094 235.688C694.906 235.688 698.552 237.354 701.031 240.688ZM735.625 263.344V254.594L730.969 255.25C727.719 255.708 725.469 256.167 724.219 256.625C721.427 257.688 720.031 259.469 720.031 261.969C720.031 263.698 720.531 265.073 721.531 266.094C722.531 267.115 723.906 267.625 725.656 267.625C729.51 267.625 732.833 266.198 735.625 263.344ZM735.625 247.375C735.625 242.479 733.552 240.031 729.406 240.031C727.448 240.031 725.281 240.26 722.906 240.719C720.552 241.177 718.896 241.615 717.938 242.031L716.594 237.844C720.906 236.406 724.958 235.688 728.75 235.688C732.542 235.688 735.583 236.552 737.875 238.281C740.167 240.01 741.312 242.677 741.312 246.281V271H736.594L735.844 267.031C734.51 268.385 732.792 269.521 730.688 270.438C728.604 271.333 726.562 271.781 724.562 271.781C721.667 271.781 719.26 270.917 717.344 269.188C715.427 267.438 714.469 264.979 714.469 261.812C714.469 258.625 715.719 256.292 718.219 254.812C719.906 253.771 721.698 253.062 723.594 252.688C725.51 252.292 728 251.906 731.062 251.531L735.625 251V247.375ZM769.812 235.688C776.917 235.688 780.469 240.188 780.469 249.188V271H774.781V249.875C774.781 247.458 774.656 245.729 774.406 244.688C774.156 243.646 773.781 242.792 773.281 242.125C772.219 240.75 770.479 240.062 768.062 240.062C765.625 240.062 763.562 240.771 761.875 242.188C760.188 243.604 759.344 245.479 759.344 247.812V271H753.656V236.719H758.875L759.188 240.438C761.458 237.271 765 235.688 769.812 235.688Z" fill="#70F1D6"/>
<rect x="106" y="1427" width="1022" height="292" fill="#0B6459" stroke="#70F1D6" stroke-width="8"/>
<path d="M228.969 1463.41V1467.97H215.719V1510H209.875V1467.97H196.625V1463.41H228.969ZM249.094 1510H243.406V1475.72H248.062L248.531 1482.06C249.927 1479.65 251.76 1477.81 254.031 1476.56C256.302 1475.31 258.875 1474.69 261.75 1474.69H264.5V1479.97H260.938C257.292 1479.97 254.406 1480.89 252.281 1482.72C250.156 1484.53 249.094 1487.27 249.094 1490.94V1510ZM297.094 1502.34V1493.59L292.438 1494.25C289.188 1494.71 286.938 1495.17 285.688 1495.62C282.896 1496.69 281.5 1498.47 281.5 1500.97C281.5 1502.7 282 1504.07 283 1505.09C284 1506.11 285.375 1506.62 287.125 1506.62C290.979 1506.62 294.302 1505.2 297.094 1502.34ZM297.094 1486.38C297.094 1481.48 295.021 1479.03 290.875 1479.03C288.917 1479.03 286.75 1479.26 284.375 1479.72C282.021 1480.18 280.365 1480.61 279.406 1481.03L278.062 1476.84C282.375 1475.41 286.427 1474.69 290.219 1474.69C294.01 1474.69 297.052 1475.55 299.344 1477.28C301.635 1479.01 302.781 1481.68 302.781 1485.28V1510H298.062L297.312 1506.03C295.979 1507.39 294.26 1508.52 292.156 1509.44C290.073 1510.33 288.031 1510.78 286.031 1510.78C283.135 1510.78 280.729 1509.92 278.812 1508.19C276.896 1506.44 275.938 1503.98 275.938 1500.81C275.938 1497.62 277.188 1495.29 279.688 1493.81C281.375 1492.77 283.167 1492.06 285.062 1491.69C286.979 1491.29 289.469 1490.91 292.531 1490.53L297.094 1490V1486.38ZM331.281 1474.69C338.385 1474.69 341.938 1479.19 341.938 1488.19V1510H336.25V1488.88C336.25 1486.46 336.125 1484.73 335.875 1483.69C335.625 1482.65 335.25 1481.79 334.75 1481.12C333.688 1479.75 331.948 1479.06 329.531 1479.06C327.094 1479.06 325.031 1479.77 323.344 1481.19C321.656 1482.6 320.812 1484.48 320.812 1486.81V1510H315.125V1475.72H320.344L320.656 1479.44C322.927 1476.27 326.469 1474.69 331.281 1474.69ZM370.812 1490.53C373.771 1491.26 375.927 1492.42 377.281 1494C378.656 1495.58 379.344 1497.88 379.344 1500.88C379.344 1503.85 378.198 1506.25 375.906 1508.06C373.635 1509.88 370.781 1510.78 367.344 1510.78C364.885 1510.78 362.5 1510.48 360.188 1509.88C357.875 1509.25 356.167 1508.52 355.062 1507.69L356.469 1503.59C357.344 1504.14 358.729 1504.69 360.625 1505.25C362.521 1505.79 364.573 1506.06 366.781 1506.06C369.01 1506.06 370.781 1505.6 372.094 1504.69C373.427 1503.75 374.094 1502.51 374.094 1500.97C374.094 1499.43 373.76 1498.22 373.094 1497.34C372.448 1496.45 371.188 1495.77 369.312 1495.31L363.5 1493.91C360.146 1493.07 357.917 1491.86 356.812 1490.28C355.708 1488.68 355.156 1486.69 355.156 1484.31C355.156 1481.94 356.115 1479.75 358.031 1477.75C359.969 1475.75 362.781 1474.73 366.469 1474.69H366.875C371.021 1474.69 374.552 1475.47 377.469 1477.03L376.219 1481.03C373.177 1479.74 370.094 1479.09 366.969 1479.09C365.031 1479.11 363.438 1479.6 362.188 1480.56C360.958 1481.5 360.344 1482.69 360.344 1484.12C360.344 1485.56 360.656 1486.65 361.281 1487.38C361.906 1488.08 363.094 1488.65 364.844 1489.06L370.812 1490.53ZM406.969 1510H401.281V1480.09H392.312V1475.72H401.281C401.281 1471.51 401.448 1468.85 401.781 1467.75C402.448 1465.56 403.302 1464.01 404.344 1463.09C406.365 1461.34 410.042 1460.47 415.375 1460.47H418.688L418.375 1464.84H415.25C413.646 1464.84 412.375 1464.92 411.438 1465.06C410.5 1465.21 409.667 1465.52 408.938 1466C407.625 1466.83 406.969 1468.69 406.969 1471.56V1475.72H418.688V1480.09H406.969V1510ZM437.094 1508.41C434.698 1506.8 432.917 1504.66 431.75 1501.97C430.604 1499.26 430.031 1496.21 430.031 1492.81C430.031 1489.42 430.562 1486.38 431.625 1483.69C432.708 1480.98 434.312 1478.8 436.438 1477.16C438.583 1475.49 440.938 1474.66 443.5 1474.66C448.333 1474.66 451.875 1476.31 454.125 1479.62C456.375 1482.94 457.5 1487.01 457.5 1491.84V1493.75H435.781C435.906 1497.27 436.781 1500.26 438.406 1502.72C440.052 1505.18 442.51 1506.41 445.781 1506.41C447.969 1506.2 451.021 1505.01 454.938 1502.84L456.812 1506.72C454.104 1509.43 450.406 1510.78 445.719 1510.78C442.365 1510.78 439.49 1509.99 437.094 1508.41ZM452.062 1489.59C451.646 1482.57 449.188 1479.06 444.688 1479.06C439.604 1479.06 436.698 1482.57 435.969 1489.59H452.062ZM479.719 1510H474.031V1475.72H478.688L479.156 1482.06C480.552 1479.65 482.385 1477.81 484.656 1476.56C486.927 1475.31 489.5 1474.69 492.375 1474.69H495.125V1479.97H491.562C487.917 1479.97 485.031 1480.89 482.906 1482.72C480.781 1484.53 479.719 1487.27 479.719 1490.94V1510ZM570.938 1507.75C568.75 1509.77 565.635 1510.78 561.594 1510.78C559.01 1510.78 556.656 1510.29 554.531 1509.31C552.406 1508.31 550.667 1506.98 549.312 1505.31C546.458 1501.81 545.031 1497.59 545.031 1492.66C545.031 1489.47 545.677 1486.52 546.969 1483.81C548.281 1481.1 550.208 1478.91 552.75 1477.22C555.292 1475.53 558.427 1474.69 562.156 1474.69C565.885 1474.69 568.781 1475.68 570.844 1477.66L569.406 1481.47C567.01 1479.86 564.302 1479.06 561.281 1479.06C558.26 1479.06 555.75 1480.35 553.75 1482.94C551.771 1485.52 550.781 1488.81 550.781 1492.81C550.781 1496.79 551.771 1500.05 553.75 1502.59C555.75 1505.14 558.292 1506.41 561.375 1506.41C564.479 1506.41 567.208 1505.57 569.562 1503.91L570.938 1507.75ZM597.188 1506.41C601.167 1506.41 603.875 1504.43 605.312 1500.47C606.083 1498.34 606.469 1496.17 606.469 1493.94C606.469 1491.69 606.385 1489.94 606.219 1488.69C605.844 1485.85 604.938 1483.54 603.5 1481.75C602.083 1479.96 599.979 1479.06 597.188 1479.06C593.312 1479.06 590.667 1481.08 589.25 1485.12C588.5 1487.29 588.125 1489.56 588.125 1491.94C588.125 1496.15 588.781 1499.61 590.094 1502.34C591.406 1505.05 593.771 1506.41 597.188 1506.41ZM608.438 1479.69C610.917 1483.02 612.156 1487.38 612.156 1492.75C612.156 1498.12 610.812 1502.48 608.125 1505.81C605.438 1509.12 601.792 1510.78 597.188 1510.78C594.729 1510.78 592.542 1510.31 590.625 1509.38C588.708 1508.44 587.156 1507.15 585.969 1505.5C583.573 1502.19 582.375 1497.88 582.375 1492.56C582.375 1487.25 583.698 1482.95 586.344 1479.66C588.99 1476.34 592.708 1474.69 597.5 1474.69C602.312 1474.69 605.958 1476.35 608.438 1479.69ZM648.969 1510H644.438C640.417 1510 637.542 1509.58 635.812 1508.75C634.812 1508.27 634.021 1507.72 633.438 1507.09C631.896 1505.49 631.094 1501.95 631.031 1496.47V1465.47H620.781V1461.09H636.719V1496.19C636.719 1500.33 637.094 1502.88 637.844 1503.81C638.615 1504.75 639.573 1505.29 640.719 1505.44C641.865 1505.56 643.031 1505.62 644.219 1505.62H649.25L648.969 1510ZM687.406 1510H682.875C678.854 1510 675.979 1509.58 674.25 1508.75C673.25 1508.27 672.458 1507.72 671.875 1507.09C670.333 1505.49 669.531 1501.95 669.469 1496.47V1465.47H659.219V1461.09H675.156V1496.19C675.156 1500.33 675.531 1502.88 676.281 1503.81C677.052 1504.75 678.01 1505.29 679.156 1505.44C680.302 1505.56 681.469 1505.62 682.656 1505.62H687.688L687.406 1510ZM719.906 1502.34V1493.59L715.25 1494.25C712 1494.71 709.75 1495.17 708.5 1495.62C705.708 1496.69 704.312 1498.47 704.312 1500.97C704.312 1502.7 704.812 1504.07 705.812 1505.09C706.812 1506.11 708.188 1506.62 709.938 1506.62C713.792 1506.62 717.115 1505.2 719.906 1502.34ZM719.906 1486.38C719.906 1481.48 717.833 1479.03 713.688 1479.03C711.729 1479.03 709.562 1479.26 707.188 1479.72C704.833 1480.18 703.177 1480.61 702.219 1481.03L700.875 1476.84C705.188 1475.41 709.24 1474.69 713.031 1474.69C716.823 1474.69 719.865 1475.55 722.156 1477.28C724.448 1479.01 725.594 1481.68 725.594 1485.28V1510H720.875L720.125 1506.03C718.792 1507.39 717.073 1508.52 714.969 1509.44C712.885 1510.33 710.844 1510.78 708.844 1510.78C705.948 1510.78 703.542 1509.92 701.625 1508.19C699.708 1506.44 698.75 1503.98 698.75 1500.81C698.75 1497.62 700 1495.29 702.5 1493.81C704.188 1492.77 705.979 1492.06 707.875 1491.69C709.792 1491.29 712.281 1490.91 715.344 1490.53L719.906 1490V1486.38ZM750.031 1480.09V1496.19C750.031 1498.19 750.135 1499.77 750.344 1500.94C750.573 1502.1 751.01 1503.05 751.656 1503.78C752.323 1504.51 753.177 1505 754.219 1505.25C755.26 1505.5 756.677 1505.62 758.469 1505.62H764.75L764.438 1510H758.688C752.792 1510 748.865 1508.92 746.906 1506.75C745.635 1505.33 744.854 1503.05 744.562 1499.91C744.417 1498.51 744.344 1496.79 744.344 1494.75V1480.09H734.656L735.281 1475.72H744.344V1463.91L750.031 1462.22V1475.72H764.469V1480.09H750.031ZM783.031 1508.41C780.635 1506.8 778.854 1504.66 777.688 1501.97C776.542 1499.26 775.969 1496.21 775.969 1492.81C775.969 1489.42 776.5 1486.38 777.562 1483.69C778.646 1480.98 780.25 1478.8 782.375 1477.16C784.521 1475.49 786.875 1474.66 789.438 1474.66C794.271 1474.66 797.812 1476.31 800.062 1479.62C802.312 1482.94 803.438 1487.01 803.438 1491.84V1493.75H781.719C781.844 1497.27 782.719 1500.26 784.344 1502.72C785.99 1505.18 788.448 1506.41 791.719 1506.41C793.906 1506.2 796.958 1505.01 800.875 1502.84L802.75 1506.72C800.042 1509.43 796.344 1510.78 791.656 1510.78C788.302 1510.78 785.427 1509.99 783.031 1508.41ZM798 1489.59C797.583 1482.57 795.125 1479.06 790.625 1479.06C785.542 1479.06 782.635 1482.57 781.906 1489.59H798ZM825.656 1510H819.969V1475.72H824.625L825.094 1482.06C826.49 1479.65 828.323 1477.81 830.594 1476.56C832.865 1475.31 835.438 1474.69 838.312 1474.69H841.062V1479.97H837.5C833.854 1479.97 830.969 1480.89 828.844 1482.72C826.719 1484.53 825.656 1487.27 825.656 1490.94V1510ZM873.656 1502.34V1493.59L869 1494.25C865.75 1494.71 863.5 1495.17 862.25 1495.62C859.458 1496.69 858.062 1498.47 858.062 1500.97C858.062 1502.7 858.562 1504.07 859.562 1505.09C860.562 1506.11 861.938 1506.62 863.688 1506.62C867.542 1506.62 870.865 1505.2 873.656 1502.34ZM873.656 1486.38C873.656 1481.48 871.583 1479.03 867.438 1479.03C865.479 1479.03 863.312 1479.26 860.938 1479.72C858.583 1480.18 856.927 1480.61 855.969 1481.03L854.625 1476.84C858.938 1475.41 862.99 1474.69 866.781 1474.69C870.573 1474.69 873.615 1475.55 875.906 1477.28C878.198 1479.01 879.344 1481.68 879.344 1485.28V1510H874.625L873.875 1506.03C872.542 1507.39 870.823 1508.52 868.719 1509.44C866.635 1510.33 864.594 1510.78 862.594 1510.78C859.698 1510.78 857.292 1509.92 855.375 1508.19C853.458 1506.44 852.5 1503.98 852.5 1500.81C852.5 1497.62 853.75 1495.29 856.25 1493.81C857.938 1492.77 859.729 1492.06 861.625 1491.69C863.542 1491.29 866.031 1490.91 869.094 1490.53L873.656 1490V1486.38ZM918.031 1510H913.5C909.479 1510 906.604 1509.58 904.875 1508.75C903.875 1508.27 903.083 1507.72 902.5 1507.09C900.958 1505.49 900.156 1501.95 900.094 1496.47V1465.47H889.844V1461.09H905.781V1496.19C905.781 1500.33 906.156 1502.88 906.906 1503.81C907.677 1504.75 908.635 1505.29 909.781 1505.44C910.927 1505.56 912.094 1505.62 913.281 1505.62H918.312L918.031 1510ZM981.562 1506.41C985.542 1506.41 988.25 1504.43 989.688 1500.47C990.458 1498.34 990.844 1496.17 990.844 1493.94C990.844 1491.69 990.76 1489.94 990.594 1488.69C990.219 1485.85 989.312 1483.54 987.875 1481.75C986.458 1479.96 984.354 1479.06 981.562 1479.06C977.688 1479.06 975.042 1481.08 973.625 1485.12C972.875 1487.29 972.5 1489.56 972.5 1491.94C972.5 1496.15 973.156 1499.61 974.469 1502.34C975.781 1505.05 978.146 1506.41 981.562 1506.41ZM992.812 1479.69C995.292 1483.02 996.531 1487.38 996.531 1492.75C996.531 1498.12 995.188 1502.48 992.5 1505.81C989.812 1509.12 986.167 1510.78 981.562 1510.78C979.104 1510.78 976.917 1510.31 975 1509.38C973.083 1508.44 971.531 1507.15 970.344 1505.5C967.948 1502.19 966.75 1497.88 966.75 1492.56C966.75 1487.25 968.073 1482.95 970.719 1479.66C973.365 1476.34 977.083 1474.69 981.875 1474.69C986.688 1474.69 990.333 1476.35 992.812 1479.69ZM1021.97 1510H1016.28V1480.09H1007.31V1475.72H1016.28C1016.28 1471.51 1016.45 1468.85 1016.78 1467.75C1017.45 1465.56 1018.3 1464.01 1019.34 1463.09C1021.36 1461.34 1025.04 1460.47 1030.38 1460.47H1033.69L1033.38 1464.84H1030.25C1028.65 1464.84 1027.38 1464.92 1026.44 1465.06C1025.5 1465.21 1024.67 1465.52 1023.94 1466C1022.62 1466.83 1021.97 1468.69 1021.97 1471.56V1475.72H1033.69V1480.09H1021.97V1510ZM192.688 1564.09V1580.19C192.688 1582.19 192.792 1583.77 193 1584.94C193.229 1586.1 193.667 1587.05 194.312 1587.78C194.979 1588.51 195.833 1589 196.875 1589.25C197.917 1589.5 199.333 1589.62 201.125 1589.62H207.406L207.094 1594H201.344C195.448 1594 191.521 1592.92 189.562 1590.75C188.292 1589.33 187.51 1587.05 187.219 1583.91C187.073 1582.51 187 1580.79 187 1578.75V1564.09H177.312L177.938 1559.72H187V1547.91L192.688 1546.22V1559.72H207.125V1564.09H192.688ZM245.531 1573.31V1594H239.844V1574.03C239.844 1569.74 239.271 1566.84 238.125 1565.34C236.979 1563.82 235.25 1563.06 232.938 1563.06C230.604 1563.06 228.573 1563.88 226.844 1565.5C225.135 1567.1 224.281 1568.83 224.281 1570.69V1594H218.594V1545.72L224.281 1545.09V1563.88C226.948 1560.42 230.521 1558.69 235 1558.69C242.021 1558.69 245.531 1563.56 245.531 1573.31ZM264.125 1592.41C261.729 1590.8 259.948 1588.66 258.781 1585.97C257.635 1583.26 257.062 1580.21 257.062 1576.81C257.062 1573.42 257.594 1570.38 258.656 1567.69C259.74 1564.98 261.344 1562.8 263.469 1561.16C265.615 1559.49 267.969 1558.66 270.531 1558.66C275.365 1558.66 278.906 1560.31 281.156 1563.62C283.406 1566.94 284.531 1571.01 284.531 1575.84V1577.75H262.812C262.938 1581.27 263.812 1584.26 265.438 1586.72C267.083 1589.18 269.542 1590.41 272.812 1590.41C275 1590.2 278.052 1589.01 281.969 1586.84L283.844 1590.72C281.135 1593.43 277.438 1594.78 272.75 1594.78C269.396 1594.78 266.521 1593.99 264.125 1592.41ZM279.094 1573.59C278.677 1566.57 276.219 1563.06 271.719 1563.06C266.635 1563.06 263.729 1566.57 263 1573.59H279.094ZM360.688 1594H356.156C352.135 1594 349.26 1593.58 347.531 1592.75C346.531 1592.27 345.74 1591.72 345.156 1591.09C343.615 1589.49 342.812 1585.95 342.75 1580.47V1549.47H332.5V1545.09H348.438V1580.19C348.438 1584.33 348.812 1586.88 349.562 1587.81C350.333 1588.75 351.292 1589.29 352.438 1589.44C353.583 1589.56 354.75 1589.62 355.938 1589.62H360.969L360.688 1594ZM385.781 1590.41C389.76 1590.41 392.469 1588.43 393.906 1584.47C394.677 1582.34 395.062 1580.17 395.062 1577.94C395.062 1575.69 394.979 1573.94 394.812 1572.69C394.438 1569.85 393.531 1567.54 392.094 1565.75C390.677 1563.96 388.573 1563.06 385.781 1563.06C381.906 1563.06 379.26 1565.08 377.844 1569.12C377.094 1571.29 376.719 1573.56 376.719 1575.94C376.719 1580.15 377.375 1583.61 378.688 1586.34C380 1589.05 382.365 1590.41 385.781 1590.41ZM397.031 1563.69C399.51 1567.02 400.75 1571.38 400.75 1576.75C400.75 1582.12 399.406 1586.48 396.719 1589.81C394.031 1593.12 390.385 1594.78 385.781 1594.78C383.323 1594.78 381.135 1594.31 379.219 1593.38C377.302 1592.44 375.75 1591.15 374.562 1589.5C372.167 1586.19 370.969 1581.88 370.969 1576.56C370.969 1571.25 372.292 1566.95 374.938 1563.66C377.583 1560.34 381.302 1558.69 386.094 1558.69C390.906 1558.69 394.552 1560.35 397.031 1563.69ZM431.625 1586.34V1577.59L426.969 1578.25C423.719 1578.71 421.469 1579.17 420.219 1579.62C417.427 1580.69 416.031 1582.47 416.031 1584.97C416.031 1586.7 416.531 1588.07 417.531 1589.09C418.531 1590.11 419.906 1590.62 421.656 1590.62C425.51 1590.62 428.833 1589.2 431.625 1586.34ZM431.625 1570.38C431.625 1565.48 429.552 1563.03 425.406 1563.03C423.448 1563.03 421.281 1563.26 418.906 1563.72C416.552 1564.18 414.896 1564.61 413.938 1565.03L412.594 1560.84C416.906 1559.41 420.958 1558.69 424.75 1558.69C428.542 1558.69 431.583 1559.55 433.875 1561.28C436.167 1563.01 437.312 1565.68 437.312 1569.28V1594H432.594L431.844 1590.03C430.51 1591.39 428.792 1592.52 426.688 1593.44C424.604 1594.33 422.562 1594.78 420.562 1594.78C417.667 1594.78 415.26 1593.92 413.344 1592.19C411.427 1590.44 410.469 1587.98 410.469 1584.81C410.469 1581.62 411.719 1579.29 414.219 1577.81C415.906 1576.77 417.698 1576.06 419.594 1575.69C421.51 1575.29 424 1574.91 427.062 1574.53L431.625 1574V1570.38ZM465.812 1558.69C472.917 1558.69 476.469 1563.19 476.469 1572.19V1594H470.781V1572.88C470.781 1570.46 470.656 1568.73 470.406 1567.69C470.156 1566.65 469.781 1565.79 469.281 1565.12C468.219 1563.75 466.479 1563.06 464.062 1563.06C461.625 1563.06 459.562 1563.77 457.875 1565.19C456.188 1566.6 455.344 1568.48 455.344 1570.81V1594H449.656V1559.72H454.875L455.188 1563.44C457.458 1560.27 461 1558.69 465.812 1558.69ZM541.5 1594H535.812V1564.09H526.844V1559.72H535.812C535.812 1555.51 535.979 1552.85 536.312 1551.75C536.979 1549.56 537.833 1548.01 538.875 1547.09C540.896 1545.34 544.573 1544.47 549.906 1544.47H553.219L552.906 1548.84H549.781C548.177 1548.84 546.906 1548.92 545.969 1549.06C545.031 1549.21 544.198 1549.52 543.469 1550C542.156 1550.83 541.5 1552.69 541.5 1555.56V1559.72H553.219V1564.09H541.5V1594ZM575.812 1594H570.125V1559.72H574.781L575.25 1566.06C576.646 1563.65 578.479 1561.81 580.75 1560.56C583.021 1559.31 585.594 1558.69 588.469 1558.69H591.219V1563.97H587.656C584.01 1563.97 581.125 1564.89 579 1566.72C576.875 1568.53 575.812 1571.27 575.812 1574.94V1594ZM616.406 1590.41C620.385 1590.41 623.094 1588.43 624.531 1584.47C625.302 1582.34 625.688 1580.17 625.688 1577.94C625.688 1575.69 625.604 1573.94 625.438 1572.69C625.062 1569.85 624.156 1567.54 622.719 1565.75C621.302 1563.96 619.198 1563.06 616.406 1563.06C612.531 1563.06 609.885 1565.08 608.469 1569.12C607.719 1571.29 607.344 1573.56 607.344 1575.94C607.344 1580.15 608 1583.61 609.312 1586.34C610.625 1589.05 612.99 1590.41 616.406 1590.41ZM627.656 1563.69C630.135 1567.02 631.375 1571.38 631.375 1576.75C631.375 1582.12 630.031 1586.48 627.344 1589.81C624.656 1593.12 621.01 1594.78 616.406 1594.78C613.948 1594.78 611.76 1594.31 609.844 1593.38C607.927 1592.44 606.375 1591.15 605.188 1589.5C602.792 1586.19 601.594 1581.88 601.594 1576.56C601.594 1571.25 602.917 1566.95 605.562 1563.66C608.208 1560.34 611.927 1558.69 616.719 1558.69C621.531 1558.69 625.177 1560.35 627.656 1563.69ZM656.594 1564C657.969 1560.46 660.375 1558.69 663.812 1558.69C668.167 1558.69 670.625 1561.82 671.188 1568.09C671.292 1569.26 671.344 1570.57 671.344 1572.03V1594H666.125V1572.69C666.125 1568.58 665.854 1566.04 665.312 1565.06C664.771 1564.06 664.271 1563.48 663.812 1563.31C663.375 1563.15 662.885 1563.06 662.344 1563.06C660.51 1563.06 659.208 1564.08 658.438 1566.12C657.938 1567.44 657.688 1569.65 657.688 1572.75V1594H652.906V1573.09C652.906 1568.49 652.365 1565.5 651.281 1564.12C650.719 1563.42 649.906 1563.06 648.844 1563.06C647.802 1563.06 646.906 1563.52 646.156 1564.44C644.76 1566.15 644.062 1568.49 644.062 1571.47V1594H638.844V1559.72H643.375L643.719 1564.25C644.323 1562.69 645.156 1561.38 646.219 1560.31C647.281 1559.23 648.604 1558.69 650.188 1558.69C651.792 1558.69 653.146 1559.16 654.25 1560.09C655.375 1561.03 656.156 1562.33 656.594 1564ZM723.938 1570.09H732.031C734.99 1570.09 737.354 1569.32 739.125 1567.78C740.917 1566.24 741.812 1563.97 741.812 1560.97C741.812 1557.97 740.927 1555.72 739.156 1554.22C737.385 1552.72 735.01 1551.97 732.031 1551.97H723.938V1570.09ZM746.594 1554.47C747.49 1556.24 747.938 1558.29 747.938 1560.62C747.938 1566.96 745.667 1571.07 741.125 1572.97C738.292 1574.16 734.74 1574.75 730.469 1574.75H723.938V1594H718.094V1547.41H730.5C738.854 1547.41 744.219 1549.76 746.594 1554.47ZM779.312 1587.44L781.375 1547.41H787.156L783.5 1594H776.344L770.594 1573.41L764.469 1594H757.406L753.094 1547.41H758.875L762.125 1587.34L767.969 1566.5H773.375L779.312 1587.44ZM823.156 1594H816.281L799.469 1556.31V1594H794.156V1547.41H800.875L817.938 1584.97V1547.41H823.156V1594ZM896.562 1547.41H902.969L888.906 1594H882.125L868.125 1547.41H874.531L885.625 1587.03L896.562 1547.41ZM931.312 1586.34V1577.59L926.656 1578.25C923.406 1578.71 921.156 1579.17 919.906 1579.62C917.115 1580.69 915.719 1582.47 915.719 1584.97C915.719 1586.7 916.219 1588.07 917.219 1589.09C918.219 1590.11 919.594 1590.62 921.344 1590.62C925.198 1590.62 928.521 1589.2 931.312 1586.34ZM931.312 1570.38C931.312 1565.48 929.24 1563.03 925.094 1563.03C923.135 1563.03 920.969 1563.26 918.594 1563.72C916.24 1564.18 914.583 1564.61 913.625 1565.03L912.281 1560.84C916.594 1559.41 920.646 1558.69 924.438 1558.69C928.229 1558.69 931.271 1559.55 933.562 1561.28C935.854 1563.01 937 1565.68 937 1569.28V1594H932.281L931.531 1590.03C930.198 1591.39 928.479 1592.52 926.375 1593.44C924.292 1594.33 922.25 1594.78 920.25 1594.78C917.354 1594.78 914.948 1593.92 913.031 1592.19C911.115 1590.44 910.156 1587.98 910.156 1584.81C910.156 1581.62 911.406 1579.29 913.906 1577.81C915.594 1576.77 917.385 1576.06 919.281 1575.69C921.198 1575.29 923.688 1574.91 926.75 1574.53L931.312 1574V1570.38ZM975.688 1582.88C975.688 1590.81 971.271 1594.78 962.438 1594.78C953.604 1594.78 949.188 1590.81 949.188 1582.88V1559.72H954.875V1583.38C954.875 1585.81 955.479 1587.59 956.688 1588.72C957.896 1589.84 959.812 1590.41 962.438 1590.41C965.062 1590.41 966.979 1589.84 968.188 1588.72C969.396 1587.59 970 1585.81 970 1583.38V1559.72H975.688V1582.88ZM1014.12 1594H1009.59C1005.57 1594 1002.7 1593.58 1000.97 1592.75C999.969 1592.27 999.177 1591.72 998.594 1591.09C997.052 1589.49 996.25 1585.95 996.188 1580.47V1549.47H985.938V1545.09H1001.88V1580.19C1001.88 1584.33 1002.25 1586.88 1003 1587.81C1003.77 1588.75 1004.73 1589.29 1005.88 1589.44C1007.02 1589.56 1008.19 1589.62 1009.38 1589.62H1014.41L1014.12 1594ZM1038.31 1564.09V1580.19C1038.31 1582.19 1038.42 1583.77 1038.62 1584.94C1038.85 1586.1 1039.29 1587.05 1039.94 1587.78C1040.6 1588.51 1041.46 1589 1042.5 1589.25C1043.54 1589.5 1044.96 1589.62 1046.75 1589.62H1053.03L1052.72 1594H1046.97C1041.07 1594 1037.15 1592.92 1035.19 1590.75C1033.92 1589.33 1033.14 1587.05 1032.84 1583.91C1032.7 1582.51 1032.62 1580.79 1032.62 1578.75V1564.09H1022.94L1023.56 1559.72H1032.62V1547.91L1038.31 1546.22V1559.72H1052.75V1564.09H1038.31ZM192.688 1648.09V1664.19C192.688 1666.19 192.792 1667.77 193 1668.94C193.229 1670.1 193.667 1671.05 194.312 1671.78C194.979 1672.51 195.833 1673 196.875 1673.25C197.917 1673.5 199.333 1673.62 201.125 1673.62H207.406L207.094 1678H201.344C195.448 1678 191.521 1676.92 189.562 1674.75C188.292 1673.33 187.51 1671.05 187.219 1667.91C187.073 1666.51 187 1664.79 187 1662.75V1648.09H177.312L177.938 1643.72H187V1631.91L192.688 1630.22V1643.72H207.125V1648.09H192.688ZM232.031 1674.41C236.01 1674.41 238.719 1672.43 240.156 1668.47C240.927 1666.34 241.312 1664.17 241.312 1661.94C241.312 1659.69 241.229 1657.94 241.062 1656.69C240.688 1653.85 239.781 1651.54 238.344 1649.75C236.927 1647.96 234.823 1647.06 232.031 1647.06C228.156 1647.06 225.51 1649.08 224.094 1653.12C223.344 1655.29 222.969 1657.56 222.969 1659.94C222.969 1664.15 223.625 1667.61 224.938 1670.34C226.25 1673.05 228.615 1674.41 232.031 1674.41ZM243.281 1647.69C245.76 1651.02 247 1655.38 247 1660.75C247 1666.12 245.656 1670.48 242.969 1673.81C240.281 1677.12 236.635 1678.78 232.031 1678.78C229.573 1678.78 227.385 1678.31 225.469 1677.38C223.552 1676.44 222 1675.15 220.812 1673.5C218.417 1670.19 217.219 1665.88 217.219 1660.56C217.219 1655.25 218.542 1650.95 221.188 1647.66C223.833 1644.34 227.552 1642.69 232.344 1642.69C237.156 1642.69 240.802 1644.35 243.281 1647.69ZM308 1648.09V1664.19C308 1666.19 308.104 1667.77 308.312 1668.94C308.542 1670.1 308.979 1671.05 309.625 1671.78C310.292 1672.51 311.146 1673 312.188 1673.25C313.229 1673.5 314.646 1673.62 316.438 1673.62H322.719L322.406 1678H316.656C310.76 1678 306.833 1676.92 304.875 1674.75C303.604 1673.33 302.823 1671.05 302.531 1667.91C302.385 1666.51 302.312 1664.79 302.312 1662.75V1648.09H292.625L293.25 1643.72H302.312V1631.91L308 1630.22V1643.72H322.438V1648.09H308ZM360.844 1657.31V1678H355.156V1658.03C355.156 1653.74 354.583 1650.84 353.438 1649.34C352.292 1647.82 350.562 1647.06 348.25 1647.06C345.917 1647.06 343.885 1647.88 342.156 1649.5C340.448 1651.1 339.594 1652.83 339.594 1654.69V1678H333.906V1629.72L339.594 1629.09V1647.88C342.26 1644.42 345.833 1642.69 350.312 1642.69C357.333 1642.69 360.844 1647.56 360.844 1657.31ZM379.438 1676.41C377.042 1674.8 375.26 1672.66 374.094 1669.97C372.948 1667.26 372.375 1664.21 372.375 1660.81C372.375 1657.42 372.906 1654.38 373.969 1651.69C375.052 1648.98 376.656 1646.8 378.781 1645.16C380.927 1643.49 383.281 1642.66 385.844 1642.66C390.677 1642.66 394.219 1644.31 396.469 1647.62C398.719 1650.94 399.844 1655.01 399.844 1659.84V1661.75H378.125C378.25 1665.27 379.125 1668.26 380.75 1670.72C382.396 1673.18 384.854 1674.41 388.125 1674.41C390.312 1674.2 393.365 1673.01 397.281 1670.84L399.156 1674.72C396.448 1677.43 392.75 1678.78 388.062 1678.78C384.708 1678.78 381.833 1677.99 379.438 1676.41ZM394.406 1657.59C393.99 1650.57 391.531 1647.06 387.031 1647.06C381.948 1647.06 379.042 1650.57 378.312 1657.59H394.406ZM454.781 1664.94C455.156 1667.85 456.031 1670.16 457.406 1671.84C458.802 1673.53 460.927 1674.38 463.781 1674.38C467.635 1674.38 470.24 1672.38 471.594 1668.38C472.281 1666.27 472.625 1664.08 472.625 1661.81C472.625 1659.52 472.552 1657.76 472.406 1656.53C472.094 1653.61 471.271 1651.31 469.938 1649.62C468.625 1647.92 466.573 1647.06 463.781 1647.06C459.115 1647.06 456.26 1649.31 455.219 1653.81C454.781 1655.69 454.562 1657.7 454.562 1659.84C454.562 1661.97 454.635 1663.67 454.781 1664.94ZM454.562 1648.44C456.875 1644.6 460.333 1642.69 464.938 1642.69C469.562 1642.69 472.948 1644.35 475.094 1647.69C477.26 1651.02 478.344 1655.21 478.344 1660.25C478.344 1666.85 476.781 1671.82 473.656 1675.16C471.406 1677.57 468.344 1678.78 464.469 1678.78C461.906 1678.78 459.948 1678.31 458.594 1677.38C457.26 1676.42 455.917 1675.06 454.562 1673.31L454.5 1678H448.875V1629.72L454.562 1629.09V1648.44ZM501.094 1674.41C505.073 1674.41 507.781 1672.43 509.219 1668.47C509.99 1666.34 510.375 1664.17 510.375 1661.94C510.375 1659.69 510.292 1657.94 510.125 1656.69C509.75 1653.85 508.844 1651.54 507.406 1649.75C505.99 1647.96 503.885 1647.06 501.094 1647.06C497.219 1647.06 494.573 1649.08 493.156 1653.12C492.406 1655.29 492.031 1657.56 492.031 1659.94C492.031 1664.15 492.688 1667.61 494 1670.34C495.312 1673.05 497.677 1674.41 501.094 1674.41ZM512.344 1647.69C514.823 1651.02 516.062 1655.38 516.062 1660.75C516.062 1666.12 514.719 1670.48 512.031 1673.81C509.344 1677.12 505.698 1678.78 501.094 1678.78C498.635 1678.78 496.448 1678.31 494.531 1677.38C492.615 1676.44 491.062 1675.15 489.875 1673.5C487.479 1670.19 486.281 1665.88 486.281 1660.56C486.281 1655.25 487.604 1650.95 490.25 1647.66C492.896 1644.34 496.615 1642.69 501.406 1642.69C506.219 1642.69 509.865 1644.35 512.344 1647.69ZM537.375 1678H531.688V1643.72H536.344L536.812 1650.06C538.208 1647.65 540.042 1645.81 542.312 1644.56C544.583 1643.31 547.156 1642.69 550.031 1642.69H552.781V1647.97H549.219C545.573 1647.97 542.688 1648.89 540.562 1650.72C538.438 1652.53 537.375 1655.27 537.375 1658.94V1678ZM575.812 1678H570.125V1643.72H574.781L575.25 1650.06C576.646 1647.65 578.479 1645.81 580.75 1644.56C583.021 1643.31 585.594 1642.69 588.469 1642.69H591.219V1647.97H587.656C584.01 1647.97 581.125 1648.89 579 1650.72C576.875 1652.53 575.812 1655.27 575.812 1658.94V1678ZM616.406 1674.41C620.385 1674.41 623.094 1672.43 624.531 1668.47C625.302 1666.34 625.688 1664.17 625.688 1661.94C625.688 1659.69 625.604 1657.94 625.438 1656.69C625.062 1653.85 624.156 1651.54 622.719 1649.75C621.302 1647.96 619.198 1647.06 616.406 1647.06C612.531 1647.06 609.885 1649.08 608.469 1653.12C607.719 1655.29 607.344 1657.56 607.344 1659.94C607.344 1664.15 608 1667.61 609.312 1670.34C610.625 1673.05 612.99 1674.41 616.406 1674.41ZM627.656 1647.69C630.135 1651.02 631.375 1655.38 631.375 1660.75C631.375 1666.12 630.031 1670.48 627.344 1673.81C624.656 1677.12 621.01 1678.78 616.406 1678.78C613.948 1678.78 611.76 1678.31 609.844 1677.38C607.927 1676.44 606.375 1675.15 605.188 1673.5C602.792 1670.19 601.594 1665.88 601.594 1660.56C601.594 1655.25 602.917 1650.95 605.562 1647.66C608.208 1644.34 611.927 1642.69 616.719 1642.69C621.531 1642.69 625.177 1644.35 627.656 1647.69ZM648.969 1678H643.156L636.469 1643.72H642.188L646.281 1670.19L652 1643.72H658.781L664.375 1670.09L667.969 1643.72H673.344L667.062 1678H661.062L655.344 1648.22L648.969 1678ZM686.938 1676.41C684.542 1674.8 682.76 1672.66 681.594 1669.97C680.448 1667.26 679.875 1664.21 679.875 1660.81C679.875 1657.42 680.406 1654.38 681.469 1651.69C682.552 1648.98 684.156 1646.8 686.281 1645.16C688.427 1643.49 690.781 1642.66 693.344 1642.66C698.177 1642.66 701.719 1644.31 703.969 1647.62C706.219 1650.94 707.344 1655.01 707.344 1659.84V1661.75H685.625C685.75 1665.27 686.625 1668.26 688.25 1670.72C689.896 1673.18 692.354 1674.41 695.625 1674.41C697.812 1674.2 700.865 1673.01 704.781 1670.84L706.656 1674.72C703.948 1677.43 700.25 1678.78 695.562 1678.78C692.208 1678.78 689.333 1677.99 686.938 1676.41ZM701.906 1657.59C701.49 1650.57 699.031 1647.06 694.531 1647.06C689.448 1647.06 686.542 1650.57 685.812 1657.59H701.906ZM729.562 1678H723.875V1643.72H728.531L729 1650.06C730.396 1647.65 732.229 1645.81 734.5 1644.56C736.771 1643.31 739.344 1642.69 742.219 1642.69H744.969V1647.97H741.406C737.76 1647.97 734.875 1648.89 732.75 1650.72C730.625 1652.53 729.562 1655.27 729.562 1658.94V1678ZM816 1670.34V1661.59L811.344 1662.25C808.094 1662.71 805.844 1663.17 804.594 1663.62C801.802 1664.69 800.406 1666.47 800.406 1668.97C800.406 1670.7 800.906 1672.07 801.906 1673.09C802.906 1674.11 804.281 1674.62 806.031 1674.62C809.885 1674.62 813.208 1673.2 816 1670.34ZM816 1654.38C816 1649.48 813.927 1647.03 809.781 1647.03C807.823 1647.03 805.656 1647.26 803.281 1647.72C800.927 1648.18 799.271 1648.61 798.312 1649.03L796.969 1644.84C801.281 1643.41 805.333 1642.69 809.125 1642.69C812.917 1642.69 815.958 1643.55 818.25 1645.28C820.542 1647.01 821.688 1649.68 821.688 1653.28V1678H816.969L816.219 1674.03C814.885 1675.39 813.167 1676.52 811.062 1677.44C808.979 1678.33 806.938 1678.78 804.938 1678.78C802.042 1678.78 799.635 1677.92 797.719 1676.19C795.802 1674.44 794.844 1671.98 794.844 1668.81C794.844 1665.62 796.094 1663.29 798.594 1661.81C800.281 1660.77 802.073 1660.06 803.969 1659.69C805.885 1659.29 808.375 1658.91 811.438 1658.53L816 1658V1654.38ZM855.344 1660.66C855.344 1655.32 854.552 1651.73 852.969 1649.88C851.385 1648 849.135 1647.06 846.219 1647.06C842.177 1647.06 839.562 1649.06 838.375 1653.06C837.729 1655.25 837.406 1657.89 837.406 1660.97C837.406 1669.93 840.344 1674.41 846.219 1674.41C852.302 1674.41 855.344 1669.82 855.344 1660.66ZM855.344 1648.44V1629.72L861.031 1629.09V1678H855.344V1672.69C853.031 1676.75 849.76 1678.78 845.531 1678.78C840.698 1678.78 837.177 1677.05 834.969 1673.59C832.781 1670.14 831.688 1665.79 831.688 1660.56C831.688 1654.27 833.292 1649.48 836.5 1646.19C838.75 1643.85 841.771 1642.69 845.562 1642.69C848.146 1642.69 850.24 1643.22 851.844 1644.28C853.469 1645.34 854.635 1646.73 855.344 1648.44ZM893.781 1660.66C893.781 1655.32 892.99 1651.73 891.406 1649.88C889.823 1648 887.573 1647.06 884.656 1647.06C880.615 1647.06 878 1649.06 876.812 1653.06C876.167 1655.25 875.844 1657.89 875.844 1660.97C875.844 1669.93 878.781 1674.41 884.656 1674.41C890.74 1674.41 893.781 1669.82 893.781 1660.66ZM893.781 1648.44V1629.72L899.469 1629.09V1678H893.781V1672.69C891.469 1676.75 888.198 1678.78 883.969 1678.78C879.135 1678.78 875.615 1677.05 873.406 1673.59C871.219 1670.14 870.125 1665.79 870.125 1660.56C870.125 1654.27 871.729 1649.48 874.938 1646.19C877.188 1643.85 880.208 1642.69 884 1642.69C886.583 1642.69 888.677 1643.22 890.281 1644.28C891.906 1645.34 893.073 1646.73 893.781 1648.44ZM921.75 1678H916.062V1643.72H920.719L921.188 1650.06C922.583 1647.65 924.417 1645.81 926.688 1644.56C928.958 1643.31 931.531 1642.69 934.406 1642.69H937.156V1647.97H933.594C929.948 1647.97 927.062 1648.89 924.938 1650.72C922.812 1652.53 921.75 1655.27 921.75 1658.94V1678ZM956 1676.41C953.604 1674.8 951.823 1672.66 950.656 1669.97C949.51 1667.26 948.938 1664.21 948.938 1660.81C948.938 1657.42 949.469 1654.38 950.531 1651.69C951.615 1648.98 953.219 1646.8 955.344 1645.16C957.49 1643.49 959.844 1642.66 962.406 1642.66C967.24 1642.66 970.781 1644.31 973.031 1647.62C975.281 1650.94 976.406 1655.01 976.406 1659.84V1661.75H954.688C954.812 1665.27 955.688 1668.26 957.312 1670.72C958.958 1673.18 961.417 1674.41 964.688 1674.41C966.875 1674.2 969.927 1673.01 973.844 1670.84L975.719 1674.72C973.01 1677.43 969.312 1678.78 964.625 1678.78C961.271 1678.78 958.396 1677.99 956 1676.41ZM970.969 1657.59C970.552 1650.57 968.094 1647.06 963.594 1647.06C958.51 1647.06 955.604 1650.57 954.875 1657.59H970.969ZM1005.03 1658.53C1007.99 1659.26 1010.15 1660.42 1011.5 1662C1012.88 1663.58 1013.56 1665.88 1013.56 1668.88C1013.56 1671.85 1012.42 1674.25 1010.12 1676.06C1007.85 1677.88 1005 1678.78 1001.56 1678.78C999.104 1678.78 996.719 1678.48 994.406 1677.88C992.094 1677.25 990.385 1676.52 989.281 1675.69L990.688 1671.59C991.562 1672.14 992.948 1672.69 994.844 1673.25C996.74 1673.79 998.792 1674.06 1001 1674.06C1003.23 1674.06 1005 1673.6 1006.31 1672.69C1007.65 1671.75 1008.31 1670.51 1008.31 1668.97C1008.31 1667.43 1007.98 1666.22 1007.31 1665.34C1006.67 1664.45 1005.41 1663.77 1003.53 1663.31L997.719 1661.91C994.365 1661.07 992.135 1659.86 991.031 1658.28C989.927 1656.68 989.375 1654.69 989.375 1652.31C989.375 1649.94 990.333 1647.75 992.25 1645.75C994.188 1643.75 997 1642.73 1000.69 1642.69H1001.09C1005.24 1642.69 1008.77 1643.47 1011.69 1645.03L1010.44 1649.03C1007.4 1647.74 1004.31 1647.09 1001.19 1647.09C999.25 1647.11 997.656 1647.6 996.406 1648.56C995.177 1649.5 994.562 1650.69 994.562 1652.12C994.562 1653.56 994.875 1654.65 995.5 1655.38C996.125 1656.08 997.312 1656.65 999.062 1657.06L1005.03 1658.53ZM1043.47 1658.53C1046.43 1659.26 1048.58 1660.42 1049.94 1662C1051.31 1663.58 1052 1665.88 1052 1668.88C1052 1671.85 1050.85 1674.25 1048.56 1676.06C1046.29 1677.88 1043.44 1678.78 1040 1678.78C1037.54 1678.78 1035.16 1678.48 1032.84 1677.88C1030.53 1677.25 1028.82 1676.52 1027.72 1675.69L1029.12 1671.59C1030 1672.14 1031.39 1672.69 1033.28 1673.25C1035.18 1673.79 1037.23 1674.06 1039.44 1674.06C1041.67 1674.06 1043.44 1673.6 1044.75 1672.69C1046.08 1671.75 1046.75 1670.51 1046.75 1668.97C1046.75 1667.43 1046.42 1666.22 1045.75 1665.34C1045.1 1664.45 1043.84 1663.77 1041.97 1663.31L1036.16 1661.91C1032.8 1661.07 1030.57 1659.86 1029.47 1658.28C1028.36 1656.68 1027.81 1654.69 1027.81 1652.31C1027.81 1649.94 1028.77 1647.75 1030.69 1645.75C1032.62 1643.75 1035.44 1642.73 1039.12 1642.69H1039.53C1043.68 1642.69 1047.21 1643.47 1050.12 1645.03L1048.88 1649.03C1045.83 1647.74 1042.75 1647.09 1039.62 1647.09C1037.69 1647.11 1036.09 1647.6 1034.84 1648.56C1033.61 1649.5 1033 1650.69 1033 1652.12C1033 1653.56 1033.31 1654.65 1033.94 1655.38C1034.56 1656.08 1035.75 1656.65 1037.5 1657.06L1043.47 1658.53Z" fill="#70F1D6"/>
<rect x="106" y="986" width="1022" height="292" fill="#0B6459" stroke="#70F1D6" stroke-width="8"/>
<path d="M242.188 1022.41V1026.97H228.938V1069H223.094V1026.97H209.844V1022.41H242.188ZM262.312 1069H256.625V1034.72H261.281L261.75 1041.06C263.146 1038.65 264.979 1036.81 267.25 1035.56C269.521 1034.31 272.094 1033.69 274.969 1033.69H277.719V1038.97H274.156C270.51 1038.97 267.625 1039.89 265.5 1041.72C263.375 1043.53 262.312 1046.27 262.312 1049.94V1069ZM310.312 1061.34V1052.59L305.656 1053.25C302.406 1053.71 300.156 1054.17 298.906 1054.62C296.115 1055.69 294.719 1057.47 294.719 1059.97C294.719 1061.7 295.219 1063.07 296.219 1064.09C297.219 1065.11 298.594 1065.62 300.344 1065.62C304.198 1065.62 307.521 1064.2 310.312 1061.34ZM310.312 1045.38C310.312 1040.48 308.24 1038.03 304.094 1038.03C302.135 1038.03 299.969 1038.26 297.594 1038.72C295.24 1039.18 293.583 1039.61 292.625 1040.03L291.281 1035.84C295.594 1034.41 299.646 1033.69 303.438 1033.69C307.229 1033.69 310.271 1034.55 312.562 1036.28C314.854 1038.01 316 1040.68 316 1044.28V1069H311.281L310.531 1065.03C309.198 1066.39 307.479 1067.52 305.375 1068.44C303.292 1069.33 301.25 1069.78 299.25 1069.78C296.354 1069.78 293.948 1068.92 292.031 1067.19C290.115 1065.44 289.156 1062.98 289.156 1059.81C289.156 1056.62 290.406 1054.29 292.906 1052.81C294.594 1051.77 296.385 1051.06 298.281 1050.69C300.198 1050.29 302.688 1049.91 305.75 1049.53L310.312 1049V1045.38ZM344.5 1033.69C351.604 1033.69 355.156 1038.19 355.156 1047.19V1069H349.469V1047.88C349.469 1045.46 349.344 1043.73 349.094 1042.69C348.844 1041.65 348.469 1040.79 347.969 1040.12C346.906 1038.75 345.167 1038.06 342.75 1038.06C340.312 1038.06 338.25 1038.77 336.562 1040.19C334.875 1041.6 334.031 1043.48 334.031 1045.81V1069H328.344V1034.72H333.562L333.875 1038.44C336.146 1035.27 339.688 1033.69 344.5 1033.69ZM384.031 1049.53C386.99 1050.26 389.146 1051.42 390.5 1053C391.875 1054.58 392.562 1056.88 392.562 1059.88C392.562 1062.85 391.417 1065.25 389.125 1067.06C386.854 1068.88 384 1069.78 380.562 1069.78C378.104 1069.78 375.719 1069.48 373.406 1068.88C371.094 1068.25 369.385 1067.52 368.281 1066.69L369.688 1062.59C370.562 1063.14 371.948 1063.69 373.844 1064.25C375.74 1064.79 377.792 1065.06 380 1065.06C382.229 1065.06 384 1064.6 385.312 1063.69C386.646 1062.75 387.312 1061.51 387.312 1059.97C387.312 1058.43 386.979 1057.22 386.312 1056.34C385.667 1055.45 384.406 1054.77 382.531 1054.31L376.719 1052.91C373.365 1052.07 371.135 1050.86 370.031 1049.28C368.927 1047.68 368.375 1045.69 368.375 1043.31C368.375 1040.94 369.333 1038.75 371.25 1036.75C373.188 1034.75 376 1033.73 379.688 1033.69H380.094C384.24 1033.69 387.771 1034.47 390.688 1036.03L389.438 1040.03C386.396 1038.74 383.312 1038.09 380.188 1038.09C378.25 1038.11 376.656 1038.6 375.406 1039.56C374.177 1040.5 373.562 1041.69 373.562 1043.12C373.562 1044.56 373.875 1045.65 374.5 1046.38C375.125 1047.08 376.312 1047.65 378.062 1048.06L384.031 1049.53ZM420.188 1069H414.5V1039.09H405.531V1034.72H414.5C414.5 1030.51 414.667 1027.85 415 1026.75C415.667 1024.56 416.521 1023.01 417.562 1022.09C419.583 1020.34 423.26 1019.47 428.594 1019.47H431.906L431.594 1023.84H428.469C426.865 1023.84 425.594 1023.92 424.656 1024.06C423.719 1024.21 422.885 1024.52 422.156 1025C420.844 1025.83 420.188 1027.69 420.188 1030.56V1034.72H431.906V1039.09H420.188V1069ZM450.312 1067.41C447.917 1065.8 446.135 1063.66 444.969 1060.97C443.823 1058.26 443.25 1055.21 443.25 1051.81C443.25 1048.42 443.781 1045.38 444.844 1042.69C445.927 1039.98 447.531 1037.8 449.656 1036.16C451.802 1034.49 454.156 1033.66 456.719 1033.66C461.552 1033.66 465.094 1035.31 467.344 1038.62C469.594 1041.94 470.719 1046.01 470.719 1050.84V1052.75H449C449.125 1056.27 450 1059.26 451.625 1061.72C453.271 1064.18 455.729 1065.41 459 1065.41C461.188 1065.2 464.24 1064.01 468.156 1061.84L470.031 1065.72C467.323 1068.43 463.625 1069.78 458.938 1069.78C455.583 1069.78 452.708 1068.99 450.312 1067.41ZM465.281 1048.59C464.865 1041.57 462.406 1038.06 457.906 1038.06C452.823 1038.06 449.917 1041.57 449.188 1048.59H465.281ZM492.938 1069H487.25V1034.72H491.906L492.375 1041.06C493.771 1038.65 495.604 1036.81 497.875 1035.56C500.146 1034.31 502.719 1033.69 505.594 1033.69H508.344V1038.97H504.781C501.135 1038.97 498.25 1039.89 496.125 1041.72C494 1043.53 492.938 1046.27 492.938 1049.94V1069ZM579.375 1061.34V1052.59L574.719 1053.25C571.469 1053.71 569.219 1054.17 567.969 1054.62C565.177 1055.69 563.781 1057.47 563.781 1059.97C563.781 1061.7 564.281 1063.07 565.281 1064.09C566.281 1065.11 567.656 1065.62 569.406 1065.62C573.26 1065.62 576.583 1064.2 579.375 1061.34ZM579.375 1045.38C579.375 1040.48 577.302 1038.03 573.156 1038.03C571.198 1038.03 569.031 1038.26 566.656 1038.72C564.302 1039.18 562.646 1039.61 561.688 1040.03L560.344 1035.84C564.656 1034.41 568.708 1033.69 572.5 1033.69C576.292 1033.69 579.333 1034.55 581.625 1036.28C583.917 1038.01 585.062 1040.68 585.062 1044.28V1069H580.344L579.594 1065.03C578.26 1066.39 576.542 1067.52 574.438 1068.44C572.354 1069.33 570.312 1069.78 568.312 1069.78C565.417 1069.78 563.01 1068.92 561.094 1067.19C559.177 1065.44 558.219 1062.98 558.219 1059.81C558.219 1056.62 559.469 1054.29 561.969 1052.81C563.656 1051.77 565.448 1051.06 567.344 1050.69C569.26 1050.29 571.75 1049.91 574.812 1049.53L579.375 1049V1045.38ZM614.656 1049.53C617.615 1050.26 619.771 1051.42 621.125 1053C622.5 1054.58 623.188 1056.88 623.188 1059.88C623.188 1062.85 622.042 1065.25 619.75 1067.06C617.479 1068.88 614.625 1069.78 611.188 1069.78C608.729 1069.78 606.344 1069.48 604.031 1068.88C601.719 1068.25 600.01 1067.52 598.906 1066.69L600.312 1062.59C601.188 1063.14 602.573 1063.69 604.469 1064.25C606.365 1064.79 608.417 1065.06 610.625 1065.06C612.854 1065.06 614.625 1064.6 615.938 1063.69C617.271 1062.75 617.938 1061.51 617.938 1059.97C617.938 1058.43 617.604 1057.22 616.938 1056.34C616.292 1055.45 615.031 1054.77 613.156 1054.31L607.344 1052.91C603.99 1052.07 601.76 1050.86 600.656 1049.28C599.552 1047.68 599 1045.69 599 1043.31C599 1040.94 599.958 1038.75 601.875 1036.75C603.812 1034.75 606.625 1033.73 610.312 1033.69H610.719C614.865 1033.69 618.396 1034.47 621.312 1036.03L620.062 1040.03C617.021 1038.74 613.938 1038.09 610.812 1038.09C608.875 1038.11 607.281 1038.6 606.031 1039.56C604.802 1040.5 604.188 1041.69 604.188 1043.12C604.188 1044.56 604.5 1045.65 605.125 1046.38C605.75 1047.08 606.938 1047.65 608.688 1048.06L614.656 1049.53ZM653.094 1049.53C656.052 1050.26 658.208 1051.42 659.562 1053C660.938 1054.58 661.625 1056.88 661.625 1059.88C661.625 1062.85 660.479 1065.25 658.188 1067.06C655.917 1068.88 653.062 1069.78 649.625 1069.78C647.167 1069.78 644.781 1069.48 642.469 1068.88C640.156 1068.25 638.448 1067.52 637.344 1066.69L638.75 1062.59C639.625 1063.14 641.01 1063.69 642.906 1064.25C644.802 1064.79 646.854 1065.06 649.062 1065.06C651.292 1065.06 653.062 1064.6 654.375 1063.69C655.708 1062.75 656.375 1061.51 656.375 1059.97C656.375 1058.43 656.042 1057.22 655.375 1056.34C654.729 1055.45 653.469 1054.77 651.594 1054.31L645.781 1052.91C642.427 1052.07 640.198 1050.86 639.094 1049.28C637.99 1047.68 637.438 1045.69 637.438 1043.31C637.438 1040.94 638.396 1038.75 640.312 1036.75C642.25 1034.75 645.062 1033.73 648.75 1033.69H649.156C653.302 1033.69 656.833 1034.47 659.75 1036.03L658.5 1040.03C655.458 1038.74 652.375 1038.09 649.25 1038.09C647.312 1038.11 645.719 1038.6 644.469 1039.56C643.24 1040.5 642.625 1041.69 642.625 1043.12C642.625 1044.56 642.938 1045.65 643.562 1046.38C644.188 1047.08 645.375 1047.65 647.125 1048.06L653.094 1049.53ZM680.938 1067.41C678.542 1065.8 676.76 1063.66 675.594 1060.97C674.448 1058.26 673.875 1055.21 673.875 1051.81C673.875 1048.42 674.406 1045.38 675.469 1042.69C676.552 1039.98 678.156 1037.8 680.281 1036.16C682.427 1034.49 684.781 1033.66 687.344 1033.66C692.177 1033.66 695.719 1035.31 697.969 1038.62C700.219 1041.94 701.344 1046.01 701.344 1050.84V1052.75H679.625C679.75 1056.27 680.625 1059.26 682.25 1061.72C683.896 1064.18 686.354 1065.41 689.625 1065.41C691.812 1065.2 694.865 1064.01 698.781 1061.84L700.656 1065.72C697.948 1068.43 694.25 1069.78 689.562 1069.78C686.208 1069.78 683.333 1068.99 680.938 1067.41ZM695.906 1048.59C695.49 1041.57 693.031 1038.06 688.531 1038.06C683.448 1038.06 680.542 1041.57 679.812 1048.59H695.906ZM724.812 1039.09V1055.19C724.812 1057.19 724.917 1058.77 725.125 1059.94C725.354 1061.1 725.792 1062.05 726.438 1062.78C727.104 1063.51 727.958 1064 729 1064.25C730.042 1064.5 731.458 1064.62 733.25 1064.62H739.531L739.219 1069H733.469C727.573 1069 723.646 1067.92 721.688 1065.75C720.417 1064.33 719.635 1062.05 719.344 1058.91C719.198 1057.51 719.125 1055.79 719.125 1053.75V1039.09H709.438L710.062 1034.72H719.125V1022.91L724.812 1021.22V1034.72H739.25V1039.09H724.812ZM768.406 1049.53C771.365 1050.26 773.521 1051.42 774.875 1053C776.25 1054.58 776.938 1056.88 776.938 1059.88C776.938 1062.85 775.792 1065.25 773.5 1067.06C771.229 1068.88 768.375 1069.78 764.938 1069.78C762.479 1069.78 760.094 1069.48 757.781 1068.88C755.469 1068.25 753.76 1067.52 752.656 1066.69L754.062 1062.59C754.938 1063.14 756.323 1063.69 758.219 1064.25C760.115 1064.79 762.167 1065.06 764.375 1065.06C766.604 1065.06 768.375 1064.6 769.688 1063.69C771.021 1062.75 771.688 1061.51 771.688 1059.97C771.688 1058.43 771.354 1057.22 770.688 1056.34C770.042 1055.45 768.781 1054.77 766.906 1054.31L761.094 1052.91C757.74 1052.07 755.51 1050.86 754.406 1049.28C753.302 1047.68 752.75 1045.69 752.75 1043.31C752.75 1040.94 753.708 1038.75 755.625 1036.75C757.562 1034.75 760.375 1033.73 764.062 1033.69H764.469C768.615 1033.69 772.146 1034.47 775.062 1036.03L773.812 1040.03C770.771 1038.74 767.688 1038.09 764.562 1038.09C762.625 1038.11 761.031 1038.6 759.781 1039.56C758.552 1040.5 757.938 1041.69 757.938 1043.12C757.938 1044.56 758.25 1045.65 758.875 1046.38C759.5 1047.08 760.688 1047.65 762.438 1048.06L768.406 1049.53ZM840.125 1039.09V1055.19C840.125 1057.19 840.229 1058.77 840.438 1059.94C840.667 1061.1 841.104 1062.05 841.75 1062.78C842.417 1063.51 843.271 1064 844.312 1064.25C845.354 1064.5 846.771 1064.62 848.562 1064.62H854.844L854.531 1069H848.781C842.885 1069 838.958 1067.92 837 1065.75C835.729 1064.33 834.948 1062.05 834.656 1058.91C834.51 1057.51 834.438 1055.79 834.438 1053.75V1039.09H824.75L825.375 1034.72H834.438V1022.91L840.125 1021.22V1034.72H854.562V1039.09H840.125ZM879.469 1065.41C883.448 1065.41 886.156 1063.43 887.594 1059.47C888.365 1057.34 888.75 1055.17 888.75 1052.94C888.75 1050.69 888.667 1048.94 888.5 1047.69C888.125 1044.85 887.219 1042.54 885.781 1040.75C884.365 1038.96 882.26 1038.06 879.469 1038.06C875.594 1038.06 872.948 1040.08 871.531 1044.12C870.781 1046.29 870.406 1048.56 870.406 1050.94C870.406 1055.15 871.062 1058.61 872.375 1061.34C873.688 1064.05 876.052 1065.41 879.469 1065.41ZM890.719 1038.69C893.198 1042.02 894.438 1046.38 894.438 1051.75C894.438 1057.12 893.094 1061.48 890.406 1064.81C887.719 1068.12 884.073 1069.78 879.469 1069.78C877.01 1069.78 874.823 1069.31 872.906 1068.38C870.99 1067.44 869.438 1066.15 868.25 1064.5C865.854 1061.19 864.656 1056.88 864.656 1051.56C864.656 1046.25 865.979 1041.95 868.625 1038.66C871.271 1035.34 874.99 1033.69 879.781 1033.69C884.594 1033.69 888.24 1035.35 890.719 1038.69ZM948.469 1055.94C948.844 1058.85 949.719 1061.16 951.094 1062.84C952.49 1064.53 954.615 1065.38 957.469 1065.38C961.323 1065.38 963.927 1063.38 965.281 1059.38C965.969 1057.27 966.312 1055.08 966.312 1052.81C966.312 1050.52 966.24 1048.76 966.094 1047.53C965.781 1044.61 964.958 1042.31 963.625 1040.62C962.312 1038.92 960.26 1038.06 957.469 1038.06C952.802 1038.06 949.948 1040.31 948.906 1044.81C948.469 1046.69 948.25 1048.7 948.25 1050.84C948.25 1052.97 948.323 1054.67 948.469 1055.94ZM948.25 1039.44C950.562 1035.6 954.021 1033.69 958.625 1033.69C963.25 1033.69 966.635 1035.35 968.781 1038.69C970.948 1042.02 972.031 1046.21 972.031 1051.25C972.031 1057.85 970.469 1062.82 967.344 1066.16C965.094 1068.57 962.031 1069.78 958.156 1069.78C955.594 1069.78 953.635 1069.31 952.281 1068.38C950.948 1067.42 949.604 1066.06 948.25 1064.31L948.188 1069H942.562V1020.72L948.25 1020.09V1039.44ZM988.438 1067.41C986.042 1065.8 984.26 1063.66 983.094 1060.97C981.948 1058.26 981.375 1055.21 981.375 1051.81C981.375 1048.42 981.906 1045.38 982.969 1042.69C984.052 1039.98 985.656 1037.8 987.781 1036.16C989.927 1034.49 992.281 1033.66 994.844 1033.66C999.677 1033.66 1003.22 1035.31 1005.47 1038.62C1007.72 1041.94 1008.84 1046.01 1008.84 1050.84V1052.75H987.125C987.25 1056.27 988.125 1059.26 989.75 1061.72C991.396 1064.18 993.854 1065.41 997.125 1065.41C999.312 1065.2 1002.36 1064.01 1006.28 1061.84L1008.16 1065.72C1005.45 1068.43 1001.75 1069.78 997.062 1069.78C993.708 1069.78 990.833 1068.99 988.438 1067.41ZM1003.41 1048.59C1002.99 1041.57 1000.53 1038.06 996.031 1038.06C990.948 1038.06 988.042 1041.57 987.312 1048.59H1003.41ZM204.656 1153H198.969V1118.72H203.625L204.094 1125.06C205.49 1122.65 207.323 1120.81 209.594 1119.56C211.865 1118.31 214.438 1117.69 217.312 1117.69H220.062V1122.97H216.5C212.854 1122.97 209.969 1123.89 207.844 1125.72C205.719 1127.53 204.656 1130.27 204.656 1133.94V1153ZM238.906 1151.41C236.51 1149.8 234.729 1147.66 233.562 1144.97C232.417 1142.26 231.844 1139.21 231.844 1135.81C231.844 1132.42 232.375 1129.38 233.438 1126.69C234.521 1123.98 236.125 1121.8 238.25 1120.16C240.396 1118.49 242.75 1117.66 245.312 1117.66C250.146 1117.66 253.688 1119.31 255.938 1122.62C258.188 1125.94 259.312 1130.01 259.312 1134.84V1136.75H237.594C237.719 1140.27 238.594 1143.26 240.219 1145.72C241.865 1148.18 244.323 1149.41 247.594 1149.41C249.781 1149.2 252.833 1148.01 256.75 1145.84L258.625 1149.72C255.917 1152.43 252.219 1153.78 247.531 1153.78C244.177 1153.78 241.302 1152.99 238.906 1151.41ZM253.875 1132.59C253.458 1125.57 251 1122.06 246.5 1122.06C241.417 1122.06 238.51 1125.57 237.781 1132.59H253.875ZM275.156 1135.66C275.156 1144.82 278.365 1149.41 284.781 1149.41C290.552 1149.41 293.438 1144.82 293.438 1135.66C293.438 1130.57 292.656 1127.04 291.094 1125.06C289.552 1123.06 287.417 1122.06 284.688 1122.06C279.354 1122.06 276.271 1125.15 275.438 1131.31C275.25 1132.6 275.156 1134.05 275.156 1135.66ZM285 1153.78C282.792 1153.78 280.833 1153.27 279.125 1152.25C277.417 1151.23 276.115 1149.92 275.219 1148.31V1166.16L269.531 1166.78V1118.72H275.219V1123.44C276.219 1121.73 277.552 1120.34 279.219 1119.28C280.885 1118.22 282.771 1117.69 284.875 1117.69C290.521 1117.69 294.531 1120.02 296.906 1124.69C298.406 1127.65 299.156 1131.17 299.156 1135.25C299.156 1141.77 297.583 1146.73 294.438 1150.12C292.188 1152.56 289.042 1153.78 285 1153.78ZM329.531 1145.34V1136.59L324.875 1137.25C321.625 1137.71 319.375 1138.17 318.125 1138.62C315.333 1139.69 313.938 1141.47 313.938 1143.97C313.938 1145.7 314.438 1147.07 315.438 1148.09C316.438 1149.11 317.812 1149.62 319.562 1149.62C323.417 1149.62 326.74 1148.2 329.531 1145.34ZM329.531 1129.38C329.531 1124.48 327.458 1122.03 323.312 1122.03C321.354 1122.03 319.188 1122.26 316.812 1122.72C314.458 1123.18 312.802 1123.61 311.844 1124.03L310.5 1119.84C314.812 1118.41 318.865 1117.69 322.656 1117.69C326.448 1117.69 329.49 1118.55 331.781 1120.28C334.073 1122.01 335.219 1124.68 335.219 1128.28V1153H330.5L329.75 1149.03C328.417 1150.39 326.698 1151.52 324.594 1152.44C322.51 1153.33 320.469 1153.78 318.469 1153.78C315.573 1153.78 313.167 1152.92 311.25 1151.19C309.333 1149.44 308.375 1146.98 308.375 1143.81C308.375 1140.62 309.625 1138.29 312.125 1136.81C313.812 1135.77 315.604 1135.06 317.5 1134.69C319.417 1134.29 321.906 1133.91 324.969 1133.53L329.531 1133V1129.38ZM358.25 1109.69V1106.59C358.25 1105.84 358.667 1105.19 359.5 1104.62C360.354 1104.04 361.198 1103.75 362.031 1103.75C362.865 1103.75 363.698 1104.04 364.531 1104.62C365.385 1105.19 365.812 1105.84 365.812 1106.59V1109.69C365.812 1110.44 365.385 1111.1 364.531 1111.69C363.698 1112.25 362.865 1112.53 362.031 1112.53C361.198 1112.53 360.354 1112.25 359.5 1111.69C358.667 1111.1 358.25 1110.44 358.25 1109.69ZM349.406 1123.09V1118.72H364.875V1148.62H374.688V1153H348.312V1148.62H359.188V1123.09H349.406ZM407.312 1135.66C407.312 1130.32 406.521 1126.73 404.938 1124.88C403.354 1123 401.104 1122.06 398.188 1122.06C394.146 1122.06 391.531 1124.06 390.344 1128.06C389.698 1130.25 389.375 1132.89 389.375 1135.97C389.375 1144.93 392.312 1149.41 398.188 1149.41C404.271 1149.41 407.312 1144.82 407.312 1135.66ZM407.312 1123.44V1104.72L413 1104.09V1153H407.312V1147.69C405 1151.75 401.729 1153.78 397.5 1153.78C392.667 1153.78 389.146 1152.05 386.938 1148.59C384.75 1145.14 383.656 1140.79 383.656 1135.56C383.656 1129.27 385.26 1124.48 388.469 1121.19C390.719 1118.85 393.74 1117.69 397.531 1117.69C400.115 1117.69 402.208 1118.22 403.812 1119.28C405.438 1120.34 406.604 1121.73 407.312 1123.44ZM477.844 1153H472.156V1123.09H463.188V1118.72H472.156C472.156 1114.51 472.323 1111.85 472.656 1110.75C473.323 1108.56 474.177 1107.01 475.219 1106.09C477.24 1104.34 480.917 1103.47 486.25 1103.47H489.562L489.25 1107.84H486.125C484.521 1107.84 483.25 1107.92 482.312 1108.06C481.375 1108.21 480.542 1108.52 479.812 1109C478.5 1109.83 477.844 1111.69 477.844 1114.56V1118.72H489.562V1123.09H477.844V1153ZM512.156 1153H506.469V1118.72H511.125L511.594 1125.06C512.99 1122.65 514.823 1120.81 517.094 1119.56C519.365 1118.31 521.938 1117.69 524.812 1117.69H527.562V1122.97H524C520.354 1122.97 517.469 1123.89 515.344 1125.72C513.219 1127.53 512.156 1130.27 512.156 1133.94V1153ZM552.75 1149.41C556.729 1149.41 559.438 1147.43 560.875 1143.47C561.646 1141.34 562.031 1139.17 562.031 1136.94C562.031 1134.69 561.948 1132.94 561.781 1131.69C561.406 1128.85 560.5 1126.54 559.062 1124.75C557.646 1122.96 555.542 1122.06 552.75 1122.06C548.875 1122.06 546.229 1124.08 544.812 1128.12C544.062 1130.29 543.688 1132.56 543.688 1134.94C543.688 1139.15 544.344 1142.61 545.656 1145.34C546.969 1148.05 549.333 1149.41 552.75 1149.41ZM564 1122.69C566.479 1126.02 567.719 1130.38 567.719 1135.75C567.719 1141.12 566.375 1145.48 563.688 1148.81C561 1152.12 557.354 1153.78 552.75 1153.78C550.292 1153.78 548.104 1153.31 546.188 1152.38C544.271 1151.44 542.719 1150.15 541.531 1148.5C539.135 1145.19 537.938 1140.88 537.938 1135.56C537.938 1130.25 539.26 1125.95 541.906 1122.66C544.552 1119.34 548.271 1117.69 553.062 1117.69C557.875 1117.69 561.521 1119.35 564 1122.69ZM592.938 1123C594.312 1119.46 596.719 1117.69 600.156 1117.69C604.51 1117.69 606.969 1120.82 607.531 1127.09C607.635 1128.26 607.688 1129.57 607.688 1131.03V1153H602.469V1131.69C602.469 1127.58 602.198 1125.04 601.656 1124.06C601.115 1123.06 600.615 1122.48 600.156 1122.31C599.719 1122.15 599.229 1122.06 598.688 1122.06C596.854 1122.06 595.552 1123.08 594.781 1125.12C594.281 1126.44 594.031 1128.65 594.031 1131.75V1153H589.25V1132.09C589.25 1127.49 588.708 1124.5 587.625 1123.12C587.062 1122.42 586.25 1122.06 585.188 1122.06C584.146 1122.06 583.25 1122.52 582.5 1123.44C581.104 1125.15 580.406 1127.49 580.406 1130.47V1153H575.188V1118.72H579.719L580.062 1123.25C580.667 1121.69 581.5 1120.38 582.562 1119.31C583.625 1118.23 584.948 1117.69 586.531 1117.69C588.135 1117.69 589.49 1118.16 590.594 1119.09C591.719 1120.03 592.5 1121.33 592.938 1123ZM667.156 1123.09V1139.19C667.156 1141.19 667.26 1142.77 667.469 1143.94C667.698 1145.1 668.135 1146.05 668.781 1146.78C669.448 1147.51 670.302 1148 671.344 1148.25C672.385 1148.5 673.802 1148.62 675.594 1148.62H681.875L681.562 1153H675.812C669.917 1153 665.99 1151.92 664.031 1149.75C662.76 1148.33 661.979 1146.05 661.688 1142.91C661.542 1141.51 661.469 1139.79 661.469 1137.75V1123.09H651.781L652.406 1118.72H661.469V1106.91L667.156 1105.22V1118.72H681.594V1123.09H667.156ZM720 1132.31V1153H714.312V1133.03C714.312 1128.74 713.74 1125.84 712.594 1124.34C711.448 1122.82 709.719 1122.06 707.406 1122.06C705.073 1122.06 703.042 1122.88 701.312 1124.5C699.604 1126.1 698.75 1127.83 698.75 1129.69V1153H693.062V1104.72L698.75 1104.09V1122.88C701.417 1119.42 704.99 1117.69 709.469 1117.69C716.49 1117.69 720 1122.56 720 1132.31ZM738.594 1151.41C736.198 1149.8 734.417 1147.66 733.25 1144.97C732.104 1142.26 731.531 1139.21 731.531 1135.81C731.531 1132.42 732.062 1129.38 733.125 1126.69C734.208 1123.98 735.812 1121.8 737.938 1120.16C740.083 1118.49 742.438 1117.66 745 1117.66C749.833 1117.66 753.375 1119.31 755.625 1122.62C757.875 1125.94 759 1130.01 759 1134.84V1136.75H737.281C737.406 1140.27 738.281 1143.26 739.906 1145.72C741.552 1148.18 744.01 1149.41 747.281 1149.41C749.469 1149.2 752.521 1148.01 756.438 1145.84L758.312 1149.72C755.604 1152.43 751.906 1153.78 747.219 1153.78C743.865 1153.78 740.99 1152.99 738.594 1151.41ZM753.562 1132.59C753.146 1125.57 750.688 1122.06 746.188 1122.06C741.104 1122.06 738.198 1125.57 737.469 1132.59H753.562ZM834 1150.75C831.812 1152.77 828.698 1153.78 824.656 1153.78C822.073 1153.78 819.719 1153.29 817.594 1152.31C815.469 1151.31 813.729 1149.98 812.375 1148.31C809.521 1144.81 808.094 1140.59 808.094 1135.66C808.094 1132.47 808.74 1129.52 810.031 1126.81C811.344 1124.1 813.271 1121.91 815.812 1120.22C818.354 1118.53 821.49 1117.69 825.219 1117.69C828.948 1117.69 831.844 1118.68 833.906 1120.66L832.469 1124.47C830.073 1122.86 827.365 1122.06 824.344 1122.06C821.323 1122.06 818.812 1123.35 816.812 1125.94C814.833 1128.52 813.844 1131.81 813.844 1135.81C813.844 1139.79 814.833 1143.05 816.812 1145.59C818.812 1148.14 821.354 1149.41 824.438 1149.41C827.542 1149.41 830.271 1148.57 832.625 1146.91L834 1150.75ZM867.656 1145.34V1136.59L863 1137.25C859.75 1137.71 857.5 1138.17 856.25 1138.62C853.458 1139.69 852.062 1141.47 852.062 1143.97C852.062 1145.7 852.562 1147.07 853.562 1148.09C854.562 1149.11 855.938 1149.62 857.688 1149.62C861.542 1149.62 864.865 1148.2 867.656 1145.34ZM867.656 1129.38C867.656 1124.48 865.583 1122.03 861.438 1122.03C859.479 1122.03 857.312 1122.26 854.938 1122.72C852.583 1123.18 850.927 1123.61 849.969 1124.03L848.625 1119.84C852.938 1118.41 856.99 1117.69 860.781 1117.69C864.573 1117.69 867.615 1118.55 869.906 1120.28C872.198 1122.01 873.344 1124.68 873.344 1128.28V1153H868.625L867.875 1149.03C866.542 1150.39 864.823 1151.52 862.719 1152.44C860.635 1153.33 858.594 1153.78 856.594 1153.78C853.698 1153.78 851.292 1152.92 849.375 1151.19C847.458 1149.44 846.5 1146.98 846.5 1143.81C846.5 1140.62 847.75 1138.29 850.25 1136.81C851.938 1135.77 853.729 1135.06 855.625 1134.69C857.542 1134.29 860.031 1133.91 863.094 1133.53L867.656 1133V1129.38ZM912.031 1153H907.5C903.479 1153 900.604 1152.58 898.875 1151.75C897.875 1151.27 897.083 1150.72 896.5 1150.09C894.958 1148.49 894.156 1144.95 894.094 1139.47V1108.47H883.844V1104.09H899.781V1139.19C899.781 1143.33 900.156 1145.88 900.906 1146.81C901.677 1147.75 902.635 1148.29 903.781 1148.44C904.927 1148.56 906.094 1148.62 907.281 1148.62H912.312L912.031 1153ZM950.469 1153H945.938C941.917 1153 939.042 1152.58 937.312 1151.75C936.312 1151.27 935.521 1150.72 934.938 1150.09C933.396 1148.49 932.594 1144.95 932.531 1139.47V1108.47H922.281V1104.09H938.219V1139.19C938.219 1143.33 938.594 1145.88 939.344 1146.81C940.115 1147.75 941.073 1148.29 942.219 1148.44C943.365 1148.56 944.531 1148.62 945.719 1148.62H950.75L950.469 1153ZM969.219 1151.41C966.823 1149.8 965.042 1147.66 963.875 1144.97C962.729 1142.26 962.156 1139.21 962.156 1135.81C962.156 1132.42 962.688 1129.38 963.75 1126.69C964.833 1123.98 966.438 1121.8 968.562 1120.16C970.708 1118.49 973.062 1117.66 975.625 1117.66C980.458 1117.66 984 1119.31 986.25 1122.62C988.5 1125.94 989.625 1130.01 989.625 1134.84V1136.75H967.906C968.031 1140.27 968.906 1143.26 970.531 1145.72C972.177 1148.18 974.635 1149.41 977.906 1149.41C980.094 1149.2 983.146 1148.01 987.062 1145.84L988.938 1149.72C986.229 1152.43 982.531 1153.78 977.844 1153.78C974.49 1153.78 971.615 1152.99 969.219 1151.41ZM984.188 1132.59C983.771 1125.57 981.312 1122.06 976.812 1122.06C971.729 1122.06 968.823 1125.57 968.094 1132.59H984.188ZM1011.84 1153H1006.16V1118.72H1010.81L1011.28 1125.06C1012.68 1122.65 1014.51 1120.81 1016.78 1119.56C1019.05 1118.31 1021.62 1117.69 1024.5 1117.69H1027.25V1122.97H1023.69C1020.04 1122.97 1017.16 1123.89 1015.03 1125.72C1012.91 1127.53 1011.84 1130.27 1011.84 1133.94V1153ZM233.438 1229.34V1220.59L228.781 1221.25C225.531 1221.71 223.281 1222.17 222.031 1222.62C219.24 1223.69 217.844 1225.47 217.844 1227.97C217.844 1229.7 218.344 1231.07 219.344 1232.09C220.344 1233.11 221.719 1233.62 223.469 1233.62C227.323 1233.62 230.646 1232.2 233.438 1229.34ZM233.438 1213.38C233.438 1208.48 231.365 1206.03 227.219 1206.03C225.26 1206.03 223.094 1206.26 220.719 1206.72C218.365 1207.18 216.708 1207.61 215.75 1208.03L214.406 1203.84C218.719 1202.41 222.771 1201.69 226.562 1201.69C230.354 1201.69 233.396 1202.55 235.688 1204.28C237.979 1206.01 239.125 1208.68 239.125 1212.28V1237H234.406L233.656 1233.03C232.323 1234.39 230.604 1235.52 228.5 1236.44C226.417 1237.33 224.375 1237.78 222.375 1237.78C219.479 1237.78 217.073 1236.92 215.156 1235.19C213.24 1233.44 212.281 1230.98 212.281 1227.81C212.281 1224.62 213.531 1222.29 216.031 1220.81C217.719 1219.77 219.51 1219.06 221.406 1218.69C223.323 1218.29 225.812 1217.91 228.875 1217.53L233.438 1217V1213.38ZM272.781 1219.66C272.781 1214.32 271.99 1210.73 270.406 1208.88C268.823 1207 266.573 1206.06 263.656 1206.06C259.615 1206.06 257 1208.06 255.812 1212.06C255.167 1214.25 254.844 1216.89 254.844 1219.97C254.844 1228.93 257.781 1233.41 263.656 1233.41C269.74 1233.41 272.781 1228.82 272.781 1219.66ZM272.781 1207.44V1188.72L278.469 1188.09V1237H272.781V1231.69C270.469 1235.75 267.198 1237.78 262.969 1237.78C258.135 1237.78 254.615 1236.05 252.406 1232.59C250.219 1229.14 249.125 1224.79 249.125 1219.56C249.125 1213.27 250.729 1208.48 253.938 1205.19C256.188 1202.85 259.208 1201.69 263 1201.69C265.583 1201.69 267.677 1202.22 269.281 1203.28C270.906 1204.34 272.073 1205.73 272.781 1207.44ZM311.219 1219.66C311.219 1214.32 310.427 1210.73 308.844 1208.88C307.26 1207 305.01 1206.06 302.094 1206.06C298.052 1206.06 295.438 1208.06 294.25 1212.06C293.604 1214.25 293.281 1216.89 293.281 1219.97C293.281 1228.93 296.219 1233.41 302.094 1233.41C308.177 1233.41 311.219 1228.82 311.219 1219.66ZM311.219 1207.44V1188.72L316.906 1188.09V1237H311.219V1231.69C308.906 1235.75 305.635 1237.78 301.406 1237.78C296.573 1237.78 293.052 1236.05 290.844 1232.59C288.656 1229.14 287.562 1224.79 287.562 1219.56C287.562 1213.27 289.167 1208.48 292.375 1205.19C294.625 1202.85 297.646 1201.69 301.438 1201.69C304.021 1201.69 306.115 1202.22 307.719 1203.28C309.344 1204.34 310.51 1205.73 311.219 1207.44ZM339.188 1237H333.5V1202.72H338.156L338.625 1209.06C340.021 1206.65 341.854 1204.81 344.125 1203.56C346.396 1202.31 348.969 1201.69 351.844 1201.69H354.594V1206.97H351.031C347.385 1206.97 344.5 1207.89 342.375 1209.72C340.25 1211.53 339.188 1214.27 339.188 1217.94V1237ZM373.438 1235.41C371.042 1233.8 369.26 1231.66 368.094 1228.97C366.948 1226.26 366.375 1223.21 366.375 1219.81C366.375 1216.42 366.906 1213.38 367.969 1210.69C369.052 1207.98 370.656 1205.8 372.781 1204.16C374.927 1202.49 377.281 1201.66 379.844 1201.66C384.677 1201.66 388.219 1203.31 390.469 1206.62C392.719 1209.94 393.844 1214.01 393.844 1218.84V1220.75H372.125C372.25 1224.27 373.125 1227.26 374.75 1229.72C376.396 1232.18 378.854 1233.41 382.125 1233.41C384.312 1233.2 387.365 1232.01 391.281 1229.84L393.156 1233.72C390.448 1236.43 386.75 1237.78 382.062 1237.78C378.708 1237.78 375.833 1236.99 373.438 1235.41ZM388.406 1216.59C387.99 1209.57 385.531 1206.06 381.031 1206.06C375.948 1206.06 373.042 1209.57 372.312 1216.59H388.406ZM422.469 1217.53C425.427 1218.26 427.583 1219.42 428.938 1221C430.312 1222.58 431 1224.88 431 1227.88C431 1230.85 429.854 1233.25 427.562 1235.06C425.292 1236.88 422.438 1237.78 419 1237.78C416.542 1237.78 414.156 1237.48 411.844 1236.88C409.531 1236.25 407.823 1235.52 406.719 1234.69L408.125 1230.59C409 1231.14 410.385 1231.69 412.281 1232.25C414.177 1232.79 416.229 1233.06 418.438 1233.06C420.667 1233.06 422.438 1232.6 423.75 1231.69C425.083 1230.75 425.75 1229.51 425.75 1227.97C425.75 1226.43 425.417 1225.22 424.75 1224.34C424.104 1223.45 422.844 1222.77 420.969 1222.31L415.156 1220.91C411.802 1220.07 409.573 1218.86 408.469 1217.28C407.365 1215.68 406.812 1213.69 406.812 1211.31C406.812 1208.94 407.771 1206.75 409.688 1204.75C411.625 1202.75 414.438 1201.73 418.125 1201.69H418.531C422.677 1201.69 426.208 1202.47 429.125 1204.03L427.875 1208.03C424.833 1206.74 421.75 1206.09 418.625 1206.09C416.688 1206.11 415.094 1206.6 413.844 1207.56C412.615 1208.5 412 1209.69 412 1211.12C412 1212.56 412.312 1213.65 412.938 1214.38C413.562 1215.08 414.75 1215.65 416.5 1216.06L422.469 1217.53ZM460.906 1217.53C463.865 1218.26 466.021 1219.42 467.375 1221C468.75 1222.58 469.438 1224.88 469.438 1227.88C469.438 1230.85 468.292 1233.25 466 1235.06C463.729 1236.88 460.875 1237.78 457.438 1237.78C454.979 1237.78 452.594 1237.48 450.281 1236.88C447.969 1236.25 446.26 1235.52 445.156 1234.69L446.562 1230.59C447.438 1231.14 448.823 1231.69 450.719 1232.25C452.615 1232.79 454.667 1233.06 456.875 1233.06C459.104 1233.06 460.875 1232.6 462.188 1231.69C463.521 1230.75 464.188 1229.51 464.188 1227.97C464.188 1226.43 463.854 1225.22 463.188 1224.34C462.542 1223.45 461.281 1222.77 459.406 1222.31L453.594 1220.91C450.24 1220.07 448.01 1218.86 446.906 1217.28C445.802 1215.68 445.25 1213.69 445.25 1211.31C445.25 1208.94 446.208 1206.75 448.125 1204.75C450.062 1202.75 452.875 1201.73 456.562 1201.69H456.969C461.115 1201.69 464.646 1202.47 467.562 1204.03L466.312 1208.03C463.271 1206.74 460.188 1206.09 457.062 1206.09C455.125 1206.11 453.531 1206.6 452.281 1207.56C451.052 1208.5 450.438 1209.69 450.438 1211.12C450.438 1212.56 450.75 1213.65 451.375 1214.38C452 1215.08 453.188 1215.65 454.938 1216.06L460.906 1217.53ZM532.625 1207.09V1223.19C532.625 1225.19 532.729 1226.77 532.938 1227.94C533.167 1229.1 533.604 1230.05 534.25 1230.78C534.917 1231.51 535.771 1232 536.812 1232.25C537.854 1232.5 539.271 1232.62 541.062 1232.62H547.344L547.031 1237H541.281C535.385 1237 531.458 1235.92 529.5 1233.75C528.229 1232.33 527.448 1230.05 527.156 1226.91C527.01 1225.51 526.938 1223.79 526.938 1221.75V1207.09H517.25L517.875 1202.72H526.938V1190.91L532.625 1189.22V1202.72H547.062V1207.09H532.625ZM585.469 1216.31V1237H579.781V1217.03C579.781 1212.74 579.208 1209.84 578.062 1208.34C576.917 1206.82 575.188 1206.06 572.875 1206.06C570.542 1206.06 568.51 1206.88 566.781 1208.5C565.073 1210.1 564.219 1211.83 564.219 1213.69V1237H558.531V1188.72L564.219 1188.09V1206.88C566.885 1203.42 570.458 1201.69 574.938 1201.69C581.958 1201.69 585.469 1206.56 585.469 1216.31ZM604.062 1235.41C601.667 1233.8 599.885 1231.66 598.719 1228.97C597.573 1226.26 597 1223.21 597 1219.81C597 1216.42 597.531 1213.38 598.594 1210.69C599.677 1207.98 601.281 1205.8 603.406 1204.16C605.552 1202.49 607.906 1201.66 610.469 1201.66C615.302 1201.66 618.844 1203.31 621.094 1206.62C623.344 1209.94 624.469 1214.01 624.469 1218.84V1220.75H602.75C602.875 1224.27 603.75 1227.26 605.375 1229.72C607.021 1232.18 609.479 1233.41 612.75 1233.41C614.938 1233.2 617.99 1232.01 621.906 1229.84L623.781 1233.72C621.073 1236.43 617.375 1237.78 612.688 1237.78C609.333 1237.78 606.458 1236.99 604.062 1235.41ZM619.031 1216.59C618.615 1209.57 616.156 1206.06 611.656 1206.06C606.573 1206.06 603.667 1209.57 602.938 1216.59H619.031ZM679.5 1213.09H687.594C690.552 1213.09 692.917 1212.32 694.688 1210.78C696.479 1209.24 697.375 1206.97 697.375 1203.97C697.375 1200.97 696.49 1198.72 694.719 1197.22C692.948 1195.72 690.573 1194.97 687.594 1194.97H679.5V1213.09ZM702.156 1197.47C703.052 1199.24 703.5 1201.29 703.5 1203.62C703.5 1209.96 701.229 1214.07 696.688 1215.97C693.854 1217.16 690.302 1217.75 686.031 1217.75H679.5V1237H673.656V1190.41H686.062C694.417 1190.41 699.781 1192.76 702.156 1197.47ZM734.875 1230.44L736.938 1190.41H742.719L739.062 1237H731.906L726.156 1216.41L720.031 1237H712.969L708.656 1190.41H714.438L717.688 1230.34L723.531 1209.5H728.938L734.875 1230.44ZM778.719 1237H771.844L755.031 1199.31V1237H749.719V1190.41H756.438L773.5 1227.97V1190.41H778.719V1237ZM852.125 1190.41H858.531L844.469 1237H837.688L823.688 1190.41H830.094L841.188 1230.03L852.125 1190.41ZM886.875 1229.34V1220.59L882.219 1221.25C878.969 1221.71 876.719 1222.17 875.469 1222.62C872.677 1223.69 871.281 1225.47 871.281 1227.97C871.281 1229.7 871.781 1231.07 872.781 1232.09C873.781 1233.11 875.156 1233.62 876.906 1233.62C880.76 1233.62 884.083 1232.2 886.875 1229.34ZM886.875 1213.38C886.875 1208.48 884.802 1206.03 880.656 1206.03C878.698 1206.03 876.531 1206.26 874.156 1206.72C871.802 1207.18 870.146 1207.61 869.188 1208.03L867.844 1203.84C872.156 1202.41 876.208 1201.69 880 1201.69C883.792 1201.69 886.833 1202.55 889.125 1204.28C891.417 1206.01 892.562 1208.68 892.562 1212.28V1237H887.844L887.094 1233.03C885.76 1234.39 884.042 1235.52 881.938 1236.44C879.854 1237.33 877.812 1237.78 875.812 1237.78C872.917 1237.78 870.51 1236.92 868.594 1235.19C866.677 1233.44 865.719 1230.98 865.719 1227.81C865.719 1224.62 866.969 1222.29 869.469 1220.81C871.156 1219.77 872.948 1219.06 874.844 1218.69C876.76 1218.29 879.25 1217.91 882.312 1217.53L886.875 1217V1213.38ZM931.25 1225.88C931.25 1233.81 926.833 1237.78 918 1237.78C909.167 1237.78 904.75 1233.81 904.75 1225.88V1202.72H910.438V1226.38C910.438 1228.81 911.042 1230.59 912.25 1231.72C913.458 1232.84 915.375 1233.41 918 1233.41C920.625 1233.41 922.542 1232.84 923.75 1231.72C924.958 1230.59 925.562 1228.81 925.562 1226.38V1202.72H931.25V1225.88ZM969.688 1237H965.156C961.135 1237 958.26 1236.58 956.531 1235.75C955.531 1235.27 954.74 1234.72 954.156 1234.09C952.615 1232.49 951.812 1228.95 951.75 1223.47V1192.47H941.5V1188.09H957.438V1223.19C957.438 1227.33 957.812 1229.88 958.562 1230.81C959.333 1231.75 960.292 1232.29 961.438 1232.44C962.583 1232.56 963.75 1232.62 964.938 1232.62H969.969L969.688 1237ZM993.875 1207.09V1223.19C993.875 1225.19 993.979 1226.77 994.188 1227.94C994.417 1229.1 994.854 1230.05 995.5 1230.78C996.167 1231.51 997.021 1232 998.062 1232.25C999.104 1232.5 1000.52 1232.62 1002.31 1232.62H1008.59L1008.28 1237H1002.53C996.635 1237 992.708 1235.92 990.75 1233.75C989.479 1232.33 988.698 1230.05 988.406 1226.91C988.26 1225.51 988.188 1223.79 988.188 1221.75V1207.09H978.5L979.125 1202.72H988.188V1190.91L993.875 1189.22V1202.72H1008.31V1207.09H993.875Z" fill="#70F1D6"/>
<rect x="106" y="545" width="1022" height="292" fill="#0B6459" stroke="#70F1D6" stroke-width="8"/>
<path d="M155.875 703.844C159.208 706.573 163.177 707.938 167.781 707.938C170.281 707.938 172.208 707.177 173.562 705.656C174.917 704.115 175.594 702.125 175.594 699.688C175.594 697.25 174.885 695.406 173.469 694.156C172.073 692.885 170.375 691.844 168.375 691.031L166.5 690.281C162.958 688.865 160.5 687.667 159.125 686.688C157.771 685.708 156.781 684.812 156.156 684C154.677 682.083 153.938 679.719 153.938 676.906C153.938 673.01 155.26 669.99 157.906 667.844C160.552 665.677 163.958 664.594 168.125 664.594C173.375 664.594 177.469 665.75 180.406 668.062L178.219 672.562C175.51 670.458 172.25 669.406 168.438 669.406C165.979 669.406 164.021 670.083 162.562 671.438C161.125 672.771 160.406 674.646 160.406 677.062C160.406 679.458 161.729 681.427 164.375 682.969C165.375 683.531 166.885 684.208 168.906 685C170.948 685.792 172.979 686.719 175 687.781C177.042 688.844 178.75 690.281 180.125 692.094C181.5 693.906 182.188 696.219 182.188 699.031C182.188 703.51 180.885 706.927 178.281 709.281C175.698 711.615 172.156 712.781 167.656 712.781C162.052 712.781 157.385 711.542 153.656 709.062L155.875 703.844ZM200.469 710.406C198.073 708.802 196.292 706.656 195.125 703.969C193.979 701.26 193.406 698.208 193.406 694.812C193.406 691.417 193.938 688.375 195 685.688C196.083 682.979 197.688 680.802 199.812 679.156C201.958 677.49 204.312 676.656 206.875 676.656C211.708 676.656 215.25 678.312 217.5 681.625C219.75 684.938 220.875 689.01 220.875 693.844V695.75H199.156C199.281 699.271 200.156 702.26 201.781 704.719C203.427 707.177 205.885 708.406 209.156 708.406C211.344 708.198 214.396 707.01 218.312 704.844L220.188 708.719C217.479 711.427 213.781 712.781 209.094 712.781C205.74 712.781 202.865 711.99 200.469 710.406ZM215.438 691.594C215.021 684.573 212.562 681.062 208.062 681.062C202.979 681.062 200.073 684.573 199.344 691.594H215.438ZM244.344 682.094V698.188C244.344 700.188 244.448 701.771 244.656 702.938C244.885 704.104 245.323 705.052 245.969 705.781C246.635 706.51 247.49 707 248.531 707.25C249.573 707.5 250.99 707.625 252.781 707.625H259.062L258.75 712H253C247.104 712 243.177 710.917 241.219 708.75C239.948 707.333 239.167 705.052 238.875 701.906C238.729 700.51 238.656 698.792 238.656 696.75V682.094H228.969L229.594 677.719H238.656V665.906L244.344 664.219V677.719H258.781V682.094H244.344ZM318.312 707.438H336.312L336 712H312.469V665.406H318.312V707.438ZM365.719 672.031C364.302 670.281 362.604 669.406 360.625 669.406C358.646 669.406 356.948 670.281 355.531 672.031C354.115 673.76 353.073 676.052 352.406 678.906C351.74 681.76 351.406 685.021 351.406 688.688C351.406 692.354 351.74 695.615 352.406 698.469C353.073 701.323 354.115 703.615 355.531 705.344C356.948 707.073 358.646 707.938 360.625 707.938C362.604 707.938 364.302 707.073 365.719 705.344C367.135 703.615 368.177 701.323 368.844 698.469C369.51 695.615 369.844 692.354 369.844 688.688C369.844 685.021 369.51 681.76 368.844 678.906C368.177 676.052 367.135 673.76 365.719 672.031ZM367.469 710.844C365.469 712.135 363.188 712.781 360.625 712.781C358.062 712.781 355.781 712.135 353.781 710.844C351.781 709.531 350.167 707.75 348.938 705.5C346.5 700.979 345.281 695.365 345.281 688.656C345.281 680.365 346.917 674.042 350.188 669.688C351.333 668.146 352.792 666.917 354.562 666C356.354 665.083 358.375 664.625 360.625 664.625C362.875 664.625 364.896 665.083 366.688 666C369.938 667.667 372.292 670.573 373.75 674.719C375.229 678.844 375.969 683.49 375.969 688.656C375.969 695.365 374.75 700.979 372.312 705.5C371.083 707.75 369.469 709.531 367.469 710.844ZM393.719 692.281H404.406L399.156 672.062L393.719 692.281ZM402.375 665.406L416.156 712H410L405.594 696.969H392.5L388.125 712H382L395.75 665.406H402.375ZM452 712H445.125L428.312 674.312V712H423V665.406H429.719L446.781 702.969V665.406H452V712ZM518.562 692.531C521.521 693.26 523.677 694.417 525.031 696C526.406 697.583 527.094 699.875 527.094 702.875C527.094 705.854 525.948 708.25 523.656 710.062C521.385 711.875 518.531 712.781 515.094 712.781C512.635 712.781 510.25 712.479 507.938 711.875C505.625 711.25 503.917 710.521 502.812 709.688L504.219 705.594C505.094 706.135 506.479 706.688 508.375 707.25C510.271 707.792 512.323 708.062 514.531 708.062C516.76 708.062 518.531 707.604 519.844 706.688C521.177 705.75 521.844 704.51 521.844 702.969C521.844 701.427 521.51 700.219 520.844 699.344C520.198 698.448 518.938 697.771 517.062 697.312L511.25 695.906C507.896 695.073 505.667 693.865 504.562 692.281C503.458 690.677 502.906 688.688 502.906 686.312C502.906 683.938 503.865 681.75 505.781 679.75C507.719 677.75 510.531 676.729 514.219 676.688H514.625C518.771 676.688 522.302 677.469 525.219 679.031L523.969 683.031C520.927 681.74 517.844 681.094 514.719 681.094C512.781 681.115 511.188 681.604 509.938 682.562C508.708 683.5 508.094 684.688 508.094 686.125C508.094 687.562 508.406 688.646 509.031 689.375C509.656 690.083 510.844 690.646 512.594 691.062L518.562 692.531ZM551.844 682.094V698.188C551.844 700.188 551.948 701.771 552.156 702.938C552.385 704.104 552.823 705.052 553.469 705.781C554.135 706.51 554.99 707 556.031 707.25C557.073 707.5 558.49 707.625 560.281 707.625H566.562L566.25 712H560.5C554.604 712 550.677 710.917 548.719 708.75C547.448 707.333 546.667 705.052 546.375 701.906C546.229 700.51 546.156 698.792 546.156 696.75V682.094H536.469L537.094 677.719H546.156V665.906L551.844 664.219V677.719H566.281V682.094H551.844ZM598.594 704.344V695.594L593.938 696.25C590.688 696.708 588.438 697.167 587.188 697.625C584.396 698.688 583 700.469 583 702.969C583 704.698 583.5 706.073 584.5 707.094C585.5 708.115 586.875 708.625 588.625 708.625C592.479 708.625 595.802 707.198 598.594 704.344ZM598.594 688.375C598.594 683.479 596.521 681.031 592.375 681.031C590.417 681.031 588.25 681.26 585.875 681.719C583.521 682.177 581.865 682.615 580.906 683.031L579.562 678.844C583.875 677.406 587.927 676.688 591.719 676.688C595.51 676.688 598.552 677.552 600.844 679.281C603.135 681.01 604.281 683.677 604.281 687.281V712H599.562L598.812 708.031C597.479 709.385 595.76 710.521 593.656 711.438C591.573 712.333 589.531 712.781 587.531 712.781C584.635 712.781 582.229 711.917 580.312 710.188C578.396 708.438 577.438 705.979 577.438 702.812C577.438 699.625 578.688 697.292 581.188 695.812C582.875 694.771 584.667 694.062 586.562 693.688C588.479 693.292 590.969 692.906 594.031 692.531L598.594 692V688.375ZM628.719 682.094V698.188C628.719 700.188 628.823 701.771 629.031 702.938C629.26 704.104 629.698 705.052 630.344 705.781C631.01 706.51 631.865 707 632.906 707.25C633.948 707.5 635.365 707.625 637.156 707.625H643.438L643.125 712H637.375C631.479 712 627.552 710.917 625.594 708.75C624.323 707.333 623.542 705.052 623.25 701.906C623.104 700.51 623.031 698.792 623.031 696.75V682.094H613.344L613.969 677.719H623.031V665.906L628.719 664.219V677.719H643.156V682.094H628.719ZM661.719 710.406C659.323 708.802 657.542 706.656 656.375 703.969C655.229 701.26 654.656 698.208 654.656 694.812C654.656 691.417 655.188 688.375 656.25 685.688C657.333 682.979 658.938 680.802 661.062 679.156C663.208 677.49 665.562 676.656 668.125 676.656C672.958 676.656 676.5 678.312 678.75 681.625C681 684.938 682.125 689.01 682.125 693.844V695.75H660.406C660.531 699.271 661.406 702.26 663.031 704.719C664.677 707.177 667.135 708.406 670.406 708.406C672.594 708.198 675.646 707.01 679.562 704.844L681.438 708.719C678.729 711.427 675.031 712.781 670.344 712.781C666.99 712.781 664.115 711.99 661.719 710.406ZM676.688 691.594C676.271 684.573 673.812 681.062 669.312 681.062C664.229 681.062 661.323 684.573 660.594 691.594H676.688ZM744.031 682.094V698.188C744.031 700.188 744.135 701.771 744.344 702.938C744.573 704.104 745.01 705.052 745.656 705.781C746.323 706.51 747.177 707 748.219 707.25C749.26 707.5 750.677 707.625 752.469 707.625H758.75L758.438 712H752.688C746.792 712 742.865 710.917 740.906 708.75C739.635 707.333 738.854 705.052 738.562 701.906C738.417 700.51 738.344 698.792 738.344 696.75V682.094H728.656L729.281 677.719H738.344V665.906L744.031 664.219V677.719H758.469V682.094H744.031ZM783.375 708.406C787.354 708.406 790.062 706.427 791.5 702.469C792.271 700.344 792.656 698.167 792.656 695.938C792.656 693.688 792.573 691.938 792.406 690.688C792.031 687.854 791.125 685.542 789.688 683.75C788.271 681.958 786.167 681.062 783.375 681.062C779.5 681.062 776.854 683.083 775.438 687.125C774.688 689.292 774.312 691.562 774.312 693.938C774.312 698.146 774.969 701.615 776.281 704.344C777.594 707.052 779.958 708.406 783.375 708.406ZM794.625 681.688C797.104 685.021 798.344 689.375 798.344 694.75C798.344 700.125 797 704.479 794.312 707.812C791.625 711.125 787.979 712.781 783.375 712.781C780.917 712.781 778.729 712.312 776.812 711.375C774.896 710.438 773.344 709.146 772.156 707.5C769.76 704.188 768.562 699.875 768.562 694.562C768.562 689.25 769.885 684.948 772.531 681.656C775.177 678.344 778.896 676.688 783.688 676.688C788.5 676.688 792.146 678.354 794.625 681.688ZM858.094 712H852.406V677.719H857.062L857.531 684.062C858.927 681.646 860.76 679.812 863.031 678.562C865.302 677.312 867.875 676.688 870.75 676.688H873.5V681.969H869.938C866.292 681.969 863.406 682.885 861.281 684.719C859.156 686.531 858.094 689.271 858.094 692.938V712ZM892.344 710.406C889.948 708.802 888.167 706.656 887 703.969C885.854 701.26 885.281 698.208 885.281 694.812C885.281 691.417 885.812 688.375 886.875 685.688C887.958 682.979 889.562 680.802 891.688 679.156C893.833 677.49 896.188 676.656 898.75 676.656C903.583 676.656 907.125 678.312 909.375 681.625C911.625 684.938 912.75 689.01 912.75 693.844V695.75H891.031C891.156 699.271 892.031 702.26 893.656 704.719C895.302 707.177 897.76 708.406 901.031 708.406C903.219 708.198 906.271 707.01 910.188 704.844L912.062 708.719C909.354 711.427 905.656 712.781 900.969 712.781C897.615 712.781 894.74 711.99 892.344 710.406ZM907.312 691.594C906.896 684.573 904.438 681.062 899.938 681.062C894.854 681.062 891.948 684.573 891.219 691.594H907.312ZM928.594 694.656C928.594 703.823 931.802 708.406 938.219 708.406C943.99 708.406 946.875 703.823 946.875 694.656C946.875 689.573 946.094 686.042 944.531 684.062C942.99 682.062 940.854 681.062 938.125 681.062C932.792 681.062 929.708 684.146 928.875 690.312C928.688 691.604 928.594 693.052 928.594 694.656ZM938.438 712.781C936.229 712.781 934.271 712.271 932.562 711.25C930.854 710.229 929.552 708.917 928.656 707.312V725.156L922.969 725.781V677.719H928.656V682.438C929.656 680.729 930.99 679.344 932.656 678.281C934.323 677.219 936.208 676.688 938.312 676.688C943.958 676.688 947.969 679.021 950.344 683.688C951.844 686.646 952.594 690.167 952.594 694.25C952.594 700.771 951.021 705.729 947.875 709.125C945.625 711.562 942.479 712.781 938.438 712.781ZM982.969 704.344V695.594L978.312 696.25C975.062 696.708 972.812 697.167 971.562 697.625C968.771 698.688 967.375 700.469 967.375 702.969C967.375 704.698 967.875 706.073 968.875 707.094C969.875 708.115 971.25 708.625 973 708.625C976.854 708.625 980.177 707.198 982.969 704.344ZM982.969 688.375C982.969 683.479 980.896 681.031 976.75 681.031C974.792 681.031 972.625 681.26 970.25 681.719C967.896 682.177 966.24 682.615 965.281 683.031L963.938 678.844C968.25 677.406 972.302 676.688 976.094 676.688C979.885 676.688 982.927 677.552 985.219 679.281C987.51 681.01 988.656 683.677 988.656 687.281V712H983.938L983.188 708.031C981.854 709.385 980.135 710.521 978.031 711.438C975.948 712.333 973.906 712.781 971.906 712.781C969.01 712.781 966.604 711.917 964.688 710.188C962.771 708.438 961.812 705.979 961.812 702.812C961.812 699.625 963.062 697.292 965.562 695.812C967.25 694.771 969.042 694.062 970.938 693.688C972.854 693.292 975.344 692.906 978.406 692.531L982.969 692V688.375ZM1011.69 668.688V665.594C1011.69 664.844 1012.1 664.188 1012.94 663.625C1013.79 663.042 1014.64 662.75 1015.47 662.75C1016.3 662.75 1017.14 663.042 1017.97 663.625C1018.82 664.188 1019.25 664.844 1019.25 665.594V668.688C1019.25 669.438 1018.82 670.104 1017.97 670.688C1017.14 671.25 1016.3 671.531 1015.47 671.531C1014.64 671.531 1013.79 671.25 1012.94 670.688C1012.1 670.104 1011.69 669.438 1011.69 668.688ZM1002.84 682.094V677.719H1018.31V707.625H1028.12V712H1001.75V707.625H1012.62V682.094H1002.84ZM1060.75 694.656C1060.75 689.323 1059.96 685.729 1058.38 683.875C1056.79 682 1054.54 681.062 1051.62 681.062C1047.58 681.062 1044.97 683.062 1043.78 687.062C1043.14 689.25 1042.81 691.885 1042.81 694.969C1042.81 703.927 1045.75 708.406 1051.62 708.406C1057.71 708.406 1060.75 703.823 1060.75 694.656ZM1060.75 682.438V663.719L1066.44 663.094V712H1060.75V706.688C1058.44 710.75 1055.17 712.781 1050.94 712.781C1046.1 712.781 1042.58 711.052 1040.38 707.594C1038.19 704.135 1037.09 699.792 1037.09 694.562C1037.09 688.271 1038.7 683.479 1041.91 680.188C1044.16 677.854 1047.18 676.688 1050.97 676.688C1053.55 676.688 1055.65 677.219 1057.25 678.281C1058.88 679.344 1060.04 680.729 1060.75 682.438Z" fill="#70F1D6"/>
</svg>
